<svg width="100" height="100" viewBox="0 0 100 100" fill="none" xmlns="http://www.w3.org/2000/svg">
<path d="M50.0008 90.5726C56.3078 89.8656 57.7102 80.4981 62.9969 76.9868C67.3661 74.0848 73.5114 75.214 77.7586 72.1362C82.4064 68.7682 87.1925 64.3697 88.2047 58.7199C89.2202 53.0519 86.0048 47.4091 83.0772 42.4506C80.5315 38.139 74.9896 36.4073 72.4745 32.0779C69.3908 26.7697 71.3379 19.0658 66.9802 14.7419C62.7413 10.5359 55.7893 8.31203 50.0008 9.77875C44.0018 11.2988 42.1106 19.381 36.7144 22.4107C31.772 25.1857 22.4425 21.1082 20.4031 26.3968C17.9642 32.7215 30.1655 38.5539 28.0109 44.981C25.4917 52.4954 7.89263 51.4868 9.3823 59.271C10.8409 66.8926 25.6832 59.7188 31.7558 64.55C35.9737 67.9056 32.4273 75.6533 35.5215 80.0665C38.9883 85.0111 43.9996 91.2453 50.0008 90.5726Z" fill="#38CDFF"/>
<path d="M43.2929 71.5049L41.2619 73.6597C39.914 75.0895 39.9807 77.3413 41.4104 78.6891C42.8397 80.0369 45.092 79.9704 46.4398 78.5405L49.3187 75.4865L43.2929 71.5049Z" fill="white" stroke="black" stroke-width="3" stroke-linecap="round" stroke-linejoin="round"/>
<path d="M77.6602 21.0684H70.3867C70.4178 21.3462 70.3994 21.0366 70.598 25.7272H75.3309V91.6665H79.9897V23.3976C79.9896 22.1112 78.9466 21.0684 77.6602 21.0684Z" fill="white" stroke="black" stroke-width="3" stroke-linecap="round" stroke-linejoin="round"/>
<path d="M22.3411 21.0684C21.0547 21.0684 20.0117 22.1113 20.0117 23.3979V91.6667H24.6706V25.7272H29.4033C29.6019 21.0342 29.5835 21.3462 29.6144 21.0684H22.3411Z" fill="white" stroke="black" stroke-width="3" stroke-linecap="round" stroke-linejoin="round"/>
<path d="M67.9947 21.5326C67.9309 20.0215 66.6488 18.8521 65.1456 18.9147C63.6358 18.9785 62.4636 20.2544 62.5276 21.7642L62.8108 28.4569L53.9917 29.098H46.0085L37.1897 28.4569L37.4729 21.7642C37.5383 20.2179 36.306 18.9121 34.7339 18.9121C33.2792 18.9123 32.0674 20.0635 32.0053 21.5329L31.608 30.924C31.5446 32.4199 32.6954 33.6888 34.1903 33.7718L42.1111 34.2103C42.1111 35.9746 42.1111 49.7954 42.1111 52.0186C39.661 55.3154 39.1879 55.952 36.8012 59.1633C35.5829 60.8027 35.9937 63.1294 37.6954 64.2539L53.0665 74.41C54.7074 75.4941 56.914 75.041 57.9965 73.403C59.0796 71.7637 58.6288 69.5563 56.9895 68.4731L44.7556 60.3898C46.6154 57.8872 45.4734 59.424 49.098 54.5467H51.4428L53.6973 60.4676L52.3746 61.8709L58.4003 65.8524L60.4047 63.7259C61.3401 62.7336 61.626 61.2938 61.1405 60.0194L57.8155 51.2871C57.8155 49.1826 57.8155 36.0763 57.8155 34.2142L65.8096 33.7715C67.3046 33.6886 68.4555 32.4196 68.392 30.9237L67.9947 21.5326Z" fill="white" stroke="black" stroke-width="3" stroke-linecap="round" stroke-linejoin="round"/>
<path d="M43.2929 71.5049L41.2619 73.6597C39.914 75.0895 39.9807 77.3413 41.4104 78.6891C42.8397 80.0369 45.092 79.9704 46.4398 78.5405L49.3187 75.4865L43.2929 71.5049Z" fill="white"/>
<path d="M77.6602 21.0684H70.3867C70.4178 21.3462 70.3994 21.0366 70.598 25.7272H75.3309V91.6665H79.9897V23.3976C79.9896 22.1112 78.9466 21.0684 77.6602 21.0684Z" fill="white"/>
<path d="M22.3411 21.0684C21.0547 21.0684 20.0117 22.1113 20.0117 23.3979V91.6667H24.6706V25.7272H29.4033C29.6019 21.0342 29.5835 21.3462 29.6144 21.0684H22.3411Z" fill="white"/>
<path d="M67.9947 21.5326C67.9309 20.0215 66.6488 18.8521 65.1456 18.9147C63.6358 18.9785 62.4636 20.2544 62.5276 21.7642L62.8108 28.4569L53.9917 29.098H46.0085L37.1897 28.4569L37.4729 21.7642C37.5383 20.2179 36.306 18.9121 34.7339 18.9121C33.2792 18.9123 32.0674 20.0635 32.0053 21.5329L31.608 30.924C31.5446 32.4199 32.6954 33.6888 34.1903 33.7718L42.1111 34.2103C42.1111 35.9746 42.1111 49.7954 42.1111 52.0186C39.661 55.3154 39.1879 55.952 36.8012 59.1633C35.5829 60.8027 35.9937 63.1294 37.6954 64.2539L53.0665 74.41C54.7074 75.4941 56.914 75.041 57.9965 73.403C59.0796 71.7637 58.6288 69.5563 56.9895 68.4731L44.7556 60.3898C46.6154 57.8872 45.4734 59.424 49.098 54.5467H51.4428L53.6973 60.4676L52.3746 61.8709L58.4003 65.8524L60.4047 63.7259C61.3401 62.7336 61.626 61.2938 61.1405 60.0194L57.8155 51.2871C57.8155 49.1826 57.8155 36.0763 57.8155 34.2142L65.8096 33.7715C67.3046 33.6886 68.4555 32.4196 68.392 30.9237L67.9947 21.5326Z" fill="white"/>
<circle cx="50" cy="19" r="7.3" fill="white" stroke="black" stroke-width="1.4"/>
</svg>
