<svg width="100" height="100" viewBox="0 0 100 100" fill="none" xmlns="http://www.w3.org/2000/svg">
<path d="M50.0008 90.5726C56.3078 89.8656 57.7102 80.4981 62.9969 76.9868C67.3661 74.0848 73.5114 75.214 77.7586 72.1362C82.4064 68.7682 87.1925 64.3697 88.2047 58.7199C89.2202 53.0519 86.0048 47.4091 83.0772 42.4506C80.5315 38.139 74.9896 36.4073 72.4745 32.0779C69.3908 26.7697 71.3379 19.0658 66.9802 14.7419C62.7413 10.5359 55.7893 8.31203 50.0008 9.77875C44.0018 11.2988 42.1106 19.381 36.7144 22.4107C31.772 25.1857 22.4425 21.1082 20.4031 26.3968C17.9642 32.7215 30.1655 38.5539 28.0109 44.981C25.4917 52.4954 7.89263 51.4868 9.3823 59.271C10.8409 66.8926 25.6832 59.7188 31.7558 64.55C35.9737 67.9056 32.4273 75.6533 35.5215 80.0665C38.9883 85.0111 43.9996 91.2453 50.0008 90.5726Z" fill="#38CDFF"/>
<path d="M42.9999 70L40.969 72.1548C39.621 73.5846 39.6877 75.8364 41.1174 77.1842C42.5468 78.5321 44.799 78.4655 46.1469 77.0356L49.0258 73.9816L42.9999 70Z" fill="white" stroke="black" stroke-width="2"/>
<path d="M66.983 20.6204C66.9192 19.1094 65.6371 17.9399 64.1338 18.0026C62.6241 18.0664 61.4519 19.3423 61.5158 20.8521L61.799 27.5448L52.98 28.1859H44.9968L36.1779 27.5448L36.4612 20.8521C36.5266 19.3058 35.2943 18 33.7222 18C32.2675 18.0002 31.0557 19.1514 30.9935 20.6208L30.5962 30.0119C30.5329 31.5078 31.6836 32.7767 33.1786 32.8597L41.0993 33.2982C41.0993 35.0625 41.0993 48.8833 41.0993 51.1064C38.6493 54.4033 38.1762 55.0399 35.7894 58.2511C34.5712 59.8906 34.982 62.2173 36.6836 63.3418L52.0547 73.4979C53.6957 74.582 55.9022 74.1289 56.9848 72.4909C58.0679 70.8516 57.6171 68.6442 55.9778 67.561L43.7439 59.4777C45.6037 56.9751 44.4616 58.5119 48.0863 53.6346H50.431L52.6856 59.5555L51.3628 60.9588L57.3886 64.9403L59.393 62.8138C60.3283 61.8215 60.6143 60.3817 60.1288 59.1073L56.8038 50.375C56.8038 48.2705 56.8038 35.1642 56.8038 33.3021L64.7979 32.8594C66.2929 32.7765 67.4437 31.5075 67.3803 30.0116L66.983 20.6204Z" fill="white" stroke="black" stroke-width="2"/>
<path d="M78 20.75H70.008L71.058 24.25H73H74.5C75.4665 24.25 76.25 25.0335 76.25 26V28V30C76.25 30.1381 76.3619 30.25 76.5 30.25H80C80.1381 30.25 80.25 30.1381 80.25 30V26V23C80.25 21.7574 79.2426 20.75 78 20.75Z" fill="white" fill-opacity="0.5" stroke="black" stroke-width="1.5"/>
<path d="M20 20.75H27.992L26.942 24.25H25H23.5C22.5335 24.25 21.75 25.0335 21.75 26V28V30C21.75 30.1381 21.6381 30.25 21.5 30.25H18C17.8619 30.25 17.75 30.1381 17.75 30V26V23C17.75 21.7574 18.7574 20.75 20 20.75Z" fill="white" fill-opacity="0.5" stroke="black" stroke-width="1.5"/>
<circle cx="49" cy="18" r="7" fill="white" stroke="black" stroke-width="2"/>
</svg>
