<svg width="100" height="100" viewBox="0 0 100 100" fill="none" xmlns="http://www.w3.org/2000/svg">
<mask id="path-1-outside-1_6130_4082" maskUnits="userSpaceOnUse" x="9" y="21" width="82" height="58" fill="black">
<rect fill="white" x="9" y="21" width="82" height="58"/>
<path d="M87.0281 24.9059C83.1532 21.0314 76.8483 21.0314 72.9738 24.9059C72.2273 25.6524 71.612 26.5016 71.1393 27.433L52.0466 31.2909C50.7657 31.5498 49.6625 32.2917 48.9398 33.3804C48.2172 34.469 47.9619 35.774 48.2208 37.0549C48.4479 38.1777 49.0652 39.1893 49.9596 39.9046L58.6362 47.2033L46.8382 59.0015L37.6088 49.7723C36.3782 48.5416 34.7418 47.8641 33.0016 47.8641C31.942 47.8641 30.8892 48.1245 29.9591 48.6162C29.3875 48.916 28.8608 49.3049 28.3936 49.7721L11.9054 66.2611C9.36485 68.8017 9.36485 72.9356 11.9054 75.4763C13.1364 76.7071 14.7727 77.3848 16.5131 77.3848C18.2534 77.3848 19.8897 76.707 21.1204 75.4763L33.0013 63.5956L44.882 75.476C45.3992 75.9933 45.9887 76.4115 46.6269 76.7242C48.134 77.5815 49.7972 78 51.4503 78C53.9843 78 56.4941 77.0187 58.3768 75.1358L76.8871 56.6247C80.7016 52.8102 80.702 46.6034 76.8877 42.7888C74.0521 39.9537 69.7782 39.147 66.1201 40.7132L63.9308 38.8716L71.6481 37.3123C72.0313 37.907 72.4734 38.4614 72.973 38.961C74.9104 40.8982 77.4553 41.8668 80.0003 41.8668C82.5453 41.8668 85.0905 40.8982 87.0281 38.9608C90.9029 35.0858 90.9029 28.7809 87.0281 24.9059ZM33.4946 62.1154C33.2224 61.843 32.7801 61.843 32.5079 62.1154L20.1337 74.4895C19.1664 75.4566 17.8805 75.9894 16.513 75.9894C15.1454 75.9894 13.8594 75.4566 12.892 74.4895C12.5866 74.1839 12.3282 73.8489 12.1162 73.4938C12.1192 73.491 12.1226 73.489 12.1256 73.4862L26.6072 59.0455C26.8801 58.7734 26.8807 58.3317 26.6087 58.0588C26.3363 57.7859 25.8945 57.7854 25.6218 58.0575L11.5431 72.0965C11.1304 70.4134 11.5799 68.5602 12.8921 67.2479L29.3803 50.759C29.7477 50.3914 30.1606 50.0864 30.6093 49.8511C31.3412 49.4641 32.1684 49.2597 33.0016 49.2597C34.369 49.2597 35.6548 49.7923 36.6221 50.7593L53.1104 67.2474C54.0777 68.2148 54.6103 69.5009 54.6103 70.8686C54.6103 72.2364 54.0777 73.5223 53.1104 74.4896C52.1431 75.4568 50.8573 75.9895 49.4897 75.9894C48.7093 75.9894 47.9559 75.8153 47.2727 75.4867C47.2701 75.4852 47.2675 75.4839 47.2649 75.4824C47.2626 75.4811 47.2603 75.4806 47.258 75.4793C46.7494 75.2327 46.28 74.9007 45.8686 74.4893L33.4946 62.1154ZM75.9012 43.7752C79.1714 47.0457 79.171 52.3671 75.9005 55.6376L57.3903 74.1488C56.1048 75.4343 54.4787 76.2281 52.7727 76.4988C53.2501 76.2192 53.6955 75.8777 54.0971 75.4762C55.3279 74.2453 56.0058 72.609 56.0058 70.8685C56.0058 69.1279 55.3281 67.4914 54.0971 66.2606L47.8247 59.9883L59.7079 48.1051L65.4307 52.9192C66.3112 53.6599 67.4288 54.0679 68.5779 54.0679C70.0264 54.0679 71.3918 53.4327 72.3239 52.3249C74.0603 50.2602 73.7937 47.168 71.7295 45.4315L67.3427 41.7414C70.3181 40.7603 73.6418 41.5166 75.9012 43.7752ZM61.9254 39.0079L65.5472 42.0545L65.5476 42.055L70.8315 46.4997C72.3068 47.7408 72.4974 49.9511 71.2562 51.4267C70.5898 52.2185 69.6138 52.6726 68.5781 52.6726C67.7572 52.6726 66.9587 52.381 66.3294 51.8516L50.8514 38.8313C50.8466 38.8273 50.8417 38.8234 50.8368 38.8194C50.1947 38.308 49.7516 37.5832 49.5889 36.7786C49.4037 35.863 49.5861 34.9303 50.1026 34.1523C50.6189 33.3743 51.4075 32.844 52.3231 32.659L76.0324 27.8681C76.2625 27.8216 76.4971 27.798 76.7293 27.798C78.3845 27.798 79.8243 28.9775 80.1528 30.6024C80.5347 32.4923 79.3081 34.3404 77.4185 34.7223L62.2364 37.7901C61.9737 37.8431 61.7648 38.0419 61.6985 38.3015C61.6324 38.5609 61.7205 38.8355 61.9254 39.0079ZM86.0414 37.9738C82.7101 41.3042 77.2904 41.3045 73.9598 37.9739C73.6607 37.6748 73.387 37.3516 73.1354 37.0114L77.6948 36.0902C80.3385 35.556 82.0549 32.9703 81.5207 30.3259C81.0609 28.0524 79.0458 26.4025 76.7293 26.4025C76.4044 26.4025 76.077 26.4353 75.7561 26.5002L72.9828 27.0605C73.2716 26.6456 73.598 26.2552 73.9603 25.8929C77.2913 22.5623 82.7108 22.5625 86.0414 25.8929C89.372 29.2235 89.372 34.643 86.0414 37.9738Z"/>
</mask>
<path d="M87.0281 24.9059C83.1532 21.0314 76.8483 21.0314 72.9738 24.9059C72.2273 25.6524 71.612 26.5016 71.1393 27.433L52.0466 31.2909C50.7657 31.5498 49.6625 32.2917 48.9398 33.3804C48.2172 34.469 47.9619 35.774 48.2208 37.0549C48.4479 38.1777 49.0652 39.1893 49.9596 39.9046L58.6362 47.2033L46.8382 59.0015L37.6088 49.7723C36.3782 48.5416 34.7418 47.8641 33.0016 47.8641C31.942 47.8641 30.8892 48.1245 29.9591 48.6162C29.3875 48.916 28.8608 49.3049 28.3936 49.7721L11.9054 66.2611C9.36485 68.8017 9.36485 72.9356 11.9054 75.4763C13.1364 76.7071 14.7727 77.3848 16.5131 77.3848C18.2534 77.3848 19.8897 76.707 21.1204 75.4763L33.0013 63.5956L44.882 75.476C45.3992 75.9933 45.9887 76.4115 46.6269 76.7242C48.134 77.5815 49.7972 78 51.4503 78C53.9843 78 56.4941 77.0187 58.3768 75.1358L76.8871 56.6247C80.7016 52.8102 80.702 46.6034 76.8877 42.7888C74.0521 39.9537 69.7782 39.147 66.1201 40.7132L63.9308 38.8716L71.6481 37.3123C72.0313 37.907 72.4734 38.4614 72.973 38.961C74.9104 40.8982 77.4553 41.8668 80.0003 41.8668C82.5453 41.8668 85.0905 40.8982 87.0281 38.9608C90.9029 35.0858 90.9029 28.7809 87.0281 24.9059ZM33.4946 62.1154C33.2224 61.843 32.7801 61.843 32.5079 62.1154L20.1337 74.4895C19.1664 75.4566 17.8805 75.9894 16.513 75.9894C15.1454 75.9894 13.8594 75.4566 12.892 74.4895C12.5866 74.1839 12.3282 73.8489 12.1162 73.4938C12.1192 73.491 12.1226 73.489 12.1256 73.4862L26.6072 59.0455C26.8801 58.7734 26.8807 58.3317 26.6087 58.0588C26.3363 57.7859 25.8945 57.7854 25.6218 58.0575L11.5431 72.0965C11.1304 70.4134 11.5799 68.5602 12.8921 67.2479L29.3803 50.759C29.7477 50.3914 30.1606 50.0864 30.6093 49.8511C31.3412 49.4641 32.1684 49.2597 33.0016 49.2597C34.369 49.2597 35.6548 49.7923 36.6221 50.7593L53.1104 67.2474C54.0777 68.2148 54.6103 69.5009 54.6103 70.8686C54.6103 72.2364 54.0777 73.5223 53.1104 74.4896C52.1431 75.4568 50.8573 75.9895 49.4897 75.9894C48.7093 75.9894 47.9559 75.8153 47.2727 75.4867C47.2701 75.4852 47.2675 75.4839 47.2649 75.4824C47.2626 75.4811 47.2603 75.4806 47.258 75.4793C46.7494 75.2327 46.28 74.9007 45.8686 74.4893L33.4946 62.1154ZM75.9012 43.7752C79.1714 47.0457 79.171 52.3671 75.9005 55.6376L57.3903 74.1488C56.1048 75.4343 54.4787 76.2281 52.7727 76.4988C53.2501 76.2192 53.6955 75.8777 54.0971 75.4762C55.3279 74.2453 56.0058 72.609 56.0058 70.8685C56.0058 69.1279 55.3281 67.4914 54.0971 66.2606L47.8247 59.9883L59.7079 48.1051L65.4307 52.9192C66.3112 53.6599 67.4288 54.0679 68.5779 54.0679C70.0264 54.0679 71.3918 53.4327 72.3239 52.3249C74.0603 50.2602 73.7937 47.168 71.7295 45.4315L67.3427 41.7414C70.3181 40.7603 73.6418 41.5166 75.9012 43.7752ZM61.9254 39.0079L65.5472 42.0545L65.5476 42.055L70.8315 46.4997C72.3068 47.7408 72.4974 49.9511 71.2562 51.4267C70.5898 52.2185 69.6138 52.6726 68.5781 52.6726C67.7572 52.6726 66.9587 52.381 66.3294 51.8516L50.8514 38.8313C50.8466 38.8273 50.8417 38.8234 50.8368 38.8194C50.1947 38.308 49.7516 37.5832 49.5889 36.7786C49.4037 35.863 49.5861 34.9303 50.1026 34.1523C50.6189 33.3743 51.4075 32.844 52.3231 32.659L76.0324 27.8681C76.2625 27.8216 76.4971 27.798 76.7293 27.798C78.3845 27.798 79.8243 28.9775 80.1528 30.6024C80.5347 32.4923 79.3081 34.3404 77.4185 34.7223L62.2364 37.7901C61.9737 37.8431 61.7648 38.0419 61.6985 38.3015C61.6324 38.5609 61.7205 38.8355 61.9254 39.0079ZM86.0414 37.9738C82.7101 41.3042 77.2904 41.3045 73.9598 37.9739C73.6607 37.6748 73.387 37.3516 73.1354 37.0114L77.6948 36.0902C80.3385 35.556 82.0549 32.9703 81.5207 30.3259C81.0609 28.0524 79.0458 26.4025 76.7293 26.4025C76.4044 26.4025 76.077 26.4353 75.7561 26.5002L72.9828 27.0605C73.2716 26.6456 73.598 26.2552 73.9603 25.8929C77.2913 22.5623 82.7108 22.5625 86.0414 25.8929C89.372 29.2235 89.372 34.643 86.0414 37.9738Z" fill="black"/>
<path d="M87.0281 24.9059L87.4523 24.4816L87.4523 24.4816L87.0281 24.9059ZM71.1393 27.433L71.2582 28.0211L71.5429 27.9636L71.6744 27.7045L71.1393 27.433ZM52.0466 31.2909L51.9277 30.7028L51.9277 30.7028L52.0466 31.2909ZM48.9398 33.3804L48.4399 33.0485L48.4398 33.0486L48.9398 33.3804ZM48.2208 37.0549L47.6327 37.1738L47.6327 37.1738L48.2208 37.0549ZM49.9596 39.9046L50.3458 39.4455L50.3402 39.4407L50.3343 39.436L49.9596 39.9046ZM58.6362 47.2033L59.0605 47.6276L59.5229 47.1651L59.0224 46.7441L58.6362 47.2033ZM46.8382 59.0015L46.4139 59.4258L46.8382 59.85L47.2624 59.4257L46.8382 59.0015ZM37.6088 49.7723L37.1845 50.1966L37.1846 50.1966L37.6088 49.7723ZM29.9591 48.6162L30.2378 49.1475L30.2396 49.1466L29.9591 48.6162ZM28.3936 49.7721L27.9693 49.3479L27.9693 49.3479L28.3936 49.7721ZM11.9054 66.2611L12.3297 66.6853L12.3297 66.6853L11.9054 66.2611ZM11.9054 75.4763L11.4812 75.9006L11.4812 75.9006L11.9054 75.4763ZM21.1204 75.4763L20.6961 75.0521L20.6961 75.0521L21.1204 75.4763ZM33.0013 63.5956L33.4255 63.1713L33.0013 62.747L32.577 63.1713L33.0013 63.5956ZM44.882 75.476L45.3064 75.0518L45.3063 75.0517L44.882 75.476ZM46.6269 76.7242L46.9235 76.2027L46.9075 76.1936L46.8909 76.1854L46.6269 76.7242ZM58.3768 75.1358L57.9525 74.7116L57.9525 74.7116L58.3768 75.1358ZM76.8871 56.6247L76.4628 56.2005L76.4628 56.2005L76.8871 56.6247ZM76.8877 42.7888L77.312 42.3646L77.3119 42.3645L76.8877 42.7888ZM66.1201 40.7132L65.7338 41.1723L66.0166 41.4102L66.3562 41.2648L66.1201 40.7132ZM63.9308 38.8716L63.812 38.2835L62.5925 38.5299L63.5446 39.3308L63.9308 38.8716ZM71.6481 37.3123L72.1525 36.9873L71.9307 36.6431L71.5293 36.7242L71.6481 37.3123ZM72.973 38.961L72.5487 39.3852L72.5487 39.3852L72.973 38.961ZM87.0281 38.9608L87.4523 39.3851L87.4523 39.385L87.0281 38.9608ZM33.4946 62.1154L33.0702 62.5395L33.0704 62.5396L33.4946 62.1154ZM32.5079 62.1154L32.9322 62.5396L32.9323 62.5395L32.5079 62.1154ZM20.1337 74.4895L20.5579 74.9138L20.5579 74.9137L20.1337 74.4895ZM12.892 74.4895L12.4676 74.9136L12.4678 74.9138L12.892 74.4895ZM12.1162 73.4938L11.7043 73.0575L11.3544 73.388L11.601 73.8013L12.1162 73.4938ZM12.1256 73.4862L12.5376 73.9224L12.5435 73.9168L12.5493 73.9111L12.1256 73.4862ZM26.6072 59.0455L26.1836 58.6206L26.1835 58.6206L26.6072 59.0455ZM26.6087 58.0588L27.0336 57.6352L27.0333 57.6349L26.6087 58.0588ZM25.6218 58.0575L26.0455 58.4823L26.0456 58.4823L25.6218 58.0575ZM11.5431 72.0965L10.9604 72.2394L11.2137 73.2723L11.9668 72.5213L11.5431 72.0965ZM12.8921 67.2479L13.3164 67.6722L13.3164 67.6722L12.8921 67.2479ZM29.3803 50.759L29.8045 51.1832L29.8046 51.1831L29.3803 50.759ZM30.6093 49.8511L30.8879 50.3825L30.8897 50.3815L30.6093 49.8511ZM36.6221 50.7593L37.0464 50.335L37.0463 50.335L36.6221 50.7593ZM53.1104 67.2474L53.5347 66.8232L53.5347 66.8232L53.1104 67.2474ZM53.1104 74.4896L53.5347 74.9139L53.5347 74.9139L53.1104 74.4896ZM49.4897 75.9894L49.4898 75.3894H49.4897V75.9894ZM47.2727 75.4867L46.9786 76.0096L46.9953 76.019L47.0126 76.0273L47.2727 75.4867ZM47.2649 75.4824L46.9672 76.0034L46.9707 76.0053L47.2649 75.4824ZM47.258 75.4793L47.5556 74.9583L47.538 74.9482L47.5197 74.9394L47.258 75.4793ZM75.9012 43.7752L76.3255 43.3509L76.3254 43.3508L75.9012 43.7752ZM75.9005 55.6376L75.4763 55.2133L75.4763 55.2133L75.9005 55.6376ZM57.3903 74.1488L57.8145 74.5731L57.8146 74.5731L57.3903 74.1488ZM52.7727 76.4988L52.4695 75.981L52.8668 77.0914L52.7727 76.4988ZM54.0971 66.2606L53.6729 66.6849L53.6729 66.6849L54.0971 66.2606ZM47.8247 59.9883L47.4004 59.5641L46.9762 59.9883L47.4004 60.4126L47.8247 59.9883ZM59.7079 48.1051L60.0942 47.646L59.6729 47.2916L59.2837 47.6808L59.7079 48.1051ZM65.4307 52.9192L65.817 52.46L65.8169 52.46L65.4307 52.9192ZM72.3239 52.3249L72.783 52.7111L72.783 52.7111L72.3239 52.3249ZM71.7295 45.4315L72.1158 44.9724L72.1158 44.9724L71.7295 45.4315ZM67.3427 41.7414L67.1548 41.1716L66.1335 41.5083L66.9564 42.2006L67.3427 41.7414ZM61.9254 39.0079L61.5391 39.467L61.5392 39.4671L61.9254 39.0079ZM65.5472 42.0545L66.0457 41.7205L65.9984 41.65L65.9335 41.5953L65.5472 42.0545ZM65.5476 42.055L65.0491 42.389L65.0964 42.4595L65.1613 42.5141L65.5476 42.055ZM70.8315 46.4997L71.2178 46.0405L71.2177 46.0405L70.8315 46.4997ZM71.2562 51.4267L71.7153 51.813L71.7154 51.8129L71.2562 51.4267ZM66.3294 51.8516L66.7157 51.3924L66.7156 51.3924L66.3294 51.8516ZM50.8514 38.8313L51.2377 38.3721L51.2339 38.369L50.8514 38.8313ZM50.8368 38.8194L51.2116 38.3509L51.2106 38.3501L50.8368 38.8194ZM49.5889 36.7786L50.177 36.6597L50.177 36.6596L49.5889 36.7786ZM50.1026 34.1523L50.6025 34.4842L50.6025 34.4841L50.1026 34.1523ZM52.3231 32.659L52.2042 32.0709L52.2042 32.0709L52.3231 32.659ZM76.0324 27.8681L75.9137 27.2799L75.9135 27.2799L76.0324 27.8681ZM80.1528 30.6024L80.7409 30.4835L80.7409 30.4835L80.1528 30.6024ZM77.4185 34.7223L77.5373 35.3104L77.5373 35.3104L77.4185 34.7223ZM62.2364 37.7901L62.3551 38.3782L62.3552 38.3782L62.2364 37.7901ZM61.6985 38.3015L61.1172 38.1529L61.1171 38.1532L61.6985 38.3015ZM86.0414 37.9738L86.4656 38.3981L86.4657 38.398L86.0414 37.9738ZM73.1354 37.0114L73.0165 36.4233L72.0921 36.6101L72.653 37.3683L73.1354 37.0114ZM77.6948 36.0902L77.8136 36.6783L77.8136 36.6783L77.6948 36.0902ZM81.5207 30.3259L82.1088 30.2071L82.1088 30.207L81.5207 30.3259ZM75.7561 26.5002L75.6372 25.9121L75.6372 25.9121L75.7561 26.5002ZM72.9828 27.0605L72.4904 26.7177L71.6363 27.9447L73.1017 27.6486L72.9828 27.0605ZM73.9603 25.8929L73.5361 25.4686L73.5361 25.4686L73.9603 25.8929ZM86.0414 25.8929L86.4657 25.4686L86.4656 25.4686L86.0414 25.8929ZM87.4523 24.4816C83.3432 20.3728 76.6584 20.3728 72.5495 24.4816L73.3981 25.3301C77.0383 21.69 82.9633 21.6899 86.6038 25.3302L87.4523 24.4816ZM72.5495 24.4816C71.7584 25.2728 71.1057 26.1736 70.6043 27.1615L71.6744 27.7045C72.1183 26.8297 72.6962 26.032 73.3981 25.3301L72.5495 24.4816ZM71.0205 26.8449L51.9277 30.7028L52.1654 31.879L71.2582 28.0211L71.0205 26.8449ZM51.9277 30.7028C50.4909 30.9932 49.2506 31.8273 48.4399 33.0485L49.4396 33.7122C50.0743 32.7562 51.0405 32.1064 52.1655 31.879L51.9277 30.7028ZM48.4398 33.0486C47.6293 34.2698 47.3423 35.737 47.6327 37.1738L48.8089 36.936C48.5816 35.8111 48.8052 34.6682 49.4397 33.7122L48.4398 33.0486ZM47.6327 37.1738C47.8877 38.4346 48.5805 39.57 49.5849 40.3732L50.3343 39.436C49.5499 38.8087 49.0081 37.9208 48.8089 36.936L47.6327 37.1738ZM49.5734 40.3638L58.25 47.6625L59.0224 46.7441L50.3458 39.4455L49.5734 40.3638ZM58.2119 46.779L46.4139 58.5772L47.2624 59.4257L59.0605 47.6276L58.2119 46.779ZM47.2624 58.5772L38.0331 49.348L37.1846 50.1966L46.4139 59.4258L47.2624 58.5772ZM38.0331 49.348C36.6899 48.0048 34.9009 47.2641 33.0016 47.2641V48.4641C34.5828 48.4641 36.0665 49.0785 37.1845 50.1966L38.0331 49.348ZM33.0016 47.2641C31.8449 47.2641 30.6957 47.5481 29.6787 48.0857L30.2396 49.1466C31.0826 48.7009 32.0391 48.4641 33.0016 48.4641V47.2641ZM29.6805 48.0848C29.0539 48.4134 28.4783 48.8388 27.9693 49.3479L28.8178 50.1964C29.2433 49.7709 29.7211 49.4185 30.2378 49.1475L29.6805 48.0848ZM27.9693 49.3479L11.4812 65.8368L12.3297 66.6853L28.8179 50.1964L27.9693 49.3479ZM11.4812 65.8368C8.70627 68.6117 8.70629 73.1255 11.4812 75.9006L12.3297 75.0521C10.0234 72.7456 10.0234 68.9916 12.3297 66.6853L11.4812 65.8368ZM11.4812 75.9006C12.8247 77.2439 14.6136 77.9848 16.5131 77.9848V76.7848C14.9319 76.7848 13.4481 76.1703 12.3297 75.052L11.4812 75.9006ZM16.5131 77.9848C18.4125 77.9848 20.2015 77.2437 21.5446 75.9006L20.6961 75.0521C19.5779 76.1702 18.0942 76.7848 16.5131 76.7848V77.9848ZM21.5446 75.9006L33.4255 64.0198L32.577 63.1713L20.6961 75.0521L21.5446 75.9006ZM32.577 64.0198L44.4578 75.9003L45.3063 75.0517L33.4255 63.1713L32.577 64.0198ZM44.4577 75.9002C45.022 76.4647 45.6658 76.9214 46.3628 77.263L46.8909 76.1854C46.3117 75.9015 45.7764 75.522 45.3064 75.0518L44.4577 75.9002ZM46.3302 77.2457C47.93 78.1557 49.6958 78.6 51.4503 78.6V77.4C49.8987 77.4 48.338 77.0073 46.9235 76.2027L46.3302 77.2457ZM51.4503 78.6C54.1385 78.6 56.8023 77.559 58.8011 75.5601L57.9525 74.7116C56.1858 76.4785 53.8302 77.4 51.4503 77.4V78.6ZM58.8011 75.5601L77.3113 57.049L76.4628 56.2005L57.9525 74.7116L58.8011 75.5601ZM77.3113 57.049C81.3602 53.0001 81.3606 46.4135 77.312 42.3646L76.4634 43.2131C80.0434 46.7933 80.0431 52.6202 76.4628 56.2005L77.3113 57.049ZM77.3119 42.3645C74.3022 39.3553 69.7665 38.4993 65.8839 40.1616L66.3562 41.2648C69.7898 39.7947 73.802 40.5521 76.4635 43.2131L77.3119 42.3645ZM66.5063 40.254L64.317 38.4125L63.5446 39.3308L65.7338 41.1723L66.5063 40.254ZM64.0496 39.4598L71.7669 37.9004L71.5293 36.7242L63.812 38.2835L64.0496 39.4598ZM71.1438 37.6373C71.5487 38.2658 72.0174 38.8539 72.5487 39.3852L73.3973 38.5367C72.9295 38.0689 72.5138 37.5481 72.1525 36.9873L71.1438 37.6373ZM72.5487 39.3852C74.6036 41.4399 77.3032 42.4668 80.0003 42.4668V41.2668C77.6073 41.2668 75.2172 40.3565 73.3972 38.5367L72.5487 39.3852ZM80.0003 42.4668C82.6974 42.4668 85.3973 41.4399 87.4523 39.3851L86.6038 38.5365C84.7837 40.3565 82.3933 41.2668 80.0003 41.2668V42.4668ZM87.4523 39.385C91.5615 35.2757 91.5615 28.5909 87.4523 24.4816L86.6038 25.3301C90.2443 28.9708 90.2443 34.8959 86.6038 38.5365L87.4523 39.385ZM33.919 61.6912C33.4125 61.1844 32.5901 61.1844 32.0835 61.6912L32.9323 62.5395C32.9702 62.5016 33.0324 62.5016 33.0702 62.5395L33.919 61.6912ZM32.0837 61.6911L19.7094 74.0652L20.5579 74.9137L32.9322 62.5396L32.0837 61.6911ZM19.7094 74.0652C18.8546 74.9199 17.7214 75.3894 16.513 75.3894V76.5894C18.0397 76.5894 19.4781 75.9934 20.5579 74.9138L19.7094 74.0652ZM16.513 75.3894C15.3046 75.3894 14.1712 74.9199 13.3162 74.0651L12.4678 74.9138C13.5477 75.9934 14.9862 76.5894 16.513 76.5894V75.3894ZM13.3163 74.0653C13.0465 73.7954 12.8185 73.4996 12.6315 73.1863L11.601 73.8013C11.8379 74.1981 12.1267 74.5725 12.4676 74.9136L13.3163 74.0653ZM12.5282 73.93C12.5124 73.9449 12.4989 73.9559 12.4907 73.9624C12.4865 73.9657 12.4831 73.9683 12.4813 73.9697C12.4796 73.971 12.4782 73.972 12.4789 73.9715C12.479 73.9714 12.4812 73.9698 12.4837 73.9679C12.4863 73.9659 12.4905 73.9627 12.4954 73.9588C12.5053 73.9511 12.5203 73.9387 12.5376 73.9224L11.7136 73.05C11.7294 73.0351 11.7429 73.024 11.7512 73.0175C11.7553 73.0142 11.7587 73.0117 11.7606 73.0102C11.7623 73.009 11.7637 73.0079 11.763 73.0084C11.7629 73.0085 11.7607 73.0102 11.7582 73.012C11.7555 73.0141 11.7514 73.0172 11.7464 73.0211C11.7366 73.0289 11.7215 73.0413 11.7043 73.0575L12.5282 73.93ZM12.5493 73.9111L27.0309 59.4703L26.1835 58.6206L11.7019 73.0613L12.5493 73.9111ZM27.0308 59.4704C27.5384 58.9644 27.5396 58.1427 27.0336 57.6352L26.1838 58.4824C26.2219 58.5206 26.2218 58.5825 26.1836 58.6206L27.0308 59.4704ZM27.0333 57.6349C26.5271 57.1278 25.7055 57.1265 25.1981 57.6327L26.0456 58.4823C26.0836 58.4444 26.1456 58.4441 26.184 58.4827L27.0333 57.6349ZM25.1982 57.6326L11.1194 71.6716L11.9668 72.5213L26.0455 58.4823L25.1982 57.6326ZM12.1258 71.9536C11.7608 70.465 12.1591 68.8295 13.3164 67.6722L12.4679 66.8237C11.0007 68.2909 10.4999 70.3618 10.9604 72.2394L12.1258 71.9536ZM13.3164 67.6722L29.8045 51.1832L28.956 50.3347L12.4679 66.8237L13.3164 67.6722ZM29.8046 51.1831C30.1303 50.8573 30.4943 50.5888 30.8879 50.3825L30.3306 49.3197C29.8268 49.5839 29.3651 49.9255 28.9559 50.3348L29.8046 51.1831ZM30.8897 50.3815C31.5345 50.0406 32.2655 49.8597 33.0016 49.8597V48.6597C32.0714 48.6597 31.1478 48.8877 30.3288 49.3207L30.8897 50.3815ZM33.0016 49.8597C34.2099 49.8597 35.3431 50.3291 36.1979 51.1836L37.0463 50.335C35.9665 49.2555 34.5282 48.6597 33.0016 48.6597V49.8597ZM36.1979 51.1836L52.6862 67.6717L53.5347 66.8232L37.0464 50.335L36.1979 51.1836ZM52.6862 67.6717C53.5409 68.5265 54.0103 69.66 54.0103 70.8686H55.2103C55.2103 69.3418 54.6145 67.903 53.5347 66.8232L52.6862 67.6717ZM54.0103 70.8686C54.0103 72.0772 53.5409 73.2106 52.6862 74.0654L53.5347 74.9139C54.6145 73.8341 55.2103 72.3955 55.2103 70.8686H54.0103ZM52.6862 74.0653C51.8313 74.92 50.6981 75.3895 49.4898 75.3894L49.4897 76.5894C51.0165 76.5895 52.4549 75.9935 53.5347 74.9139L52.6862 74.0653ZM49.4897 75.3894C48.7991 75.3894 48.1347 75.2355 47.5329 74.946L47.0126 76.0273C47.7771 76.3951 48.6194 76.5894 49.4897 76.5894V75.3894ZM47.5669 74.9637C47.5622 74.9611 47.5582 74.9589 47.5555 74.9574C47.5529 74.9561 47.5507 74.9549 47.5503 74.9547C47.5494 74.9542 47.5503 74.9547 47.5515 74.9553C47.5529 74.9561 47.5556 74.9575 47.559 74.9594L46.9707 76.0053C46.9754 76.008 46.9794 76.0102 46.9821 76.0116C46.9847 76.013 46.9869 76.0142 46.9873 76.0144C46.9882 76.0149 46.9873 76.0144 46.9861 76.0137C46.9847 76.013 46.982 76.0115 46.9786 76.0096L47.5669 74.9637ZM47.5625 74.9614C47.5387 74.9478 47.518 74.9381 47.5038 74.9319C47.4968 74.9289 47.491 74.9265 47.4873 74.925C47.4854 74.9242 47.4838 74.9236 47.4828 74.9232C47.4819 74.9228 47.4811 74.9225 47.4811 74.9225C47.4803 74.9222 47.4827 74.9231 47.4856 74.9243C47.4887 74.9256 47.4939 74.9277 47.5004 74.9305C47.5134 74.9362 47.5329 74.9453 47.5556 74.9583L46.9603 76.0002C46.9842 76.0139 47.0048 76.0235 47.019 76.0297C47.026 76.0328 47.0318 76.0352 47.0355 76.0367C47.0374 76.0375 47.039 76.0381 47.04 76.0385C47.0409 76.0388 47.0417 76.0392 47.0418 76.0392C47.0425 76.0395 47.0401 76.0385 47.0373 76.0374C47.0341 76.0361 47.0289 76.034 47.0224 76.0311C47.0094 76.0254 46.9899 76.0163 46.9672 76.0033L47.5625 74.9614ZM47.5197 74.9394C47.0712 74.7219 46.6568 74.429 46.2928 74.065L45.4443 74.9136C45.9032 75.3725 46.4275 75.7435 46.9962 76.0192L47.5197 74.9394ZM46.2928 74.065L33.9189 61.6911L33.0704 62.5396L45.4443 74.9136L46.2928 74.065ZM75.4769 44.1994C78.5128 47.2356 78.5125 52.1771 75.4763 55.2133L76.3248 56.0618C79.8296 52.557 79.83 46.8558 76.3255 43.3509L75.4769 44.1994ZM75.4763 55.2133L56.966 73.7246L57.8146 74.5731L76.3248 56.0618L75.4763 55.2133ZM56.966 73.7245C55.773 74.9176 54.2637 75.6547 52.6787 75.9062L52.8668 77.0914C54.6936 76.8015 56.4366 75.951 57.8145 74.5731L56.966 73.7245ZM53.0759 77.0165C53.5969 76.7115 54.0831 76.3387 54.5214 75.9004L53.6729 75.0519C53.308 75.4167 52.9034 75.727 52.4695 75.981L53.0759 77.0165ZM54.5214 75.9004C55.8647 74.5571 56.6058 72.7682 56.6058 70.8685H55.4058C55.4058 72.4499 54.7912 73.9336 53.6729 75.0519L54.5214 75.9004ZM56.6058 70.8685C56.6058 68.9688 55.8649 67.1797 54.5214 65.8363L53.6729 66.6849C54.7913 67.8031 55.4058 69.287 55.4058 70.8685H56.6058ZM54.5214 65.8363L48.2489 59.5641L47.4004 60.4126L53.6729 66.6849L54.5214 65.8363ZM48.249 60.4126L60.1322 48.5294L59.2837 47.6808L47.4004 59.5641L48.249 60.4126ZM59.3217 48.5643L65.0444 53.3783L65.8169 52.46L60.0942 47.646L59.3217 48.5643ZM65.0444 53.3783C66.0329 54.2099 67.2873 54.6679 68.5779 54.6679V53.4679C67.5704 53.4679 66.5894 53.11 65.817 52.46L65.0444 53.3783ZM68.5779 54.6679C70.2033 54.6679 71.7368 53.9546 72.783 52.7111L71.8647 51.9386C71.0468 52.9108 69.8495 53.4679 68.5779 53.4679V54.6679ZM72.783 52.7111C74.7327 50.3929 74.4336 46.9222 72.1158 44.9724L71.3433 45.8907C73.1538 47.4138 73.3879 50.1275 71.8647 51.9387L72.783 52.7111ZM72.1158 44.9724L67.7289 41.2822L66.9564 42.2006L71.3433 45.8907L72.1158 44.9724ZM67.5305 42.3112C70.2933 41.4003 73.3797 42.1029 75.477 44.1995L76.3254 43.3508C73.904 40.9304 70.3429 40.1203 67.1548 41.1716L67.5305 42.3112ZM61.5392 39.4671L65.161 42.5136L65.9335 41.5953L62.3116 38.5488L61.5392 39.4671ZM65.0488 42.3885L65.0491 42.389L66.046 41.721L66.0457 41.7205L65.0488 42.3885ZM65.1613 42.5141L70.4453 46.9588L71.2177 46.0405L65.9338 41.5958L65.1613 42.5141ZM70.4452 46.9588C71.6669 47.9866 71.8249 49.8184 70.7971 51.0405L71.7154 51.8129C73.1698 50.0837 72.9466 47.495 71.2178 46.0405L70.4452 46.9588ZM70.7972 51.0403C70.2449 51.6966 69.4369 52.0726 68.5781 52.0726V53.2726C69.7907 53.2726 70.9348 52.7404 71.7153 51.813L70.7972 51.0403ZM68.5781 52.0726C67.8988 52.0726 67.237 51.8311 66.7157 51.3924L65.9431 52.3107C66.6803 52.9309 67.6156 53.2726 68.5781 53.2726V52.0726ZM66.7156 51.3924L51.2376 38.3721L50.4652 39.2904L65.9431 52.3107L66.7156 51.3924ZM51.2339 38.369C51.2247 38.3614 51.2158 38.3543 51.2116 38.3509L50.462 39.288C50.4646 39.29 50.4661 39.2913 50.4674 39.2923C50.4686 39.2933 50.469 39.2936 50.4689 39.2935L51.2339 38.369ZM51.2106 38.3501C50.679 37.9267 50.3117 37.326 50.177 36.6597L49.0008 36.8975C49.1915 37.8404 49.7104 38.6894 50.463 39.2888L51.2106 38.3501ZM50.177 36.6596C50.0233 35.9 50.1741 35.1295 50.6025 34.4842L49.6027 33.8205C48.9982 34.7312 48.7841 35.826 49.0008 36.8975L50.177 36.6596ZM50.6025 34.4841C51.0308 33.8387 51.6822 33.4006 52.4419 33.2471L52.2042 32.0709C51.1327 32.2874 50.2071 32.9098 49.6027 33.8205L50.6025 34.4841ZM52.4419 33.2471L76.1512 28.4562L75.9135 27.2799L52.2042 32.0709L52.4419 33.2471ZM76.1511 28.4562C76.3427 28.4175 76.5376 28.398 76.7293 28.398V27.198C76.4567 27.198 76.1823 27.2257 75.9137 27.2799L76.1511 28.4562ZM76.7293 28.398C78.0982 28.398 79.2926 29.3756 79.5647 30.7213L80.7409 30.4835C80.3559 28.5795 78.6707 27.198 76.7293 27.198V28.398ZM79.5647 30.7212C79.881 32.2865 78.8644 33.818 77.2996 34.1342L77.5373 35.3104C79.7519 34.8629 81.1884 32.6982 80.7409 30.4835L79.5647 30.7212ZM77.2997 34.1342L62.1175 37.202L62.3552 38.3782L77.5373 35.3104L77.2997 34.1342ZM62.1176 37.2019C61.6287 37.3006 61.2404 37.6706 61.1172 38.1529L62.2798 38.45C62.2893 38.4132 62.3186 38.3856 62.3551 38.3782L62.1176 37.2019ZM61.1171 38.1532C60.9941 38.6356 61.158 39.1463 61.5391 39.467L62.3117 38.5488C62.2831 38.5247 62.2706 38.4861 62.2799 38.4498L61.1171 38.1532ZM85.6172 37.5495C82.5202 40.6457 77.4803 40.6459 74.3841 37.5497L73.5356 38.3982C77.1005 41.9632 82.9001 41.9627 86.4656 38.3981L85.6172 37.5495ZM74.3841 37.5497C74.1084 37.2739 73.8538 36.9737 73.6177 36.6545L72.653 37.3683C72.9202 37.7294 73.2131 38.0757 73.5356 38.3982L74.3841 37.5497ZM73.2542 37.5995L77.8136 36.6783L77.576 35.5021L73.0165 36.4233L73.2542 37.5995ZM77.8136 36.6783C80.7822 36.0785 82.7086 33.1762 82.1088 30.2071L80.9326 30.4447C81.4012 32.7643 79.8948 35.0335 77.576 35.5021L77.8136 36.6783ZM82.1088 30.207C81.5924 27.6541 79.3318 25.8025 76.7293 25.8025V27.0025C78.7597 27.0025 80.5293 28.4507 80.9326 30.4449L82.1088 30.207ZM76.7293 25.8025C76.3642 25.8025 75.997 25.8394 75.6372 25.9121L75.8749 27.0883C76.157 27.0313 76.4446 27.0025 76.7293 27.0025V25.8025ZM75.6372 25.9121L72.864 26.4724L73.1017 27.6486L75.8749 27.0883L75.6372 25.9121ZM73.4753 27.4033C73.7438 27.0176 74.0473 26.6544 74.3846 26.3172L73.5361 25.4686C73.1487 25.856 72.7995 26.2737 72.4904 26.7177L73.4753 27.4033ZM74.3846 26.3172C77.4812 23.2209 82.5209 23.221 85.6171 26.3172L86.4656 25.4686C82.9007 21.9039 77.1013 21.9037 73.5361 25.4686L74.3846 26.3172ZM85.6171 26.3172C88.7134 29.4134 88.7134 34.4531 85.6171 37.5495L86.4657 38.398C90.0306 34.833 90.0306 29.0335 86.4657 25.4686L85.6171 26.3172Z" fill="black" mask="url(#path-1-outside-1_6130_4082)"/>
<path d="M60.4981 65.8493L70.9636 55.3838C70.9637 55.3838 70.9637 55.3838 70.9637 55.3837C71.3531 54.9942 71.9853 54.9942 72.3747 55.3837L60.4981 65.8493ZM60.4981 65.8493C60.1085 66.239 60.1084 66.8706 60.498 67.2603M60.4981 65.8493L72.3747 55.3838C72.7643 55.7735 72.7643 56.4052 72.3747 56.7949L61.9092 67.2603C61.9092 67.2604 61.9091 67.2604 61.9091 67.2604C61.7144 67.4553 61.4584 67.5527 61.2036 67.5527C60.9487 67.5527 60.6927 67.4553 60.498 67.2603M60.498 67.2603L60.7099 67.0487L60.4981 67.2604C60.4981 67.2604 60.498 67.2604 60.498 67.2603Z" fill="black" stroke="black" stroke-width="0.6"/>
</svg>
