<?xml version="1.0" encoding="iso-8859-1"?>
<!-- Uploaded to: SVG Repo, www.svgrepo.com, Generator: SVG Repo Mixer Tools -->
<!DOCTYPE svg PUBLIC "-//W3C//DTD SVG 1.1//EN" "http://www.w3.org/Graphics/SVG/1.1/DTD/svg11.dtd">
<svg fill="#000000" height="800px" width="800px" version="1.1" id="Capa_1" xmlns="http://www.w3.org/2000/svg" xmlns:xlink="http://www.w3.org/1999/xlink" 
	 viewBox="0 0 486.887 486.887" xml:space="preserve">
<g>
	<path d="M469.186,90.593c-23.602-23.6-62.006-23.6-85.606,0c-4.547,4.547-8.295,9.72-11.174,15.393L256.11,129.485
		c-7.802,1.577-14.522,6.096-18.924,12.727c-4.401,6.631-5.956,14.58-4.379,22.382c1.383,6.839,5.143,13.001,10.591,17.358
		l52.85,44.457l-71.863,71.864l-56.217-56.216c-7.496-7.496-17.463-11.623-28.063-11.623c-6.454,0-12.867,1.586-18.532,4.581
		c-3.482,1.826-6.69,4.195-9.536,7.041L11.606,342.492c-15.475,15.475-15.475,40.655,0,56.131
		c7.498,7.497,17.465,11.625,28.066,11.625c10.6,0,20.567-4.129,28.063-11.625l72.368-72.367l72.367,72.365
		c3.15,3.151,6.741,5.698,10.628,7.603c9.18,5.222,19.311,7.771,29.38,7.771c15.435,0,30.722-5.977,42.19-17.446l112.748-112.753
		c23.235-23.235,23.237-61.041,0.004-84.276c-17.272-17.269-43.305-22.183-65.587-12.643l-13.335-11.217l47.007-9.498
		c2.334,3.622,5.027,6.999,8.07,10.042c11.801,11.8,27.302,17.7,42.804,17.7c15.502,0,31.005-5.9,42.807-17.701
		C492.788,152.6,492.788,114.196,469.186,90.593z M143.108,317.24c-1.658-1.659-4.352-1.659-6.01,0l-75.373,75.372
		c-5.892,5.891-13.724,9.136-22.054,9.136c-8.33,0-16.163-3.245-22.056-9.136c-1.86-1.861-3.434-3.902-4.725-6.065
		c0.018-0.017,0.039-0.029,0.057-0.046l88.209-87.96c1.662-1.657,1.666-4.348,0.009-6.01c-1.659-1.662-4.35-1.665-6.011-0.008
		L9.399,378.036c-2.514-10.252,0.224-21.54,8.217-29.533l100.431-100.436c2.238-2.239,4.753-4.097,7.486-5.53
		c4.458-2.357,9.497-3.602,14.572-3.602c8.329,0,16.161,3.244,22.053,9.134L262.59,348.5c5.892,5.892,9.136,13.726,9.136,22.057
		c0,8.331-3.244,16.164-9.136,22.056c-5.892,5.891-13.724,9.136-22.054,9.135c-4.754,0-9.343-1.06-13.504-3.062
		c-0.016-0.009-0.032-0.017-0.048-0.026c-0.014-0.008-0.028-0.011-0.042-0.019c-3.098-1.502-5.957-3.524-8.463-6.03L143.108,317.24z
		 M401.411,205.528c19.919,19.921,19.917,52.334-0.004,72.255L288.659,390.537c-7.83,7.83-17.735,12.665-28.126,14.314
		c2.908-1.703,5.621-3.783,8.067-6.229c7.497-7.497,11.626-17.464,11.626-28.066c0-10.602-4.128-20.57-11.626-28.067l-38.206-38.205
		l72.382-72.382l34.858,29.323c5.363,4.512,12.171,6.997,19.17,6.997c8.823,0,17.14-3.869,22.817-10.617
		c10.577-12.576,8.953-31.411-3.62-41.988l-26.721-22.477C367.404,187.164,387.649,191.771,401.411,205.528z M316.283,176.49
		l22.061,18.557c0,0.001,0.001,0.002,0.002,0.003l32.185,27.073c8.986,7.56,10.147,21.023,2.587,30.011
		c-4.059,4.823-10.004,7.589-16.313,7.589c-5,0-9.864-1.776-13.697-5.001l-94.278-79.308c-0.029-0.024-0.059-0.048-0.089-0.072
		c-3.911-3.115-6.61-7.53-7.601-12.431c-1.128-5.577-0.017-11.258,3.129-15.997c3.145-4.739,7.948-7.969,13.525-9.096
		l144.416-29.182c1.402-0.283,2.831-0.427,4.245-0.427c10.082,0,18.852,7.185,20.853,17.082
		c2.326,11.512-5.145,22.769-16.655,25.095l-92.476,18.686c-1.6,0.323-2.872,1.534-3.276,3.115
		C314.498,173.767,315.035,175.44,316.283,176.49z M463.176,170.191c-20.291,20.286-53.303,20.288-73.59,0.001
		c-1.822-1.822-3.489-3.791-5.022-5.863l27.772-5.611c16.103-3.254,26.558-19.004,23.304-35.111
		c-2.801-13.848-15.075-23.898-29.185-23.898c-1.979,0-3.973,0.2-5.928,0.595l-16.892,3.413c1.759-2.527,3.747-4.905,5.954-7.112
		c20.289-20.287,53.3-20.286,73.587,0C483.463,116.892,483.463,149.903,463.176,170.191z"/>
	<path d="M372.637,277.526l-63.747,63.747c-1.66,1.66-1.66,4.351,0,6.011c0.829,0.83,1.917,1.245,3.005,1.245
		s2.176-0.415,3.005-1.245l63.747-63.747c1.66-1.66,1.66-4.351,0-6.011C376.989,275.867,374.295,275.867,372.637,277.526z"/>
</g>
</svg>