<svg width="80" height="80" viewBox="0 0 80 80" fill="none" xmlns="http://www.w3.org/2000/svg">
<g clip-path="url(#clip0_6140_4048)">
<path d="M7.61151 63.8206C4.35946 63.8206 1.72266 66.4574 1.72266 69.7098V69.9326C1.72266 73.1846 4.35946 75.8217 7.61151 75.8217H9.81994V77.055C9.81994 78.6811 11.1391 79.9993 12.7642 79.9993H20.1257C21.7511 79.9993 23.0702 78.6811 23.0702 77.055V75.8217H52.1467V76.8067C52.1467 78.4311 53.4667 79.751 55.0913 79.751H62.4524C64.077 79.751 65.3967 78.4311 65.3967 76.8067V75.8217H66.1331C69.3852 75.8217 72.022 73.1849 72.022 69.9326V69.7098C72.022 66.4577 69.3855 63.8206 66.1331 63.8206H62.8865L68.8271 31.6543H73.8607C76.3004 31.6543 78.2775 29.6769 78.2775 27.2377C78.2775 24.7977 76.3007 22.8209 73.8607 22.8209H58.0342C55.5944 22.8209 53.6173 24.7977 53.6173 27.2377C53.6173 29.6769 55.5941 31.6543 58.0342 31.6543H61.3394L55.399 63.8206L35.094 63.8189H7.61151V63.8206Z" fill="black"/>
<g clip-path="url(#clip1_6140_4048)">
<path d="M40.0576 19.7607C43.7221 19.7607 46.6929 16.7896 46.6929 13.1249C46.6929 9.46022 43.7219 6.48926 40.0576 6.48926C36.3922 6.48926 33.4209 9.46039 33.4209 13.1249C33.4207 16.7896 36.392 19.7607 40.0576 19.7607Z" fill="black"/>
<path d="M50.9726 17.8503C47.1624 23.1875 42.0602 23.8055 36.5699 20.5461C36.1962 20.3246 34.538 19.411 34.1708 19.1928C25.3385 13.9495 16.5166 16.0057 10.6003 24.2909C8.08618 27.8147 13.9009 31.1549 16.3868 27.6721C19.4436 23.3914 23.3305 22.1527 27.5815 23.5086C25.4049 27.2868 23.5019 31.0421 20.8166 36.3773C18.1307 41.7126 12.2004 45.9732 6.5023 42.6409C2.39076 40.2378 -1.31701 46.1444 2.78215 48.5401C10.5614 53.0866 19.6828 50.2948 24.3393 44.3848C24.5008 44.4711 24.6715 44.549 24.8588 44.6145C28.6627 45.9398 33.6492 49.4682 35.1686 50.7188C36.6875 51.9693 39.2973 58.3397 40.847 61.5406C42.7271 65.4245 48.7988 62.5957 46.9118 58.6953C45.155 55.0637 42.2063 47.8157 39.9063 45.9819C38.0613 44.5112 34.4794 41.774 31.4415 40.2211C33.4968 36.2401 35.6368 32.3019 37.8896 28.4318C45.0707 30.632 51.8964 28.0402 56.7576 21.2307C59.2737 17.7073 53.4604 14.3672 50.9726 17.8503Z" fill="black"/>
</g>
</g>
<defs>
<clipPath id="clip0_6140_4048">
<rect width="80" height="80" fill="white"/>
</clipPath>
<clipPath id="clip1_6140_4048">
<rect width="56" height="90" fill="white" transform="translate(1 -5)"/>
</clipPath>
</defs>
</svg>
