<svg width="80" height="80" viewBox="0 0 80 80" fill="none" xmlns="http://www.w3.org/2000/svg">
<path d="M7.61151 63.8206C4.35946 63.8206 1.72266 66.4574 1.72266 69.7098V69.9326C1.72266 73.1846 4.35946 75.8217 7.61151 75.8217H9.81994V77.055C9.81994 78.6811 11.1391 79.9993 12.7642 79.9993H20.1257C21.7511 79.9993 23.0702 78.6811 23.0702 77.055V75.8217H52.1467V76.8067C52.1467 78.4311 53.4667 79.751 55.0913 79.751H62.4524C64.077 79.751 65.3967 78.4311 65.3967 76.8067V75.8217H66.1331C69.3852 75.8217 72.022 73.1849 72.022 69.9326V69.7098C72.022 66.4577 69.3855 63.8206 66.1331 63.8206H62.8865L68.8271 31.6543H73.8607C76.3004 31.6543 78.2775 29.6769 78.2775 27.2377C78.2775 24.7977 76.3007 22.8209 73.8607 22.8209H58.0342C55.5944 22.8209 53.6173 24.7977 53.6173 27.2377C53.6173 29.6769 55.5941 31.6543 58.0342 31.6543H61.3394L55.399 63.8206H41.0647L42.9022 53.0033C43.0185 52.3218 42.8906 51.6202 42.5398 51.0222L37.0297 41.6078C37.5006 40.6044 37.7908 39.4835 37.7908 38.2779V30.9606L42.7295 33.7297C43.178 33.9808 43.6754 34.1057 44.1715 34.1057C44.7105 34.1057 45.2485 33.9582 45.7213 33.6648L50.8743 30.4745C52.2588 29.6192 52.6844 27.8037 51.8273 26.4215C50.9703 25.0392 49.156 24.6137 47.7757 25.4676L44.0981 27.7437L37.7922 24.2077V24.046C37.7922 19.9808 34.7709 16.6846 31.0449 16.6846C27.6303 16.6846 24.8389 19.4593 24.3888 23.0474L16.4917 27.4158C15.3229 28.0614 14.7354 29.415 15.0624 30.7106L17.0868 38.7504C17.4217 40.0863 18.6222 40.9767 19.9402 40.9767C20.178 40.9767 20.4195 40.9487 20.6611 40.887C22.2375 40.4894 23.1951 38.8906 22.7976 37.3121L21.3267 31.4706L24.2979 29.827V38.2768C24.2979 39.5245 24.6085 40.6805 25.1116 41.7114L19.2284 50.016L9.0082 44.5178C7.57414 43.7471 5.78984 44.2823 5.02001 45.7155C4.25017 47.1487 4.78586 48.9344 6.2185 49.7037L18.7326 56.4365C19.1749 56.6752 19.6528 56.7874 20.1257 56.7874C21.0529 56.7874 21.9609 56.3502 22.5294 55.545L29.6593 45.4793C30.1072 45.5813 30.5707 45.6388 31.0466 45.6388C31.5356 45.6388 32.0093 45.5753 32.4685 45.4677L36.9176 53.0718L35.094 63.8189H7.61151V63.8206Z" fill="#9CA3AF"/>
<path d="M31.5 16C35.0899 16 38 13.0899 38 9.5C38 5.91015 35.0899 3 31.5 3C27.9101 3 25 5.91015 25 9.5C25 13.0899 27.9101 16 31.5 16Z" fill="#9CA3AF"/>
</svg>
