<!DOCTYPE svg PUBLIC "-//W3C//DTD SVG 1.1//EN" "http://www.w3.org/Graphics/SVG/1.1/DTD/svg11.dtd">
<!-- Uploaded to: SVG Repo, www.svgrepo.com, Transformed by: SVG Repo Mixer Tools -->
<svg fill="#000000" width="800px" height="800px" viewBox="-51.2 -51.2 614.40 614.40" xmlns="http://www.w3.org/2000/svg" stroke="#000000" stroke-width="0.00512" transform="matrix(1, 0, 0, 1, 0, 0)rotate(0)">
<g id="SVGRepo_bgCarrier" stroke-width="0" transform="translate(0,0), scale(1)">
<path transform="translate(-51.2, -51.2), scale(19.2)" d="M16,26.741417340934277C17.73780223202422,26.158189614659726,19.62203048604524,25.842139558157108,20.95728682912886,24.586272655743205C22.186111775332797,23.430509130041365,22.282730672569787,21.574153312742585,23.07652692838548,20.085634727030993C23.83749279831278,18.658679343731766,25.416089804224463,17.61271563781317,25.536168914288282,16C25.657327493228138,14.372786617025424,24.118057442120836,13.127774142814376,23.712270375797907,11.547318622469904C23.11620009325846,9.225749881777093,24.354197798427723,6.20130132446163,22.60075118672103,4.567163576478622C20.962436234600744,3.040323643930643,18.063904994384682,3.490550692653476,16,4.359810283407569C14.072210987681636,5.17174159442593,13.86862876975375,8.137350872488982,11.981474027968947,9.0397088449071C9.829345729545636,10.068766020108454,6.73390412877849,8.024803103630859,4.971956906189224,9.632956351153547C3.3697502356984366,11.095312219319588,3.905807571291928,13.877904596826893,4.355543049052358,15.999999999999998C4.76497879455248,17.931939454159316,6.743171546304837,19.108244334556144,7.376478836589364,20.978792265057557C8.229107624467057,23.497132159635452,6.44928837957426,27.236196355895707,8.65989982057362,28.713426443411905C10.802841803743487,30.145436752699485,13.556564516483496,27.561464234124152,16,26.741417340934277" fill="#00bfff" strokewidth="0"/>
</g>
<g id="SVGRepo_tracerCarrier" stroke-linecap="round" stroke-linejoin="round" stroke="#CCCCCC" stroke-width="4.096"/>
<g id="SVGRepo_iconCarrier">
<title>ionicons-v5-h</title>
<circle cx="256" cy="56" r="56"/>
<path d="M437,128H75a27,27,0,0,0,0,54H176.88c6.91,0,15,3.09,19.58,15,5.35,13.83,2.73,40.54-.57,61.23l-4.32,24.45a.42.42,0,0,1-.12.35l-34.6,196.81A27.43,27.43,0,0,0,179,511.58a27.06,27.06,0,0,0,31.42-22.29l23.91-136.8S242,320,256,320c14.23,0,21.74,32.49,21.74,32.49l23.91,136.92a27.24,27.24,0,1,0,53.62-9.6L320.66,283a.45.45,0,0,0-.11-.35l-4.33-24.45c-3.3-20.69-5.92-47.4-.57-61.23,4.56-11.88,12.91-15,19.28-15H437a27,27,0,0,0,0-54Z"/>
</g>
</svg>