<svg width="100" height="100" viewBox="0 0 100 100" fill="none" xmlns="http://www.w3.org/2000/svg">
<path d="M50.0004 87.7326C55.0173 86.004 57.619 80.1325 62.5905 78.2776C67.9943 76.2614 74.4997 79.3144 79.6295 76.6779C84.9396 73.9487 89.486 69.1062 91.4234 63.4589C93.3622 57.8077 92.9787 51.0772 90.2326 45.7711C87.5021 40.4953 79.7537 39.6726 76.5304 34.6826C73.5262 30.0319 76.9249 22.3257 72.7434 18.6966C68.6969 15.1847 62.239 17.6339 56.881 17.629C52.3044 17.6248 47.9157 18.5358 43.341 18.6695C37.8743 18.8294 31.7957 15.6723 27.114 18.4993C22.5358 21.2639 22.7271 28.078 20.0721 32.7206C17.4279 37.344 11.2299 40.6218 11.4183 45.9446C11.6155 51.516 18.6659 54.3621 21.017 59.417C23.0378 63.7615 22.3322 68.8491 24.1363 73.2879C26.3635 78.7678 27.6834 85.6409 32.8478 88.5252C37.9001 91.3468 44.5292 89.6176 50.0004 87.7326Z" fill="#38CDFF"/>
<circle cx="50" cy="24" r="9" fill="white" stroke="black" stroke-width="2"/>
<path d="M82.467 58.1329C82.467 57.034 81.6361 56.1631 80.5733 56.0215V51.5704C80.5733 50.3754 79.6053 49.4063 78.4092 49.4063C77.2131 49.4063 76.2451 50.3754 76.2451 51.5704V55.9642H75.4336V51.5704C75.4336 50.3754 74.4655 49.4063 73.2695 49.4063C72.0734 49.4063 71.1054 50.3754 71.1054 51.5704V55.9642H69.5369V51.358C69.5369 42.8894 63.1331 36.0003 55.2562 36.0003L50.6146 36.0002L46.7344 36.0003H44.3534H44.2108C36.335 36.0003 29.9308 42.8894 29.9308 51.358V55.9642H28.3616V51.5704C28.3616 50.3754 27.3946 49.4063 26.1975 49.4063C25.0004 49.4063 24.0334 50.3754 24.0334 51.5704V55.9642H23.2219V51.5704C23.2219 50.3754 22.2549 49.4063 21.0578 49.4063C19.8607 49.4063 18.8937 50.3754 18.8937 51.5704V56.0212C17.8327 56.1586 17 57.0336 17 58.1325C17 59.2318 17.8327 60.1068 18.8937 60.2439V64.6949C18.8937 65.8889 19.8607 66.859 21.0578 66.859C22.2553 66.859 23.2219 65.8889 23.2219 64.6949V60.3011H24.0334V64.6949C24.0334 65.8889 25.0004 66.859 26.1975 66.859C27.3946 66.859 28.3616 65.8889 28.3616 64.6949V60.3011H30.4657C31.197 61.6534 32.6121 62.5877 34.2594 62.5877C35.9081 62.5877 37.3218 61.6537 38.0531 60.3011H39.8926V86.1364C39.8926 88.5247 41.8318 90.4649 44.2212 90.4649C46.6106 90.4649 48.5498 88.5247 48.5498 86.1364V68.3685H50.9252V86.1364C50.9252 88.5247 52.8655 90.4649 55.2538 90.4649C57.6421 90.4649 59.5823 88.5247 59.5823 86.1364V60.297H61.4212C62.1522 61.6537 63.5687 62.5839 65.217 62.5839C66.8636 62.5839 68.2773 61.6537 69.011 60.297H71.1141V64.6911C71.1141 65.8893 72.0821 66.8549 73.2782 66.8549C74.4742 66.8549 75.4423 65.8893 75.4423 64.6911V60.297H76.2538V64.6911C76.2538 65.8893 77.2218 66.8549 78.4179 66.8549C79.6139 66.8549 80.582 65.8893 80.582 64.6911V60.24C81.6364 60.1068 82.467 59.2321 82.467 58.1329ZM38.5879 55.9684V51.3622C38.5879 49.7475 39.0877 48.2849 39.893 47.1266V55.9684H38.5879ZM59.5782 47.1291C60.3793 48.2873 60.8843 49.75 60.8843 51.3646V55.9729H59.5782V47.1291Z" fill="white" stroke="black" stroke-width="2"/>
</svg>
