<!DOCTYPE svg PUBLIC "-//W3C//DTD SVG 1.1//EN" "http://www.w3.org/Graphics/SVG/1.1/DTD/svg11.dtd">
<!-- Uploaded to: SVG Repo, www.svgrepo.com, Transformed by: SVG Repo Mixer Tools -->
<svg fill="#ffffff" version="1.1" id="Capa_1" xmlns="http://www.w3.org/2000/svg" xmlns:xlink="http://www.w3.org/1999/xlink" width="100px" height="100px" viewBox="-41.16 -41.16 288.11 288.11" xml:space="preserve" stroke="#ffffff">
<g id="SVGRepo_bgCarrier" stroke-width="0" transform="translate(10.289450000000002,10.289450000000002), scale(0.9)">
<path transform="translate(-41.16, -41.16), scale(9.0034375)" d="M16,29.41612310707569C17.783791828828075,28.80153650729769,18.708817477332246,26.71387975302188,20.476488345928686,26.054357442909485C22.397834354446772,25.337498563479496,24.710861281284547,26.42297967372007,26.534789808137965,25.48556734907509C28.422832651960235,24.515203321538284,30.03932392071177,22.793407383443697,30.728180967171753,20.78547608591672C31.41751544511324,18.77615313591401,31.28118318984202,16.383092804924537,30.304785338085967,14.496506476400816C29.33394432438556,12.620657015729424,26.57895233232454,12.328144981972022,25.432870663010505,10.553929583479963C24.364710836173277,8.900342702573365,25.573135001310717,6.160347036170194,24.08640636508455,4.870016477514611C22.64765299830797,3.6213236156936484,20.351495624880716,4.492167419766518,18.446438662849545,4.490411005765846C16.819181882639697,4.48891071645775,15.258762625001683,4.812820693907126,13.63220024208956,4.860377965718735C11.688485726346027,4.917208100560466,9.527217472911955,3.7946846734948156,7.862621687747918,4.799859610981999C6.234806837280884,5.782824187212539,6.302837676646963,8.205605553451699,5.358811842307372,9.856307152658696C4.4186763239027895,11.500206235979213,2.214914331482039,12.665613376027546,2.2819054258494678,14.558170160481673C2.3520259988543044,16.539137443121543,4.858833520668096,17.551057080980694,5.69480339810384,19.348361349508476C6.413284842860179,20.89306984005793,6.162408320694923,22.70198362328519,6.803872020154538,24.28023082493337C7.595783088428842,26.228636367618066,8.06505723136058,28.67242464377849,9.901288316996464,29.697930713465187C11.697676413470143,30.701185102772474,14.054671090714498,30.086365598652243,16,29.41612310707569" fill="#38CDFF" strokewidth="0"/>
</g>
<g id="SVGRepo_tracerCarrier" stroke-linecap="round" stroke-linejoin="round" stroke="#000000" stroke-width="12.347339999999999"> <g> <path d="M197.203,112.637c0-3.166-2.394-5.675-5.456-6.083V93.73c0-3.443-2.789-6.235-6.235-6.235s-6.235,2.792-6.235,6.235v12.659 h-2.338V93.73c0-3.443-2.789-6.235-6.235-6.235s-6.235,2.792-6.235,6.235v12.659h-4.519V93.118 c0-24.399-18.45-44.247-41.144-44.247h-0.408c6.881-4.874,11.423-12.869,11.423-21.954C129.82,12.053,117.752,0,102.895,0 C88.037,0,75.971,12.053,75.971,26.917c0,9.085,4.54,17.08,11.423,21.954h-0.411c-22.691,0-41.142,19.848-41.142,44.247v13.271 h-4.521V93.73c0-3.443-2.786-6.235-6.235-6.235s-6.235,2.792-6.235,6.235v12.659h-2.338V93.73c0-3.443-2.786-6.235-6.235-6.235 c-3.449,0-6.235,2.792-6.235,6.235v12.823c-3.057,0.396-5.456,2.917-5.456,6.083c0,3.167,2.399,5.688,5.456,6.083v12.824 c0,3.44,2.786,6.235,6.235,6.235c3.45,0,6.235-2.795,6.235-6.235v-12.659h2.338v12.659c0,3.44,2.786,6.235,6.235,6.235 s6.235-2.795,6.235-6.235v-12.659h6.062c2.107,3.896,6.184,6.588,10.93,6.588c4.75,0,8.823-2.691,10.93-6.588h5.3v74.434 c0,6.881,5.587,12.471,12.471,12.471s12.471-5.59,12.471-12.471v-51.191h6.844v51.191c0,6.881,5.59,12.471,12.471,12.471 s12.471-5.59,12.471-12.471v-74.446h5.298c2.106,3.909,6.187,6.589,10.936,6.589c4.744,0,8.817-2.68,10.931-6.589h6.059v12.66 c0,3.452,2.789,6.234,6.235,6.234s6.235-2.782,6.235-6.234v-12.66h2.338v12.66c0,3.452,2.789,6.234,6.235,6.234 s6.235-2.782,6.235-6.234v-12.824C194.81,118.324,197.203,115.804,197.203,112.637z M70.783,106.401V93.13 c0-4.652,1.44-8.866,3.76-12.203v25.474H70.783z M131.258,80.934c2.308,3.337,3.763,7.551,3.763,12.203v13.277h-3.763V80.934z"/> </g> </g>
<g id="SVGRepo_iconCarrier"> <g> <path d="M197.203,112.637c0-3.166-2.394-5.675-5.456-6.083V93.73c0-3.443-2.789-6.235-6.235-6.235s-6.235,2.792-6.235,6.235v12.659 h-2.338V93.73c0-3.443-2.789-6.235-6.235-6.235s-6.235,2.792-6.235,6.235v12.659h-4.519V93.118 c0-24.399-18.45-44.247-41.144-44.247h-0.408c6.881-4.874,11.423-12.869,11.423-21.954C129.82,12.053,117.752,0,102.895,0 C88.037,0,75.971,12.053,75.971,26.917c0,9.085,4.54,17.08,11.423,21.954h-0.411c-22.691,0-41.142,19.848-41.142,44.247v13.271 h-4.521V93.73c0-3.443-2.786-6.235-6.235-6.235s-6.235,2.792-6.235,6.235v12.659h-2.338V93.73c0-3.443-2.786-6.235-6.235-6.235 c-3.449,0-6.235,2.792-6.235,6.235v12.823c-3.057,0.396-5.456,2.917-5.456,6.083c0,3.167,2.399,5.688,5.456,6.083v12.824 c0,3.44,2.786,6.235,6.235,6.235c3.45,0,6.235-2.795,6.235-6.235v-12.659h2.338v12.659c0,3.44,2.786,6.235,6.235,6.235 s6.235-2.795,6.235-6.235v-12.659h6.062c2.107,3.896,6.184,6.588,10.93,6.588c4.75,0,8.823-2.691,10.93-6.588h5.3v74.434 c0,6.881,5.587,12.471,12.471,12.471s12.471-5.59,12.471-12.471v-51.191h6.844v51.191c0,6.881,5.59,12.471,12.471,12.471 s12.471-5.59,12.471-12.471v-74.446h5.298c2.106,3.909,6.187,6.589,10.936,6.589c4.744,0,8.817-2.68,10.931-6.589h6.059v12.66 c0,3.452,2.789,6.234,6.235,6.234s6.235-2.782,6.235-6.234v-12.66h2.338v12.66c0,3.452,2.789,6.234,6.235,6.234 s6.235-2.782,6.235-6.234v-12.824C194.81,118.324,197.203,115.804,197.203,112.637z M70.783,106.401V93.13 c0-4.652,1.44-8.866,3.76-12.203v25.474H70.783z M131.258,80.934c2.308,3.337,3.763,7.551,3.763,12.203v13.277h-3.763V80.934z"/> </g> </g>
</svg>