<svg width="100" height="100" viewBox="0 0 100 100" fill="none" xmlns="http://www.w3.org/2000/svg">
<path d="M45.3561 65.2081C46.1811 66.031 47.5167 66.031 48.3396 65.2081C49.1646 64.3831 49.1646 63.0475 48.3396 62.2246L37.7897 51.6748C36.9647 50.8519 35.6291 50.8519 34.8062 51.6748C33.9813 52.4998 33.9813 53.8354 34.8062 54.6583L45.3561 65.2081Z" fill="#66CCFF"/>
<path d="M24.2566 56.7694L43.2463 75.7591L47.4663 79.9791C48.2913 80.802 49.6269 80.802 50.4498 79.9791C51.2727 79.1541 51.2727 77.8185 50.4498 76.9956L46.2298 72.7756L27.2401 53.7859L23.0202 49.566C22.1952 48.741 20.8596 48.741 20.0367 49.566C19.2117 50.391 19.2117 51.7266 20.0367 52.5495L24.2566 56.7694Z" fill="#66CCFF"/>
<path d="M39.8986 82.0894C40.7236 81.2644 40.7236 79.9288 39.8986 79.1059L20.9089 60.1162C20.0839 59.2933 18.7483 59.2933 17.9254 60.1162C17.1004 60.9412 17.1004 62.2768 17.9254 63.0997L36.9151 82.0894C37.738 82.9144 39.0757 82.9144 39.8986 82.0894Z" fill="#66CCFF"/>
<path d="M53.7957 27.2288L72.7854 46.2185L77.0053 50.4384C77.8282 51.2613 79.1659 51.2613 79.9888 50.4384C80.8117 49.6134 80.8117 48.2778 79.9888 47.4549L75.7689 43.235L56.7792 24.2453L52.5593 20.0254C51.7343 19.2025 50.3987 19.2025 49.5758 20.0254C48.7508 20.8504 48.7508 22.186 49.5758 23.0089L53.7957 27.2288Z" fill="#66CCFF"/>
<path d="M65.2204 48.3288C66.0433 47.5038 66.0433 46.1682 65.2204 45.3453L54.6706 34.7955C53.8456 33.9705 52.51 33.9705 51.6871 34.7955C50.8621 35.6205 50.8621 36.9561 51.6871 37.779L62.2369 48.3288C63.0598 49.1538 64.3975 49.1538 65.2204 48.3288Z" fill="#66CCFF"/>
<path d="M79.1163 39.8888C79.9391 40.7138 81.2769 40.7138 82.0997 39.8888C82.9226 39.0638 82.9226 37.7282 82.0997 36.9053L63.1101 17.9156C62.2851 17.0906 60.9494 17.0906 60.1266 17.9156C59.3016 18.7406 59.3016 20.0762 60.1266 20.8991L79.1163 39.8888Z" fill="#66CCFF"/>
<path d="M77.0793 31.8859L77.6975 31.2677C78.9298 30.0376 79.5543 28.4045 79.5522 26.7925C79.5543 25.1784 78.9298 23.5474 77.6975 22.3172C76.4674 21.085 74.8343 20.4605 73.2223 20.4626C71.6082 20.4605 69.9772 21.085 68.7471 22.3172L68.1288 22.9355L63.1092 17.9159C61.8264 16.633 60.1257 15.9979 58.4525 16C56.7793 15.9979 55.0787 16.633 53.7958 17.9159C53.1987 18.5109 52.7577 19.2008 52.4391 19.9267C51.171 18.7198 49.5274 18.1079 47.9027 18.11C46.2295 18.1079 44.5289 18.743 43.246 20.0258C41.9484 21.3171 41.3154 23.0262 41.3196 24.6825C41.3154 26.3388 41.9484 28.0479 43.246 29.3392L52.5151 38.6083L38.6189 52.5045L29.3498 43.2355C28.0669 41.9526 26.3663 41.3175 24.6931 41.3196C23.0199 41.3175 21.3192 41.9526 20.0364 43.2355C18.7388 44.5268 18.1058 46.2358 18.11 47.8921C18.1037 49.5021 18.7177 51.1542 19.9414 52.4328C19.2114 52.7493 18.5214 53.1903 17.9264 53.7853C16.6288 55.0766 15.9958 56.7857 16 58.442C15.9958 60.0983 16.6288 61.8074 17.9264 63.0987L22.946 68.1183L22.2856 68.7787C21.0534 70.0088 20.4288 71.6419 20.431 73.2539C20.4288 74.866 21.0534 76.4991 22.2856 77.7292C22.505 77.9486 22.9207 78.109 23.3427 78.2124C24.4314 79.1049 25.632 79.5838 27.0056 79.5817C28.6176 79.5838 30.1284 78.9593 31.3585 77.7271H31.2952L31.9218 77.092L36.914 82.0841C38.1969 83.367 39.8975 84.0021 41.5707 84C43.2439 84.0021 44.9445 83.367 46.2274 82.0841C46.8224 81.4891 47.2634 80.7992 47.5799 80.0691C48.848 81.2803 50.4937 81.8921 52.1205 81.89C53.7937 81.8921 55.4944 81.257 56.7772 79.9742C58.0601 78.6913 58.6952 76.9907 58.6931 75.3175C58.6952 73.6443 58.0601 71.9437 56.7772 70.6608L47.5503 61.4339L61.4466 47.5377L70.6735 56.7646C71.9563 58.0474 73.657 58.6825 75.3302 58.6804C77.0034 58.6825 78.704 58.0474 79.9869 56.7646C81.2697 55.4817 81.9048 53.7811 81.9027 52.1079C81.9048 50.4811 81.2929 48.8374 80.0818 47.5672C80.8119 47.2507 81.5018 46.8097 82.0968 46.2147C83.3797 44.9319 84.0148 43.2312 84.0127 41.558C84.0148 39.8848 83.3797 38.1842 82.0968 36.9013L77.0793 31.8859ZM24.7522 74.252C24.634 74.1781 24.4969 74.1296 24.2648 74.1296H24.7522V74.252ZM28.2505 74.7478C27.8327 75.1635 27.3052 75.3639 26.7587 75.366C26.3431 75.3639 25.957 75.2099 25.6046 74.9715L25.7544 74.7478C25.3387 74.33 24.8956 73.8025 24.8914 73.256C24.8935 72.7096 24.9716 72.1821 25.3873 71.7643H25.3261L25.2944 71.7348L25.9126 71.1165L28.8961 74.1L28.2505 74.7478ZM79.1154 43.2355C78.6681 43.6828 78.0689 43.9127 77.4422 43.9149C76.8156 43.9127 76.2163 43.6828 75.769 43.2355C75.7627 43.2291 75.7564 43.2291 75.75 43.2228C75.5559 43.0329 75.3302 42.881 75.0812 42.7776C74.5664 42.5666 73.9882 42.5666 73.4734 42.7776C73.2181 42.8831 72.9818 43.0371 72.7855 43.2355C72.5893 43.4317 72.4332 43.668 72.3298 43.9233C72.1188 44.4381 72.1188 45.0163 72.3298 45.5311C72.4353 45.7864 72.5893 46.0227 72.7877 46.2189L77.0076 50.4389C77.4549 50.8862 77.6849 51.4854 77.687 52.1121C77.6849 52.7387 77.4549 53.338 77.0076 53.7853C76.5603 54.2326 75.961 54.4626 75.3344 54.4647C74.7077 54.4626 74.1085 54.2326 73.6612 53.7853L62.9425 43.0667C62.1176 42.2417 60.7819 42.2417 59.9591 43.0667L43.0793 59.9464C42.6869 60.3388 42.4611 60.8832 42.4611 61.4381C42.4611 61.993 42.6869 62.5374 43.0793 62.9299L53.798 73.6485C54.2453 74.0958 54.4753 74.695 54.4774 75.3217C54.4753 75.9484 54.2453 76.5476 53.798 76.9949C53.3506 77.4422 52.7514 77.6722 52.1248 77.6743C51.4981 77.6722 50.8989 77.4422 50.4515 76.9949L46.2316 72.775C46.0354 72.5766 45.7991 72.4226 45.5438 72.3171C45.2885 72.2116 45.0163 72.1568 44.7441 72.1568C44.7441 72.1568 44.742 72.1568 44.7399 72.1568C44.4656 72.1568 44.1934 72.2116 43.936 72.3171C43.6807 72.4226 43.4444 72.5766 43.2481 72.775C43.0519 72.9712 42.8958 73.2075 42.7924 73.4628C42.6869 73.7202 42.632 73.9924 42.632 74.2667C42.632 74.2688 42.632 74.2688 42.632 74.2709C42.632 74.5431 42.6869 74.8153 42.7924 75.0706C42.8958 75.3196 43.0477 75.5475 43.2376 75.7416C43.2439 75.7479 43.2439 75.7542 43.2502 75.7606C43.6975 76.2079 43.9275 76.8071 43.9296 77.4338C43.9275 78.0604 43.6975 78.6597 43.2502 79.107C42.8029 79.5543 42.2037 79.7843 41.577 79.7864C40.9504 79.7843 40.3511 79.5543 39.9038 79.107L20.9141 60.1173C20.4352 59.6341 20.2263 59.0644 20.22 58.442C20.2263 57.8195 20.4352 57.2498 20.9099 56.7688C21.3572 56.3215 21.9586 56.0915 22.5831 56.0894C23.2098 56.0915 23.809 56.3215 24.2563 56.7688C24.2626 56.7751 24.269 56.7751 24.2753 56.7814C24.4694 56.9713 24.6952 57.1232 24.9442 57.2266C25.1931 57.33 25.4569 57.3786 25.7227 57.3828C25.7312 57.3828 25.7396 57.387 25.7481 57.387C25.7544 57.387 25.7607 57.3828 25.7671 57.3828C26.035 57.3807 26.3009 57.3279 26.552 57.2245C26.8073 57.119 27.0436 56.965 27.2398 56.7667C27.4381 56.5683 27.5922 56.3341 27.6977 56.0788C27.9087 55.564 27.9087 54.9859 27.6977 54.471C27.5922 54.2157 27.4381 53.9794 27.2398 53.7832L23.0199 49.5632C22.5451 49.0843 22.3362 48.5146 22.3299 47.8921C22.3362 47.2697 22.5451 46.7 23.0199 46.2189C23.4672 45.7716 24.0685 45.5416 24.6931 45.5395C25.3197 45.5416 25.919 45.7716 26.3663 46.2189L37.1271 56.9798C37.5196 57.3722 38.0639 57.598 38.6189 57.598C39.1738 57.598 39.7182 57.3722 40.1106 56.9798L56.9903 40.1C57.3828 39.7076 57.6086 39.1632 57.6086 38.6083C57.6086 38.0534 57.3828 37.509 56.9903 37.1165L46.2295 26.3557C45.7548 25.8746 45.5459 25.305 45.5395 24.6825C45.5459 24.0601 45.7548 23.4904 46.2295 23.0093C46.6768 22.562 47.2782 22.332 47.9027 22.3299C48.5294 22.332 49.1286 22.562 49.5759 23.0093L53.7958 27.2292C53.8085 27.2419 53.8233 27.244 53.8359 27.2567C54.0258 27.4381 54.2432 27.5879 54.4837 27.6871C54.739 27.7926 55.0112 27.8475 55.2834 27.8475C55.5577 27.8475 55.8341 27.7926 56.0915 27.6871C56.3468 27.5816 56.5831 27.4276 56.7793 27.2292C56.9756 27.033 57.1317 26.7967 57.2372 26.5414C57.3427 26.284 57.3976 26.0118 57.3976 25.7375C57.3976 25.7354 57.3976 25.7354 57.3976 25.7333C57.3976 25.4611 57.3427 25.1889 57.2372 24.9336C57.138 24.691 56.9861 24.4715 56.8047 24.2795C56.7941 24.269 56.792 24.2542 56.7814 24.2436C56.3046 23.7647 56.0957 23.195 56.0894 22.5726C56.0957 21.9501 56.3046 21.3804 56.7793 20.8993C57.2267 20.452 57.828 20.222 58.4525 20.2199C59.0792 20.222 59.6784 20.452 60.1257 20.8993L66.6371 27.4107C67.0296 27.8032 67.5739 28.0289 68.1288 28.0289C68.6838 28.0289 69.2281 27.8032 69.6206 27.4107L71.7306 25.3007C72.1483 24.8851 72.6758 24.6846 73.2223 24.6825C73.7688 24.6846 74.2963 24.8851 74.7141 25.3007C75.1297 25.7185 75.3302 26.246 75.3323 26.7925C75.3302 27.339 75.1297 27.8665 74.7141 28.2842L72.6041 30.3942C72.2116 30.7866 71.9859 31.331 71.9859 31.8859C71.9859 32.4409 72.2116 32.9852 72.6041 33.3777L79.1154 39.889C79.5628 40.3364 79.7927 40.9356 79.7949 41.5622C79.7927 42.1889 79.5628 42.7881 79.1154 43.2355Z" fill="#4E5F80"/>
</svg>
