<!DOCTYPE svg PUBLIC "-//W3C//DTD SVG 1.1//EN" "http://www.w3.org/Graphics/SVG/1.1/DTD/svg11.dtd">
<!-- Uploaded to: SVG Repo, www.svgrepo.com, Transformed by: SVG Repo Mixer Tools -->
<svg fill="#000000" height="100px" width="100px" version="1.1" id="Capa_1" xmlns="http://www.w3.org/2000/svg" xmlns:xlink="http://www.w3.org/1999/xlink" viewBox="-45.12 -45.12 541.42 541.42" xml:space="preserve" stroke="#000000" stroke-width="0.00451179">
<g id="SVGRepo_bgCarrier" stroke-width="0" transform="translate(45.11789999999999,45.11789999999999), scale(0.8)">
<path transform="translate(-45.12, -45.12), scale(16.919375)" d="M16,31.22052738443017C19.03969634412217,30.71106180802902,20.1995510946675,27.011217973219512,22.561833524494197,25.031589028255453C24.68026467256484,23.256311201318503,27.873940620707323,22.73557098997398,29.088028769005213,20.252558331912713C30.36281318332487,17.645411691454544,30.70724961610948,14.142712883817271,29.051400386494432,11.759342951006193C27.41670867009092,9.406426383114784,23.781374508833174,10.070965238037171,21.180112231753995,8.870187178202224C19.30157384228037,8.003028298256284,17.942048154472797,6.448305522899836,16,5.7346389554440975C13.053413353436243,4.651823180294108,9.76212042442265,2.101752474729153,7.046285058773913,3.676268633843792C4.396944903575579,5.212233935022725,4.66348130862054,9.250760098999656,4.652967182530027,12.313125543802835C4.644737280086641,14.71018342952379,6.5355804304286185,16.573407007473634,6.9939267638704,18.926250580134536C7.557940287327985,21.82151884506452,5.875376922482767,25.156609115666797,7.618493415232816,27.536154129583636C9.467222727977596,30.059872215277036,12.914625078065804,31.73764887785053,16,31.22052738443017" fill="#38CDFF" strokewidth="0"/>
</g>
<g id="SVGRepo_tracerCarrier" stroke-linecap="round" stroke-linejoin="round"/>
<g id="SVGRepo_iconCarrier"> <path d="M354.179,178.82c-7.39,0-14.588,0.834-21.509,2.407l11.948-11.955c12.498-12.523,12.491-32.878-0.015-45.37 c-9.857-9.857-24.821-12.238-37.223-5.931c-2.976,1.506-5.719,3.498-8.163,5.931l-59.677,59.695v-75.214 c0-16.559-13.472-30.029-30.03-30.029c-8.02,0-15.561,3.124-21.231,8.797c-5.674,5.672-8.798,13.213-8.798,21.232v135.292 l-54.619,54.636c-5.439-29.226-31.113-51.428-61.892-51.428C28.248,246.884,0,275.132,0,309.854c0,34.722,28.248,62.97,62.97,62.97 c12.475,0,24.646-3.735,34.932-10.601c5.379,6.679,13.441,10.601,22.469,10.601h136.09c7.807,0,15.147-3.042,20.672-8.567 c5.327-5.327,8.331-12.319,8.547-19.823c17.56,17.531,41.786,28.387,68.5,28.387c53.486,0,97-43.514,97-97 S407.665,178.82,354.179,178.82z M191.48,108.384c0-4.813,1.876-9.341,5.283-12.747c3.405-3.406,7.933-5.282,12.746-5.282 c9.942,0,18.03,8.088,18.03,18.029v87.217l-36.06,36.071V108.384z M12,309.854c0-28.105,22.865-50.971,50.97-50.971 c27.903,0,50.629,22.54,50.955,50.367l-14.057,14.061c-7.579,7.578-10.282,18.093-7.469,28.144 c-8.559,6.062-18.86,9.367-29.43,9.367C34.865,360.824,12,337.959,12,309.854z M268.647,355.772 c-3.259,3.258-7.587,5.052-12.188,5.052H120.37c-8.372,0-13.603-5.426-15.706-10.504c-2.101-5.07-2.234-12.6,3.689-18.523 l199.339-199.399c1.539-1.532,3.258-2.783,5.117-3.726c7.769-3.948,17.136-2.459,23.311,3.718c7.828,7.82,7.83,20.563,0.006,28.403 l-31.871,31.891c-27.59,16.63-46.274,46.597-47.051,80.909c-0.017,0.741-0.333,4.355-0.516,5c-1.707,6.034-4.76,11.654-8.941,16.375 l-17.159,19.387H162.69c-3.313,0-6,2.687-6,6s2.687,6,6,6h70.6h22.64c9.625,0,17.593,7.59,17.762,16.909 C273.771,347.998,271.979,352.44,268.647,355.772z M265.935,316.076c-3.134-1.113-6.504-1.721-10.005-1.721h-9.316l10.119-11.433 c1.143-1.291,2.216-2.638,3.227-4.028C261.419,304.854,263.428,310.602,265.935,316.076z M354.179,360.82c-46.869,0-85-38.131-85-85 s38.131-85,85-85s85,38.131,85,85S401.048,360.82,354.179,360.82z"/> </g>
</svg>