<svg width="100" height="100" viewBox="0 0 100 100" fill="none" xmlns="http://www.w3.org/2000/svg">
<path d="M77.4355 37.4705C75.945 37.4705 74.4932 37.6405 73.0973 37.961L75.5072 35.5251C78.0279 32.9734 78.0265 28.826 75.5041 26.2807C73.516 24.2723 70.4979 23.7871 67.9965 25.0722C67.3963 25.3791 66.843 25.7849 66.3501 26.2807L54.3136 38.4439V23.1186C54.3136 19.7446 51.5964 17 48.2568 17C46.6392 17 45.1182 17.6365 43.9746 18.7924C42.8302 19.9481 42.2001 21.4847 42.2001 23.1186V50.6851L31.1838 61.8175C30.0868 55.8626 24.9085 51.3388 18.7006 51.3388C11.6974 51.339 6 57.0947 6 64.1695C6 71.2443 11.6974 77 18.7006 77C21.2168 77 23.6716 76.239 25.7462 74.84C26.8311 76.2009 28.4571 77 30.278 77H57.7265C59.3011 77 60.7815 76.3802 61.8959 75.2544C62.9703 74.169 63.5762 72.7444 63.6198 71.2154C67.1615 74.7874 72.0477 76.9994 77.4357 76.9994C88.2235 76.9994 97 68.1332 97 57.2351C97 46.337 88.2233 37.4705 77.4355 37.4705ZM44.6202 23.1188C44.6202 22.1381 44.9986 21.2155 45.6858 20.5215C46.3726 19.8275 47.2858 19.4453 48.2566 19.4453C50.2618 19.4453 51.8931 21.0933 51.8931 23.1188V40.8898L44.62 48.2394L44.6202 23.1188ZM8.42032 64.1695C8.42032 58.4429 13.032 53.7838 18.7006 53.7838C24.3285 53.7838 28.9122 58.3765 28.9779 64.0464L26.1427 66.9114C24.6141 68.4555 24.0689 70.598 24.6363 72.6459C22.91 73.8811 20.8323 74.5545 18.7004 74.5545C13.032 74.5549 8.42032 69.8961 8.42032 64.1695ZM60.1843 73.5256C59.527 74.1894 58.6541 74.5549 57.7261 74.5549H30.2778C28.5893 74.5549 27.5342 73.4494 27.11 72.4147C26.6863 71.3816 26.6594 69.8474 27.8541 68.6405L68.0594 28.0118C68.3698 27.6996 68.7165 27.4447 69.0915 27.2526C70.6584 26.4482 72.5477 26.7516 73.7932 28.0102C75.372 29.6035 75.3724 32.2 73.7944 33.7974L67.3662 40.2954C61.8015 43.6839 58.0331 49.7898 57.8763 56.7811C57.8729 56.9321 57.8092 57.6685 57.7723 57.7999C57.428 59.0293 56.8122 60.1744 55.9689 61.1364L52.5081 65.0866H38.8135C38.1453 65.0866 37.6033 65.6341 37.6033 66.3091C37.6033 66.9842 38.1453 67.5317 38.8135 67.5317H53.053H57.6194C59.5607 67.5317 61.1678 69.0782 61.2019 70.977C61.2178 71.9416 60.8564 72.8466 60.1843 73.5256ZM59.6373 65.4373C59.0052 65.2105 58.3255 65.0866 57.6194 65.0866H55.7404L57.7813 62.7571C58.0119 62.494 58.2283 62.2195 58.4322 61.9363C58.7265 63.1507 59.1317 64.3219 59.6373 65.4373ZM77.4355 74.5541C67.9824 74.5541 60.2916 66.7847 60.2916 57.2349C60.2916 47.685 67.9824 39.9156 77.4355 39.9156C86.8887 39.9156 94.5795 47.685 94.5795 57.2349C94.5795 66.7847 86.8887 74.5541 77.4355 74.5541Z" fill="black" stroke="black" stroke-width="0.5"/>
</svg>
