<!DOCTYPE svg PUBLIC "-//W3C//DTD SVG 1.1//EN" "http://www.w3.org/Graphics/SVG/1.1/DTD/svg11.dtd">
<!-- Uploaded to: SVG Repo, www.svgrepo.com, Transformed by: SVG Repo Mixer Tools -->
<svg width="800px" height="800px" viewBox="-10 -10 120.00 120.00" xmlns="http://www.w3.org/2000/svg" fill="#000000">
<g id="SVGRepo_bgCarrier" stroke-width="0">
<path transform="translate(-10, -10), scale(3.75)" d="M16,30.76787504181266C18.487533014463335,30.335885364403023,19.025067519174716,26.857326537085708,20.712872684051423,24.979628663398614C21.80106935952853,23.769000430817048,22.994793511973015,22.757546364252732,24.19181956380673,21.654404780740272C25.721708953313467,20.244506808048687,27.99817447588145,19.481530666504533,28.77371495330161,17.551009802745728C29.561426677336826,15.590191557725179,28.688244159537,13.403433369838869,28.344007247676984,11.318535554908584C27.933641496120575,8.833123243604504,28.669235630207265,5.453827551183684,26.551197673038573,4.090159842676579C24.296074862608663,2.6382320597524638,21.36538682312498,5.230863074696384,18.686446828591563,5.100656766717327C16.651655260194893,5.001758434478276,14.934341491806318,3.551308465162995,12.900961937307166,3.4267083275921806C10.430353130990952,3.2753159343375486,7.570744618550258,2.7576328757808017,5.6355292328226785,4.300930948554123C3.7141767257504554,5.833173634898789,3.355716332743401,8.697752799631083,3.214823865088656,11.15122226527511C3.0903330866009284,13.319076437027965,4.677950387854938,15.188042852111542,4.886206971971644,17.349458790584926C5.10152037453435,19.58411476576012,3.326026584359295,22.0289904370253,4.450157507572207,23.972280651117323C5.5555989716365985,25.883262312602156,8.439101827949496,25.6611472613153,10.341863904452243,26.78067761875413C12.359795954076285,27.967970668526878,13.693219915720324,31.168474824275417,16,30.76787504181266" fill="#00bfff" strokewidth="0"/>
</g>
<g id="SVGRepo_tracerCarrier" stroke-linecap="round" stroke-linejoin="round"/>
<g id="SVGRepo_iconCarrier">
<path fill="#F3F3F3" d="M67.283 96.847c-31.675 10.868-26.284-8.737-53.132-23.014-26.776-14.24-12.708-42.414 18.464-60.401 37.712-21.76 74.573-17.987 66.18 17.987-8.393 35.972-4.946 55.519-31.512 65.428z"/>
<circle fill="#F0C419" cx="50" cy="47" r="19"/>
<path stroke="#ffffff" stroke-width="4" stroke-linecap="round" stroke-linejoin="round" stroke-miterlimit="10" d="M79 7.031c6.138 0 13.807 6.252 15.077 14.969M53 35.378c3.757 1.081 6.71 3.965 8.025 7.622" fill="none"/>
</g>
</svg>