<svg width="100" height="100" viewBox="0 0 100 100" fill="none" xmlns="http://www.w3.org/2000/svg">
<path d="M50.0004 87.7326C55.0173 86.004 57.619 80.1325 62.5905 78.2776C67.9943 76.2614 74.4997 79.3144 79.6295 76.6779C84.9396 73.9487 89.486 69.1062 91.4234 63.4589C93.3622 57.8077 92.9787 51.0772 90.2326 45.7711C87.5021 40.4953 79.7537 39.6726 76.5304 34.6826C73.5262 30.0319 76.9249 22.3257 72.7434 18.6966C68.6969 15.1847 62.239 17.6339 56.881 17.629C52.3044 17.6248 47.9157 18.5358 43.341 18.6695C37.8743 18.8294 31.7957 15.6723 27.114 18.4993C22.5358 21.2639 22.7271 28.078 20.0721 32.7206C17.4279 37.344 11.2299 40.6218 11.4183 45.9446C11.6155 51.516 18.6659 54.3621 21.017 59.417C23.0378 63.7615 22.3322 68.8491 24.1363 73.2879C26.3635 78.7678 27.6834 85.6409 32.8478 88.5252C37.9001 91.3468 44.5292 89.6176 50.0004 87.7326Z" fill="#38CDFF"/>
<circle cx="50" cy="24" r="9" fill="white" stroke="black" stroke-width="2"/>
<path d="M72 37.0008C69.5 37.0007 67.5 37.0008 67.5 37.0008H50.9252L46.7344 37L28 37.0008M28 43.2275H39.8926C39.8926 59.9844 39.8926 69.3792 39.8926 86.136C39.8926 88.5244 41.8318 90.4646 44.2212 90.4646C46.6106 90.4646 48.5497 88.5244 48.5497 86.136V68.3682H50.9252V86.136C50.9252 88.5244 52.8655 90.4646 55.2538 90.4646C57.6421 90.4646 59.5823 88.5244 59.5823 86.136V60.2967V43.2275H72" stroke="black" stroke-width="2"/>
<path d="M74.5489 45.2781V34.3283H70.1361C69.075 34.3283 68 33.1985 68 32.1642C68 31.1299 69.0394 30.0001 70.1361 30.0001H74.5489C74.5489 30.0001 74.8299 28.0001 76.6986 28.0001C78.5674 28.0001 78.792 30.0001 78.792 30.0001L83.205 30.0001C84.3888 30.0001 85.3507 30.9671 85.3507 32.1642C85.3507 33.3613 84.3888 34.3283 83.205 34.3283H78.8487V45.2781H83.205C84.3888 45.2781 85.3507 46.2447 85.3507 47.4422C85.3507 48.6393 84.3888 49.6063 83.205 49.6063H78.792C78.656 50.6673 77.7885 51.5 76.6986 51.5C75.6091 51.5 74.7416 50.6673 74.6053 49.6063H70.1925C69.0077 49.6063 68.0469 48.6393 68.0469 47.4422C68.0469 46.2451 69.0077 45.2781 70.1925 45.2781H74.5489Z" fill="white" fill-opacity="0.5" stroke="black" stroke-width="2"/>
<path d="M21.5489 45.2781L21.5489 34.3283H17.1361C16.075 34.3283 15 33.1985 15 32.1642C15 31.1299 16.0394 30.0001 17.1361 30.0001H21.5489C21.5489 30.0001 21.8299 28.0001 23.6986 28.0001C25.5674 28.0001 25.792 30.0001 25.792 30.0001L30.205 30.0001C31.3888 30.0001 32.3507 30.9671 32.3507 32.1642C32.3507 33.3613 31.3888 34.3283 30.205 34.3283H25.8487V45.2781H30.205C31.3888 45.2781 32.3507 46.2447 32.3507 47.4422C32.3507 48.6393 31.3888 49.6063 30.205 49.6063H25.792C25.656 50.6673 24.7885 51.5 23.6986 51.5C22.6091 51.5 21.7416 50.6673 21.6053 49.6063H17.1925C16.0077 49.6063 15.0469 48.6393 15.0469 47.4422C15.0469 46.2451 16.0077 45.2781 17.1925 45.2781H21.5489Z" fill="white" fill-opacity="0.5" stroke="black" stroke-width="2"/>
<mask id="path-6-inside-1_6153_4111" fill="white">
<path d="M80.5 44.2998C81.0253 44.2998 81.5454 44.1963 82.0307 43.9953C82.516 43.7943 82.957 43.4997 83.3284 43.1282C83.6999 42.7568 83.9945 42.3158 84.1955 41.8305C84.3965 41.3452 84.5 40.8251 84.5 40.2998C84.5 39.7745 84.3965 39.2544 84.1955 38.7691C83.9945 38.2838 83.6999 37.8428 83.3284 37.4714C82.957 37.0999 82.516 36.8053 82.0307 36.6043C81.5454 36.4033 81.0253 36.2998 80.5 36.2998L80.5 38.06C80.7941 38.06 81.0854 38.1179 81.3571 38.2305C81.6289 38.3431 81.8758 38.508 82.0838 38.716C82.2918 38.924 82.4567 39.1709 82.5693 39.4427C82.6819 39.7144 82.7398 40.0057 82.7398 40.2998C82.7398 40.5939 82.6819 40.8852 82.5693 41.1569C82.4567 41.4287 82.2918 41.6756 82.0838 41.8836C81.8758 42.0916 81.6289 42.2566 81.3571 42.3691C81.0854 42.4817 80.7941 42.5396 80.5 42.5396V44.2998Z"/>
</mask>
<path d="M80.5 44.2998C81.0253 44.2998 81.5454 44.1963 82.0307 43.9953C82.516 43.7943 82.957 43.4997 83.3284 43.1282C83.6999 42.7568 83.9945 42.3158 84.1955 41.8305C84.3965 41.3452 84.5 40.8251 84.5 40.2998C84.5 39.7745 84.3965 39.2544 84.1955 38.7691C83.9945 38.2838 83.6999 37.8428 83.3284 37.4714C82.957 37.0999 82.516 36.8053 82.0307 36.6043C81.5454 36.4033 81.0253 36.2998 80.5 36.2998L80.5 38.06C80.7941 38.06 81.0854 38.1179 81.3571 38.2305C81.6289 38.3431 81.8758 38.508 82.0838 38.716C82.2918 38.924 82.4567 39.1709 82.5693 39.4427C82.6819 39.7144 82.7398 40.0057 82.7398 40.2998C82.7398 40.5939 82.6819 40.8852 82.5693 41.1569C82.4567 41.4287 82.2918 41.6756 82.0838 41.8836C81.8758 42.0916 81.6289 42.2566 81.3571 42.3691C81.0854 42.4817 80.7941 42.5396 80.5 42.5396V44.2998Z" stroke="black" stroke-width="2" mask="url(#path-6-inside-1_6153_4111)"/>
<mask id="path-7-inside-2_6153_4111" fill="white">
<path d="M20 44C19.4747 44 18.9546 43.8965 18.4693 43.6955C17.984 43.4945 17.543 43.1999 17.1716 42.8284C16.8001 42.457 16.5055 42.016 16.3045 41.5307C16.1035 41.0454 16 40.5253 16 40C16 39.4747 16.1035 38.9546 16.3045 38.4693C16.5055 37.984 16.8001 37.543 17.1716 37.1716C17.543 36.8001 17.984 36.5055 18.4693 36.3045C18.9546 36.1035 19.4747 36 20 36L20 37.7602C19.7059 37.7602 19.4146 37.8181 19.1429 37.9307C18.8711 38.0432 18.6242 38.2082 18.4162 38.4162C18.2082 38.6242 18.0433 38.8711 17.9307 39.1429C17.8181 39.4146 17.7602 39.7059 17.7602 40C17.7602 40.2941 17.8181 40.5854 17.9307 40.8571C18.0433 41.1289 18.2082 41.3758 18.4162 41.5838C18.6242 41.7918 18.8711 41.9567 19.1429 42.0693C19.4146 42.1819 19.7059 42.2398 20 42.2398V44Z"/>
</mask>
<path d="M20 44C19.4747 44 18.9546 43.8965 18.4693 43.6955C17.984 43.4945 17.543 43.1999 17.1716 42.8284C16.8001 42.457 16.5055 42.016 16.3045 41.5307C16.1035 41.0454 16 40.5253 16 40C16 39.4747 16.1035 38.9546 16.3045 38.4693C16.5055 37.984 16.8001 37.543 17.1716 37.1716C17.543 36.8001 17.984 36.5055 18.4693 36.3045C18.9546 36.1035 19.4747 36 20 36L20 37.7602C19.7059 37.7602 19.4146 37.8181 19.1429 37.9307C18.8711 38.0432 18.6242 38.2082 18.4162 38.4162C18.2082 38.6242 18.0433 38.8711 17.9307 39.1429C17.8181 39.4146 17.7602 39.7059 17.7602 40C17.7602 40.2941 17.8181 40.5854 17.9307 40.8571C18.0433 41.1289 18.2082 41.3758 18.4162 41.5838C18.6242 41.7918 18.8711 41.9567 19.1429 42.0693C19.4146 42.1819 19.7059 42.2398 20 42.2398V44Z" stroke="black" stroke-width="2" mask="url(#path-7-inside-2_6153_4111)"/>
<path fill-rule="evenodd" clip-rule="evenodd" d="M72 38H28V42.2H41V67V67.5V86.5C41 88.1569 42.3431 89.5 44 89.5H44.5C46.1569 89.5 47.5 88.1569 47.5 86.5V67.5H52V86.5C52 88.1569 53.3431 89.5 55 89.5H55.5C57.1569 89.5 58.5 88.1569 58.5 86.5V67.5V67V42.2H72V38Z" fill="white"/>
</svg>
