<svg width="100" height="100" viewBox="0 0 100 100" fill="none" xmlns="http://www.w3.org/2000/svg">
<g clip-path="url(#clip0_6148_4019)">
<path d="M49.9999 82.282C55.0514 80.13 59.2214 76.3296 64.6187 75.3209C73.8311 73.5991 84.6781 79.9243 92.2397 74.3876C99.1785 69.3068 102.244 58.0434 99.1989 50.0004C95.9469 41.411 82.2096 41.9848 77.086 34.3623C72.5208 27.5706 77.9414 16.9379 72.7327 10.6262C67.4486 4.22307 57.8889 -1.04533 49.9999 1.5402C41.4288 4.34929 41.0705 16.9755 34.5013 23.1561C29.944 27.4438 22.034 26.7218 18.0802 31.5716C13.9614 36.6237 13.225 43.5106 12.6162 50.0004C11.9632 56.9619 12.317 63.8729 14.4249 70.5397C16.8956 78.3538 18.0622 89.27 25.8446 91.8387C34.2098 94.5998 41.8955 85.7345 49.9999 82.282Z" fill="#38CDFF"/>
<path d="M84.4333 35.16C85.0778 35.16 85.6005 34.6373 85.6005 33.9928V28.1307C85.6005 27.4861 85.0778 26.9634 84.4333 26.9634H71.9826C71.3381 26.9634 70.8154 27.4861 70.8154 28.1307V33.9928C70.8154 34.6373 71.3381 35.16 71.9826 35.16H77.0407V36.4529C77.0257 36.4527 77.0109 36.4518 76.996 36.4518H57.1794C60.2485 34.2235 62.2497 30.6097 62.2497 26.5354C62.2497 19.7806 56.7543 14.2852 49.9997 14.2852C43.2448 14.2852 37.7494 19.7806 37.7494 26.5354C37.7494 30.6091 39.7501 34.2225 42.8186 36.451H30.3407C30.3265 36.451 30.3123 36.4512 30.2983 36.4518H22.9582V35.16H28.0163C28.6608 35.16 29.1836 34.6373 29.1836 33.9928V28.1307C29.1836 27.4861 28.6608 26.9634 28.0163 26.9634H15.5657C14.9212 26.9634 14.3984 27.4861 14.3984 28.1307V33.9928C14.3984 34.6373 14.9212 35.16 15.5657 35.16H20.6238V36.9677C18.8007 37.8314 17.5364 39.6889 17.5364 41.8367C17.5364 43.9844 18.8007 45.8419 20.6238 46.7056V48.3888H15.5657C14.9212 48.3888 14.3984 48.9115 14.3984 49.5561V55.4182C14.3984 56.0627 14.9212 56.5854 15.5657 56.5854H28.0163C28.6608 56.5854 29.1836 56.0627 29.1836 55.4182V49.5561C29.1836 48.9115 28.6608 48.3888 28.0163 48.3888H22.9582V47.2216H34.2473C35.9293 47.2216 37.2979 48.59 37.2979 50.272V80.3482C37.2979 83.3078 39.7423 85.7156 42.747 85.7156C44.1802 85.7156 45.5283 85.1569 46.5429 84.1422C47.5562 83.1288 48.1144 81.7814 48.1144 80.3482V66.8632C48.1144 65.7812 48.9538 64.8952 49.9861 64.8882C49.9903 64.8882 49.995 64.8882 49.9995 64.8882C50.5045 64.8882 50.9776 65.0836 51.3319 65.4374C51.6883 65.7952 51.8846 66.2695 51.8846 66.7731V80.2539C51.8846 83.2288 54.2617 85.6789 57.1835 85.7152C57.2066 85.7154 57.2298 85.7156 57.2527 85.7156C58.6861 85.7156 60.0314 85.1585 61.0481 84.1422C62.0612 83.1288 62.6192 81.7812 62.6192 80.3482V50.2718C62.6192 48.5898 63.9876 47.2214 65.6698 47.2214H76.996C77.0109 47.2214 77.0257 47.2204 77.0407 47.2202V48.3886H71.9826C71.3381 48.3886 70.8154 48.9113 70.8154 49.5559V55.418C70.8154 56.0625 71.3381 56.5852 71.9826 56.5852H84.4333C85.0778 56.5852 85.6005 56.0625 85.6005 55.418V49.5559C85.6005 48.9113 85.0778 48.3886 84.4333 48.3886H79.3752V46.6656C81.1541 45.7855 82.3807 43.9519 82.3807 41.8365C82.3807 39.721 81.1541 37.8875 79.3752 37.0074V35.1598L84.4333 35.16ZM16.7329 29.2979H26.8491V32.8255H16.7329V29.2979ZM26.8491 54.2509H16.7329V50.7233H26.8491V54.2509ZM83.266 54.2509H73.1499V50.7233H83.266V54.2509ZM40.0839 26.5354C40.0839 21.068 44.5321 16.6197 49.9997 16.6197C55.4673 16.6197 59.9152 21.0678 59.9152 26.5354C59.9152 32.003 55.4673 36.451 49.9997 36.451C44.5321 36.451 40.0839 32.0028 40.0839 26.5354ZM76.996 44.8871H65.6698C62.7005 44.8871 60.2847 47.3027 60.2847 50.272V80.3482C60.2847 81.1579 59.9695 81.9192 59.3972 82.4915C58.8132 83.0751 58.034 83.393 57.2127 83.3807C55.562 83.3603 54.2189 81.9575 54.2189 80.2539V66.7731C54.2189 65.6477 53.781 64.5883 52.9839 63.7881C52.1867 62.9911 51.1282 62.5535 49.9999 62.5535C49.9897 62.5535 49.9796 62.5535 49.9697 62.5535C47.6593 62.5693 45.7797 64.5027 45.7797 66.863V80.348C45.7797 81.1577 45.4645 81.9188 44.892 82.4915C44.3183 83.065 43.5565 83.3809 42.7468 83.3809C41.0586 83.3809 39.6322 81.9919 39.6322 80.348V50.2718C39.6322 47.3025 37.2166 44.8869 34.2471 44.8869H22.9209C21.2389 44.8869 19.8705 43.5185 19.8705 41.8365C19.8705 40.1545 21.2389 38.7859 22.9209 38.7859H43.6376C43.6516 38.7859 43.6658 38.7857 43.6798 38.7851H56.2367C56.2507 38.7857 56.2649 38.7859 56.2789 38.7859H76.9956C78.6776 38.7859 80.046 40.1543 80.046 41.8365C80.0464 43.5187 78.6778 44.8871 76.996 44.8871ZM73.1499 29.2979H83.266V32.8255H73.1499V29.2979Z" fill="black"/>
</g>
<defs>
<clipPath id="clip0_6148_4019">
<rect width="100" height="100" fill="white"/>
</clipPath>
</defs>
</svg>
