<svg width="100" height="100" viewBox="0 0 100 100" fill="none" xmlns="http://www.w3.org/2000/svg">
<path d="M88.6885 33.3792C89.4127 33.3792 90 32.7938 90 32.0719V25.5065C90 24.7847 89.4127 24.1993 88.6885 24.1993H74.6995C73.9753 24.1993 73.388 24.7847 73.388 25.5065V32.0719C73.388 32.7938 73.9753 33.3792 74.6995 33.3792H80.3825V34.8272C80.3657 34.827 80.3491 34.8259 80.3322 34.8259H58.0671C61.5154 32.3303 63.7639 28.283 63.7639 23.7199C63.7639 16.1547 57.5895 10 50.0002 10C42.4107 10 36.2363 16.1547 36.2363 23.7199C36.2363 28.2823 38.4842 32.3292 41.9318 34.8251H27.9121C27.8962 34.8251 27.8802 34.8253 27.8645 34.8259H19.6175V33.3792H25.3005C26.0247 33.3792 26.612 32.7938 26.612 32.0719V25.5065C26.612 24.7847 26.0247 24.1993 25.3005 24.1993H11.3115C10.5873 24.1993 10 24.7847 10 25.5065V32.0719C10 32.7938 10.5873 33.3792 11.3115 33.3792H16.9945V35.4038C14.9462 36.3711 13.5257 38.4515 13.5257 40.8569C13.5257 43.2623 14.9462 45.3426 16.9945 46.31V48.1951H11.3115C10.5873 48.1951 10 48.7805 10 49.5024V56.0677C10 56.7896 10.5873 57.375 11.3115 57.375H25.3005C26.0247 57.375 26.612 56.7896 26.612 56.0677V49.5024C26.612 48.7805 26.0247 48.1951 25.3005 48.1951H19.6175V46.8878H32.3014C34.1913 46.8878 35.729 48.4204 35.729 50.3042V83.9887C35.729 87.3033 38.4754 90 41.8514 90C43.4616 90 44.9764 89.3742 46.1163 88.2378C47.2549 87.1028 47.882 85.5938 47.882 83.9887V68.8859C47.882 67.674 48.8251 66.6818 49.9849 66.6739C49.9897 66.6739 49.995 66.6739 50 66.6739C50.5674 66.6739 51.099 66.8927 51.497 67.289C51.8975 67.6897 52.118 68.2209 52.118 68.785V83.883C52.118 87.2148 54.7889 89.9588 58.0717 89.9996C58.0977 89.9998 58.1237 90 58.1495 90C59.76 90 61.2715 89.376 62.4138 88.2378C63.5521 87.1028 64.179 85.5936 64.179 83.9887V50.3039C64.179 48.4201 65.7165 46.8876 67.6066 46.8876H80.3322C80.3491 46.8876 80.3657 46.8865 80.3825 46.8863V48.1949H74.6995C73.9753 48.1949 73.388 48.7803 73.388 49.5021V56.0675C73.388 56.7894 73.9753 57.3748 74.6995 57.3748H88.6885C89.4127 57.3748 90 56.7894 90 56.0675V49.5021C90 48.7803 89.4127 48.1949 88.6885 48.1949H83.0055V46.2651C85.0042 45.2794 86.3823 43.2259 86.3823 40.8566C86.3823 38.4874 85.0042 36.4339 83.0055 35.4482V33.379L88.6885 33.3792ZM12.623 26.8138H23.9891V30.7647H12.623V26.8138ZM23.9891 54.7605H12.623V50.8096H23.9891V54.7605ZM87.3771 54.7605H76.0109V50.8096H87.3771V54.7605ZM38.8592 23.7199C38.8592 17.5966 43.8571 12.6146 50.0002 12.6146C56.1434 12.6146 61.141 17.5964 61.141 23.7199C61.141 29.8435 56.1434 34.8251 50.0002 34.8251C43.8571 34.8251 38.8592 29.8432 38.8592 23.7199ZM80.3322 44.2732H67.6066C64.2704 44.2732 61.5561 46.9787 61.5561 50.3042V83.9887C61.5561 84.8955 61.202 85.7481 60.5589 86.3891C59.9027 87.0427 59.0273 87.3987 58.1045 87.385C56.2498 87.3621 54.7408 85.791 54.7408 83.883V68.785C54.7408 67.5245 54.2487 66.338 53.3532 65.4418C52.4575 64.5492 51.2682 64.0592 50.0004 64.0592C49.9891 64.0592 49.9777 64.0592 49.9666 64.0592C47.3707 64.0768 45.2588 66.2421 45.2588 68.8856V83.9885C45.2588 84.8953 44.9047 85.7476 44.2614 86.3891C43.6168 87.0314 42.7609 87.3852 41.8511 87.3852C39.9543 87.3852 38.3517 85.8296 38.3517 83.9885V50.3039C38.3517 46.9784 35.6376 44.273 32.3012 44.273H19.5755C17.6857 44.273 16.1482 42.7404 16.1482 40.8566C16.1482 38.9729 17.6857 37.4401 19.5755 37.4401H42.852C42.8678 37.4401 42.8837 37.4398 42.8995 37.4392H57.0079C57.0236 37.4398 57.0396 37.4401 57.0553 37.4401H80.3318C82.2216 37.4401 83.7591 38.9726 83.7591 40.8566C83.7596 42.7407 82.2219 44.2732 80.3322 44.2732ZM76.0109 26.8138H87.3771V30.7647H76.0109V26.8138Z" fill="black"/>
</svg>
