<svg width="100" height="100" viewBox="0 0 100 100" fill="none" xmlns="http://www.w3.org/2000/svg">
<path d="M33.1474 24.6829C35.5288 17.7227 42.1528 14.7875 49.4702 14.6719C53.3564 14.8132 57.4649 15.9247 60.3602 18.1309C63.3665 20.4214 65.2359 22.7635 65.9658 26.4219C66.483 29.0116 66.3416 30.52 66.0601 32.4987L65.5398 34.9054C65.9521 34.7423 66.3989 34.686 66.8388 34.7418C67.1494 34.774 67.4496 34.8714 67.7199 35.0277C67.9902 35.184 68.2243 35.3957 68.407 35.6489C68.5984 35.9781 68.709 36.3479 68.7299 36.728C68.8744 38.1823 68.8473 39.6314 68.0896 40.9565C67.7396 41.6133 67.2417 42.1798 66.6353 42.6114C65.9703 43.0251 65.2306 43.3042 64.4581 43.4329L64.3052 43.4535C63.4432 46.8214 60.064 50.8732 54.1788 52.5013C51.3775 53.3373 47.0137 53.4483 43.9328 52.6652C38.4666 51.162 34.9269 46.9491 34.278 43.4491L34.0722 43.4324C33.2998 43.3038 32.5601 43.0249 31.8952 42.6114C31.2891 42.1796 30.7915 41.6129 30.4418 40.9559C29.6841 39.6308 29.6564 38.1809 29.8015 36.7274C29.8223 36.3473 29.9328 35.9775 30.1241 35.6483C30.3068 35.3952 30.5409 35.1836 30.8111 35.0273C31.0813 34.871 31.3815 34.7735 31.692 34.7413C32.3456 34.6533 33.0078 34.8217 33.54 35.2113L33.085 32.6154C32.3077 30.7784 32.2398 28.0005 32.8026 25.8322C32.9049 25.4377 33.0199 25.0546 33.1474 24.6829Z" fill="white"/>
<path d="M30.0375 74.5529C31.0712 73.6007 32.191 72.6019 33.3718 72.1657L33.608 72.0912C32.4475 71.2105 31.4385 70.1462 30.6211 68.9403C30.2586 68.4125 29.1902 65.8687 29.2983 65.2403C29.1772 63.6423 29.3375 62.0354 29.7721 60.4929C30.5829 57.8855 31.9534 54.9888 34.6848 52.7502C36.0232 51.6567 37.3549 50.7285 38.9208 50.2244C40.4225 51.3447 42.121 52.1733 43.9283 52.6673C47.0144 53.4503 51.3782 53.3393 54.185 52.5034C56.1058 51.9846 57.9179 51.1255 59.5353 49.9668C61.5455 50.3599 63.1487 51.4312 64.7588 52.7502C67.4902 54.9888 68.8607 57.8855 69.6729 60.4929C70.1101 62.0349 70.2716 63.6421 70.1499 65.2403C70.121 66.7347 69.2882 68.2101 68.913 68.7253C68.125 69.7979 67.2174 70.7774 66.2079 71.6448C67.0627 71.842 69.8016 74.0374 71.153 75.5999L71.4548 75.8378C71.7006 75.2899 72.0558 74.7981 72.4986 74.3924C72.9402 74.0095 73.4603 73.7279 74.0224 73.5674C74.5844 73.4069 75.1748 73.3714 75.752 73.4634C76.3219 73.5557 76.8638 73.7751 77.3373 74.1054C77.8108 74.4357 78.2039 74.8683 78.4875 75.3712C78.7806 75.9475 78.9499 76.5788 78.9844 77.2244C79.0876 78.5897 78.5933 79.902 77.8628 81.0953C77.219 82.121 76.3322 82.9719 75.2809 83.5728C74.2295 84.1737 73.0462 84.506 71.8357 84.5401C71.412 84.5336 70.9957 84.4283 70.6198 84.2326C70.244 84.0369 69.9189 83.7562 69.6706 83.4128C67.1268 83.9779 65.2097 83.9282 62.5596 83.5255C62.5596 83.5255 55.4904 82.447 51.8193 81.9244C49.6975 81.5931 47.5268 81.788 45.4979 82.4921C39.6096 84.8046 36.3076 85.1333 30.0074 84.3884L29.7886 84.3624C29.4916 84.4831 29.1734 84.5433 28.8529 84.5396C27.6422 84.5056 26.4586 84.1733 25.407 83.5724C24.3555 82.9714 23.4685 82.1203 22.8246 81.0945C22.0942 79.9006 21.5999 78.5888 21.7031 77.2235C21.7373 76.5779 21.9065 75.9465 22.2 75.3703C22.4834 74.8673 22.8765 74.4346 23.3501 74.1044C23.8236 73.7741 24.3655 73.5547 24.9354 73.4625C25.5127 73.3705 26.103 73.4061 26.6651 73.5666C27.2271 73.7271 27.7472 74.0086 28.1889 74.3916C28.5291 74.699 28.8164 75.0604 29.0393 75.4611C29.3622 75.1784 29.6952 74.8679 30.0375 74.5529Z" fill="white"/>
<path d="M39.162 57.1956C39.1285 55.6321 39.5543 54.1547 39.7751 53.2577C39.9524 52.5682 40.1953 51.8973 40.5004 51.2541C41.5806 51.8638 42.7317 52.3379 43.9279 52.666C47.014 53.449 51.3777 53.338 54.1846 52.5021C55.9845 52.0144 57.6904 51.2295 59.2317 50.1797C59.4876 50.5147 59.7143 50.8711 59.9093 51.2449C60.9427 53.4771 61.4324 59.8143 58.1382 61.6331C55.6929 62.9813 53.607 63.2993 51.374 63.5028C49.051 63.6861 46.7138 63.5459 44.4294 63.0863C40.2582 61.993 39.2115 59.501 39.162 57.1956Z" fill="white"/>
<path d="M42.0087 69.6682C42.423 69.573 42.8498 69.5443 43.2731 69.5833C43.5471 69.6118 43.8073 69.7177 44.0233 69.8887C44.2394 70.0597 44.4022 70.2886 44.493 70.5487C44.6349 71.0795 44.238 71.7299 43.6888 71.7235C44.6158 71.9652 45.1159 73.0769 44.9295 74.0164C44.743 74.9559 44.0354 75.7138 43.2456 76.2561C42.8404 76.5734 42.3486 76.7607 41.835 76.7932C41.4842 76.7763 41.1412 76.6839 40.8293 76.5223C39.6322 75.958 38.6612 75.0052 38.0742 73.819" fill="white"/>
<path d="M57.7608 69.5275C57.3554 69.4 56.9324 69.3378 56.5074 69.3431C56.232 69.35 55.9642 69.4352 55.7354 69.5888C55.5066 69.7424 55.3263 69.9579 55.2156 70.2103C55.0323 70.728 55.3766 71.4073 55.9244 71.4446C54.9815 71.612 54.3952 72.6804 54.508 73.6317C54.6207 74.583 55.265 75.3936 56.0094 75.9963C56.3882 76.3446 56.8635 76.5701 57.3729 76.6432C57.7238 76.6539 58.0728 76.5889 58.3962 76.4524C59.6336 75.9842 60.6761 75.1111 61.3542 73.9751" fill="white"/>
<path d="M69.4851 82.7438C67.8156 83.1106 66.0996 83.2178 64.3975 83.0617C63.6147 82.9915 62.8391 82.8724 62.0624 82.7542C59.8088 82.4115 57.5547 82.0727 55.3 81.7378C54.0281 81.549 52.7539 81.3386 51.4759 81.1871C49.9332 81.0079 48.3718 81.0767 46.8508 81.3909C46.1557 81.5432 45.4745 81.7529 44.814 82.0176C43.2946 82.617 41.7353 83.1103 40.1476 83.4939C36.7982 84.2677 33.3953 84.0937 30.0063 83.6962C29.8226 83.6972 29.6467 83.7706 29.5168 83.9005C29.3869 84.0304 29.3135 84.2063 29.3125 84.39C29.3168 84.5726 29.3912 84.7466 29.5204 84.8758C29.6496 85.005 29.8236 85.0795 30.0063 85.0838C33.1204 85.4494 36.2446 85.6232 39.3478 85.0716C40.8463 84.7919 42.3202 84.3932 43.7555 83.8795C44.66 83.5644 45.5396 83.1629 46.4646 82.9094C47.715 82.5752 49.0088 82.4323 50.302 82.4853C51.6335 82.576 52.9589 82.7407 54.272 82.9788C56.6287 83.3256 58.9845 83.679 61.3394 84.0388C62.2315 84.1743 63.123 84.3177 64.0205 84.4128C65.9699 84.6183 67.9398 84.5064 69.8533 84.0816C70.7252 83.8908 70.3563 82.5527 69.4845 82.7438H69.4851Z" fill="#211715"/>
<path d="M29.8988 75.6231C30.5096 75.0669 31.1063 74.4957 31.7451 73.9702C31.8243 73.9054 31.9041 73.8414 31.9845 73.778C32.0134 73.7543 32.0634 73.7178 32.0047 73.7624C32.0495 73.7285 32.0943 73.6947 32.1394 73.6615C32.2995 73.5438 32.4629 73.4302 32.6308 73.3235C32.7933 73.2195 32.9595 73.1212 33.13 73.0322C33.2133 72.9885 33.2977 72.9454 33.383 72.9073C33.4202 72.8899 33.4581 72.8729 33.496 72.8567C33.3575 72.9145 33.544 72.8408 33.5573 72.8359C33.7325 72.7834 33.8806 72.6654 33.971 72.5064C34.0613 72.3473 34.0867 72.1596 34.042 71.9823C33.9912 71.806 33.8735 71.6566 33.7139 71.5661C33.5544 71.4756 33.3658 71.451 33.1884 71.4978C31.5066 72.1311 30.2223 73.4551 28.9177 74.6402C28.789 74.7711 28.7168 74.9472 28.7168 75.1308C28.7168 75.3143 28.789 75.4905 28.9177 75.6213C29.0498 75.7477 29.2255 75.8183 29.4083 75.8183C29.5911 75.8183 29.7668 75.7477 29.8988 75.6213V75.6231Z" fill="#211715"/>
<path d="M66.0219 72.3125C66.043 72.3177 66.2057 72.3819 66.2129 72.3761C66.1864 72.3963 66.0464 72.2966 66.1759 72.3639C66.2109 72.3819 66.2465 72.3986 66.2812 72.4168C66.4633 72.5117 66.6385 72.6192 66.8107 72.7313C67.0226 72.8692 67.2299 73.0146 67.434 73.1649C67.5556 73.2544 67.6762 73.345 67.7959 73.437C67.6967 73.3604 67.8658 73.4922 67.8679 73.4948C67.9309 73.5445 67.9936 73.5945 68.056 73.6448C68.9946 74.382 69.8662 75.2005 70.6608 76.0909C70.7917 76.2194 70.9679 76.2915 71.1514 76.2915C71.3349 76.2915 71.511 76.2194 71.6419 76.0909C71.7687 75.9591 71.8395 75.7832 71.8395 75.6003C71.8395 75.4174 71.7687 75.2416 71.6419 75.1098C70.8165 74.1851 69.9085 73.3375 68.9293 72.5776C68.4636 72.207 67.989 71.8436 67.4886 71.5204C67.1541 71.2811 66.7832 71.0973 66.3901 70.9761C66.2127 70.9272 66.0231 70.9508 65.863 71.0417C65.703 71.1326 65.5856 71.2833 65.5367 71.4607C65.4878 71.6382 65.5113 71.8278 65.6022 71.9879C65.6931 72.1479 65.8439 72.2653 66.0213 72.3142L66.0219 72.3125Z" fill="#211715"/>
<path d="M58.629 50.5269C58.8955 50.8765 59.1302 51.2492 59.3303 51.6406C59.4057 51.7979 59.2765 51.4987 59.3416 51.6675C59.3549 51.7019 59.3684 51.736 59.3812 51.7701C59.4294 51.8988 59.4734 52.0303 59.5138 52.1601C59.675 52.695 59.7941 53.2416 59.8703 53.7951C60.0377 55.009 60.0304 56.2407 59.8486 57.4526C59.6439 58.6361 59.2534 59.777 58.4249 60.5691C58.2359 60.754 58.0211 60.9106 57.7872 61.0342C57.3256 61.2946 56.848 61.5256 56.3572 61.7259C55.4616 62.0853 54.5318 62.3528 53.5822 62.5243C51.6764 62.8683 49.7352 62.9736 47.8034 62.838C46.7332 62.7859 45.6691 62.6457 44.622 62.4188C43.3277 62.1483 42.1345 61.5223 41.1763 60.6113C40.8151 60.2402 40.5201 59.81 40.3042 59.3394C40.2995 59.3298 40.2137 59.1318 40.2692 59.2657C40.2443 59.2058 40.2212 59.1451 40.1989 59.0844C40.1621 58.9838 40.1282 58.8823 40.0972 58.7797C40.0194 58.5166 39.9587 58.2488 39.9154 57.9779C39.8925 57.8417 39.9096 57.949 39.9133 57.9764C39.9023 57.894 39.8937 57.8111 39.8862 57.7284C39.8729 57.5846 39.8638 57.4401 39.859 57.2948C39.85 57.0312 39.8547 56.767 39.8697 56.5036C39.8844 56.2484 39.9096 55.9937 39.9431 55.7402C39.92 55.9162 39.946 55.7255 39.9503 55.6977C39.9622 55.6234 39.9735 55.5491 39.9859 55.4751C40.0073 55.3491 40.0303 55.2233 40.055 55.0976C40.2652 53.8962 40.6159 52.7237 41.1 51.6042C41.1875 51.4441 41.2105 51.2566 41.1642 51.0801C41.118 50.9036 41.0059 50.7515 40.8511 50.6549C40.6918 50.5635 40.503 50.5384 40.3255 50.585C40.1479 50.6315 39.9957 50.7461 39.9018 50.9038C39.3905 52.0549 39.0092 53.2593 38.7649 54.4949C38.5326 55.4928 38.4381 56.5178 38.4839 57.5414C38.5343 58.7132 38.9068 59.8484 39.5604 60.8223C40.4579 62.0174 41.695 62.914 43.1101 63.395C44.2038 63.7707 45.3398 64.0093 46.4922 64.1052C48.5523 64.3411 50.6334 64.3238 52.6892 64.0535C54.7494 63.7858 56.8264 63.2441 58.6189 62.1552C59.8281 61.421 60.5652 60.1519 60.956 58.8237C61.3377 57.4339 61.4667 55.9869 61.337 54.5516C61.2788 53.3182 61.0089 52.1041 60.5392 50.9622C60.3414 50.5599 60.103 50.1789 59.8278 49.825C59.7313 49.6701 59.5792 49.5579 59.4027 49.5116C59.2261 49.4653 59.0385 49.4884 58.8785 49.5761C58.7207 49.67 58.6061 49.8222 58.5595 49.9998C58.513 50.1774 58.5381 50.3662 58.6296 50.5254L58.629 50.5269Z" fill="#211715"/>
<path d="M47.1977 58.8659C46.5301 58.7868 45.8906 58.5513 45.3312 58.1785C45.2383 58.1096 45.1503 58.0344 45.0678 57.9533C45.0195 57.9065 44.9728 57.8583 44.9279 57.8088C44.9057 57.7845 44.8843 57.7593 44.862 57.7348C44.7802 57.6434 44.8721 57.7547 44.8291 57.6969C44.7466 57.5864 44.6716 57.4706 44.6047 57.35C44.5741 57.2954 44.5469 57.2393 44.518 57.1832C44.5039 57.1543 44.4914 57.1269 44.4781 57.0985C44.4304 56.9959 44.5319 57.2477 44.464 57.0635C44.3718 56.8125 44.3017 56.5538 44.2544 56.2906C44.2469 56.2504 44.2408 56.2096 44.235 56.1692C44.2365 56.179 44.2489 56.2848 44.2399 56.2015C44.2333 56.1408 44.2269 56.0799 44.222 56.0189C44.2107 55.8772 44.205 55.7356 44.2038 55.5936C44.2024 55.3269 44.2159 55.0602 44.2443 54.7949C44.2501 54.7371 44.257 54.6813 44.2636 54.6244C44.2437 54.7938 44.2677 54.599 44.2738 54.5596C44.2925 54.4359 44.3142 54.3131 44.3376 54.1902C44.4168 53.7786 44.5238 53.3742 44.6342 52.9701C44.8698 52.1075 43.5317 51.7395 43.2961 52.6012C42.7059 54.7611 42.3471 57.5443 44.32 59.1396C45.0473 59.7106 45.9134 60.078 46.8294 60.204C47.0066 60.2473 47.1936 60.2212 47.3523 60.1312C47.5109 60.0411 47.6291 59.8938 47.6827 59.7195C47.7302 59.5421 47.7061 59.3532 47.6154 59.1935C47.5248 59.0339 47.3749 58.9163 47.1983 58.8662L47.1977 58.8659Z" fill="#211715"/>
<path d="M55.6732 52.7284C55.7021 52.7862 55.7273 52.8489 55.7582 52.9068C55.8007 52.9865 55.7125 52.7839 55.7443 52.8738C55.7585 52.9137 55.7755 52.9527 55.7906 52.9923C55.8463 53.1415 55.8952 53.2929 55.9383 53.4461C55.9897 53.6277 56.0331 53.8108 56.0684 53.9954C56.0876 54.094 56.1044 54.1929 56.1186 54.292C56.1077 54.2162 56.1158 54.2631 56.1207 54.3116C56.1265 54.3694 56.1331 54.4272 56.138 54.4851C56.1557 54.6874 56.164 54.8898 56.1617 55.0921C56.1606 55.2018 56.1561 55.3111 56.1484 55.4202C56.1452 55.469 56.1409 55.5179 56.1363 55.5667C56.1331 55.5991 56.116 55.7327 56.1296 55.639C56.0992 55.8482 56.0538 56.0549 55.9938 56.2576C55.94 56.4559 55.8635 56.6473 55.7657 56.828C55.677 56.9878 55.6533 57.1757 55.6997 57.3525C55.7461 57.5294 55.8589 57.6815 56.0146 57.7772C56.1739 57.8683 56.3626 57.8932 56.5401 57.8466C56.7175 57.8001 56.8697 57.6858 56.9639 57.5284C57.8265 55.8619 57.71 53.6869 56.8714 52.0271C56.7784 51.8682 56.6261 51.7528 56.448 51.7062C56.2699 51.6596 56.0805 51.6857 55.9216 51.7787C55.7628 51.8717 55.6473 52.024 55.6007 52.2021C55.5541 52.3802 55.5802 52.5695 55.6732 52.7284Z" fill="#211715"/>
<path d="M49.6606 40.2765C49.6362 40.2902 49.6111 40.3027 49.5854 40.3137L49.7511 40.2438C49.7113 40.2602 49.6697 40.2716 49.6271 40.2776L49.8115 40.253C49.7702 40.2577 49.7286 40.2571 49.6875 40.2513L49.8719 40.2762C49.8479 40.2727 49.8242 40.2681 49.8005 40.2634C49.7193 40.2475 49.6372 40.2386 49.5551 40.2282C49.4622 40.2241 49.37 40.2447 49.2877 40.288C49.1637 40.3422 49.0578 40.4306 48.9822 40.5429C48.9067 40.6552 48.8648 40.7867 48.8613 40.9219L48.8859 41.1064C48.9178 41.2222 48.9794 41.3277 49.0645 41.4125L49.2047 41.5209C49.3109 41.5833 49.4319 41.616 49.5551 41.6157H49.5591L49.3747 41.5908C49.4036 41.5949 49.4351 41.6018 49.4652 41.6073C49.5412 41.6215 49.6184 41.6302 49.6964 41.6394C49.7144 41.6414 49.7323 41.6429 49.7505 41.6435C49.7698 41.6437 49.7891 41.6427 49.8083 41.6406C49.8786 41.633 49.9502 41.6244 50.0199 41.6117C50.0306 41.6096 50.041 41.6073 50.0514 41.6047C50.0758 41.5985 50.0996 41.5904 50.1228 41.5807C50.2054 41.5503 50.286 41.5145 50.3639 41.4735C50.5145 41.3761 50.6269 41.2297 50.6819 41.059C50.7106 40.9695 50.7149 40.874 50.6943 40.7823C50.6902 40.6906 50.6617 40.6016 50.6119 40.5245L50.5035 40.384C50.4183 40.2993 50.3127 40.2382 50.1968 40.2065L50.0124 40.1816C49.8892 40.1814 49.7683 40.2142 49.662 40.2765H49.6606Z" fill="#211715"/>
<path d="M46.8317 45.2663C47.5691 45.9889 48.7303 46.2034 49.7223 46.2028C50.7144 46.2023 51.8745 45.9883 52.613 45.2663C52.7414 45.1358 52.813 44.9599 52.8122 44.7769C52.8115 44.5939 52.7385 44.4186 52.609 44.2891C52.4796 44.1597 52.3043 44.0867 52.1213 44.0859C51.9383 44.0852 51.7624 44.1568 51.6319 44.2852C51.603 44.3123 51.4715 44.4173 51.5741 44.343C51.6767 44.2687 51.5013 44.3901 51.4648 44.4126C51.4027 44.4508 51.3385 44.4861 51.2735 44.5187C51.2295 44.5407 51.1847 44.5609 51.1402 44.5815C51.2246 44.5427 51.209 44.5546 51.1324 44.5815C50.6824 44.7495 50.204 44.8289 49.7238 44.8153C49.5793 44.8153 49.4376 44.8104 49.2951 44.7994C49.2162 44.7933 49.137 44.7867 49.0586 44.776C49.1485 44.7881 49.0173 44.7676 48.987 44.7621C48.7671 44.7236 48.5508 44.6665 48.3406 44.5913C48.3117 44.5809 48.1464 44.5046 48.3071 44.5815C48.2698 44.5635 48.2322 44.5473 48.1955 44.5291C48.1229 44.4936 48.051 44.4548 47.9827 44.4135C47.9628 44.4011 47.8469 44.3042 47.8292 44.3094C47.872 44.297 47.9631 44.4251 47.8729 44.3398C47.8541 44.3216 47.8342 44.3045 47.8151 44.286C47.6846 44.1577 47.5087 44.0861 47.3257 44.0868C47.1427 44.0876 46.9674 44.1606 46.838 44.29C46.7086 44.4194 46.6355 44.5947 46.6348 44.7777C46.634 44.9608 46.7056 45.1367 46.834 45.2671L46.8317 45.2663Z" fill="#211715"/>
<path d="M41.6269 36.1713C41.3685 37.0079 41.531 38.9304 43.1093 39.0909C45.196 39.0727 45.3128 36.7474 44.6124 35.6562C44.0401 34.7618 42.3499 34.3941 41.6269 36.1713Z" fill="#211715"/>
<path d="M57.3651 36.1713C57.6236 37.0081 57.4614 38.9307 55.8831 39.0909C53.7963 39.0727 53.6795 36.7474 54.3799 35.6562C54.9526 34.7618 56.6425 34.3941 57.3651 36.1713Z" fill="#211715"/>
<path d="M65.3413 35.8116C66.0316 35.3002 67.2292 35.2117 67.7984 35.9778C68.0716 36.346 68.0618 36.9152 68.0875 37.3508C68.1279 37.8836 68.1144 38.4191 68.0473 38.9491C67.9076 39.9648 67.444 40.9084 66.7254 41.6397C66.0455 42.2611 65.1885 42.6544 64.2741 42.7648C64.0973 42.8147 63.9473 42.9322 63.8566 43.092C63.766 43.2517 63.7419 43.4407 63.7896 43.6181C63.8424 43.793 63.9605 43.9409 64.1193 44.0311C64.2782 44.1213 64.4657 44.1469 64.643 44.1026C65.6331 43.9513 66.5649 43.5383 67.3419 42.9063C68.119 42.2743 68.7132 41.4463 69.0631 40.5078C69.4386 39.4572 69.5761 38.3364 69.4658 37.2263C69.3909 36.1186 69.1674 35.0987 68.1554 34.4801C67.6185 34.1629 67.0017 34.0069 66.3786 34.0307C65.7555 34.0545 65.1524 34.257 64.6412 34.6142C64.4865 34.7109 64.3745 34.863 64.3283 35.0395C64.282 35.2159 64.3049 35.4034 64.3923 35.5635C64.4861 35.7214 64.6382 35.836 64.8158 35.8826C64.9934 35.9292 65.1822 35.904 65.3413 35.8124V35.8116Z" fill="#211715"/>
<path d="M33.8909 34.613C33.4391 34.2972 32.9143 34.1018 32.366 34.0454C31.8177 33.9889 31.264 34.0732 30.7574 34.2904C30.2712 34.4894 29.8533 34.8253 29.5543 35.2573C29.2788 35.7226 29.1235 36.2491 29.1025 36.7894C28.8868 38.936 29.2858 41.2165 30.9482 42.7355C31.7749 43.4669 32.7967 43.9416 33.8889 44.1016C34.066 44.1446 34.253 44.1185 34.4115 44.0285C34.5701 43.9384 34.6883 43.7913 34.7422 43.6172C34.7898 43.4398 34.7656 43.2508 34.675 43.0911C34.5843 42.9314 34.4344 42.8139 34.2577 42.7638C33.3626 42.6552 32.5218 42.2764 31.8475 41.6778C31.1067 40.9418 30.6284 39.9827 30.4863 38.9481C30.4191 38.4181 30.4057 37.8826 30.4461 37.3499C30.4712 36.9163 30.462 36.3569 30.7294 35.9875C31.2916 35.2111 32.4976 35.2978 33.1908 35.8112C33.3499 35.9027 33.5387 35.9279 33.7163 35.8813C33.8939 35.8348 34.046 35.7201 34.1398 35.5623C34.2285 35.4025 34.2521 35.2145 34.2058 35.0377C34.1594 34.8609 34.0466 34.7087 33.8909 34.613Z" fill="#211715"/>
<path d="M33.4793 42.5312C33.6091 45.5086 35.497 48.2455 37.6974 50.1271C39.0902 51.3146 40.6787 52.251 42.3922 52.8946C42.8633 53.0776 43.3462 53.229 43.8375 53.3476C44.0421 53.3953 43.8806 53.3693 43.8505 53.3603C43.8999 53.3747 43.9517 53.3846 44.002 53.3964C44.1043 53.4205 44.207 53.4433 44.3101 53.4646C44.5392 53.5128 44.7695 53.556 45.001 53.5941C45.9877 53.7557 46.9841 53.8508 47.9836 53.8789C50.1369 53.9771 52.2923 53.7383 54.372 53.1712C54.5297 53.1226 54.6651 53.0196 54.754 52.8805C54.8429 52.7414 54.8795 52.5753 54.8574 52.4117C54.8352 52.2482 54.7558 52.0978 54.6331 51.9873C54.5104 51.8768 54.3525 51.8135 54.1876 51.8086H54.1821L54.3665 53.1712C58.4811 52.0182 62.4644 49.3755 64.3249 45.4115C64.7234 44.5938 64.9986 43.7216 65.1415 42.8232C65.1843 42.646 65.158 42.4592 65.068 42.3007C64.978 42.1422 64.8311 42.0239 64.657 41.9699C64.4796 41.9223 64.2906 41.9464 64.1308 42.0371C63.9711 42.1277 63.8535 42.2776 63.8034 42.4544C63.312 45.8599 60.6153 48.6887 57.648 50.3479C56.4943 50.9859 55.2689 51.4845 53.9976 51.8334C53.8399 51.882 53.7045 51.9851 53.6156 52.1242C53.5267 52.2632 53.4901 52.4294 53.5122 52.5929C53.5344 52.7565 53.6139 52.9069 53.7365 53.0174C53.8592 53.1278 54.0171 53.1912 54.1821 53.1961H54.1876L54.0031 51.8334C52.3117 52.2979 50.5634 52.5229 48.8094 52.5018C47.8571 52.5084 46.9052 52.455 45.9595 52.3419C45.5837 52.2959 45.208 52.2332 44.8356 52.1589C44.6292 52.1179 44.4252 52.0661 44.2193 52.0222C44.174 52.0127 43.797 51.9066 44.0028 51.9661C43.8557 51.9236 43.7089 51.8808 43.5632 51.8346C40.5783 50.8908 37.8249 48.939 36.1604 46.2619C35.4255 45.1454 34.9809 43.8631 34.8669 42.5312C34.8278 41.6418 33.44 41.6369 33.4793 42.5312Z" fill="#211715"/>
<path d="M37.6952 63.9153C38.9669 65.1243 40.0036 66.5585 40.7527 68.1453C40.8197 68.2866 40.8735 68.4054 40.9275 68.5451C40.9565 68.6188 40.9828 68.6928 41.0079 68.7676C41.0897 69.0116 40.9709 68.9246 41.0524 68.5653C41.0235 68.6905 41.1472 68.4407 41.0854 68.4933C41.0456 68.5463 41.0124 68.604 40.9865 68.665C40.7639 69.0237 40.5023 69.3588 40.2468 69.6955C40.1514 69.821 40.0193 69.9898 39.8531 70.1991C39.6569 70.4479 39.4582 70.6948 39.257 70.9397C38.8992 71.3764 38.5348 71.8078 38.1641 72.2338C37.8926 72.5434 37.6203 72.8565 37.3223 73.1412C37.2737 73.18 37.2278 73.2219 37.1847 73.2667C37.146 73.315 37.3538 73.1696 37.2136 73.2395C37.3515 73.1713 37.6617 73.1623 37.3723 73.1427C37.6085 73.1589 37.2662 73.1204 37.1989 73.1057C36.07 72.827 35.0132 72.3118 34.0983 71.5941C33.429 71.0983 32.8131 70.5341 32.2607 69.9106C31.7431 69.3701 31.3027 68.7605 30.9521 68.0993C30.6804 67.5434 30.4461 66.97 30.2508 66.3828C30.1557 66.1019 30.0774 65.8189 30.0083 65.5309C30.0002 65.4977 29.9794 65.3032 29.9959 65.4916C29.9911 65.4598 29.9883 65.4276 29.9875 65.3954C29.9893 65.2425 29.9834 65.0897 29.9699 64.9375C29.874 63.1634 30.1434 61.3884 30.7616 59.7227C31.3971 57.8748 32.3817 56.1662 33.6618 54.6898C34.4085 53.8699 35.2404 53.132 36.1435 52.4885C37.0432 51.8057 38.0433 51.2664 39.1082 50.89C39.9522 50.6113 39.5906 49.2712 38.7393 49.5522C36.6644 50.2378 34.7612 51.6045 33.2219 53.1366C30.451 56.016 28.8011 59.7915 28.5702 63.7809C28.5161 64.5201 28.5563 65.2632 28.6899 65.9923C28.877 66.719 29.1285 67.4276 29.4415 68.1097C30.1435 69.6547 31.192 71.0172 32.5056 72.0916C33.6384 73.0992 34.9669 73.8622 36.408 74.333C36.8416 74.464 37.4775 74.6765 37.9025 74.4426C38.1881 74.2544 38.4431 74.0233 38.6584 73.7575C39.4709 72.8831 40.2286 71.9529 40.9666 71.0151C41.3135 70.5746 41.6603 70.1315 41.9809 69.6718C42.1942 69.3672 42.4492 69.0307 42.4053 68.6393C42.3281 68.2649 42.1949 67.9043 42.0101 67.5697C41.8271 67.1748 41.6235 66.7897 41.4002 66.4161C40.8806 65.5398 40.2875 64.7093 39.6273 63.9336C39.3301 63.5817 39.0129 63.2472 38.6772 62.9319C38.0256 62.3226 37.0422 63.3017 37.6961 63.913L37.6952 63.9153Z" fill="#211715"/>
<path d="M59.3466 50.6321C61.1782 51.0047 62.7388 51.995 64.1715 53.1602C65.5927 54.3183 66.7702 55.7467 67.6359 57.3627C68.4088 58.7554 68.9633 60.2585 69.2799 61.8195C69.5938 63.5048 69.6958 65.4465 69.0336 67.0595C68.4332 68.5219 67.2769 69.7331 66.1258 70.7832C65.5375 71.3239 64.9071 71.8169 64.2406 72.2575C63.9778 72.4309 63.709 72.5937 63.4329 72.744C63.3217 72.8047 63.2091 72.8625 63.095 72.9174C63.0314 72.9486 62.9672 72.9784 62.9027 73.0079C62.8257 73.0414 62.8197 73.0445 62.8848 73.0172C62.8458 73.0333 62.8068 73.0489 62.7675 73.064C62.5838 73.1323 62.3954 73.1872 62.2038 73.2282C62.4038 73.186 62.2711 73.2282 62.2211 73.2233C62.3226 73.2417 62.4227 73.2672 62.5206 73.2996C62.3821 73.2267 62.6463 73.4282 62.5405 73.3163C62.2917 73.0533 62.0292 72.8047 61.7867 72.5338C61.068 71.7305 60.3818 70.8963 59.7161 70.0478C59.5481 69.8342 59.4721 69.7371 59.2738 69.4697C59.1408 69.2916 59.009 69.1121 58.8838 68.928C58.8217 68.7984 58.7457 68.6759 58.6572 68.5626C58.5867 68.5028 58.7197 68.7413 58.6974 68.66C58.654 68.5037 58.602 69.1668 58.711 68.9069C58.772 68.7624 58.8113 68.6025 58.8665 68.4542C59.4742 66.7422 60.459 65.1888 61.7482 63.9089C62.4009 63.2967 61.4181 62.3167 60.7671 62.9278C59.44 64.1734 58.4687 65.8367 57.764 67.5012C57.5327 68.0475 57.1645 68.6829 57.459 69.263C57.6288 69.5655 57.8234 69.8534 58.0409 70.1236C58.7636 71.0946 59.5282 72.0358 60.3165 72.9536C60.6359 73.3256 60.9579 73.697 61.3013 74.0471C61.5519 74.3026 61.837 74.6038 62.2211 74.6085C62.7704 74.6151 63.3517 74.3324 63.8283 74.0971C64.4838 73.7642 65.1073 73.3718 65.6911 72.9249C67.238 71.8124 68.5783 70.4378 69.6513 68.8632C71.7494 65.6133 70.9232 61.3036 69.4721 57.9712C68.7103 56.1876 67.6231 54.5615 66.266 53.1758C64.8197 51.6798 63.0797 50.4988 61.1553 49.707C60.688 49.5284 60.2066 49.3891 59.7161 49.2908C59.5388 49.2465 59.3513 49.272 59.1924 49.3622C59.0336 49.4525 58.9155 49.6003 58.8627 49.7753C58.8155 49.9526 58.8399 50.1414 58.9305 50.301C59.0211 50.4606 59.1707 50.5782 59.3472 50.6286L59.3466 50.6321Z" fill="#211715"/>
<path d="M42.1931 70.3354C42.6706 70.2525 43.2577 70.136 43.6601 70.4852C43.7983 70.6048 43.9232 71.0153 43.689 71.028C43.5241 71.0332 43.3664 71.0966 43.2438 71.2071C43.1213 71.3176 43.0419 71.468 43.0198 71.6314C42.9977 71.7949 43.0343 71.961 43.123 72.1001C43.2118 72.2391 43.347 72.3422 43.5046 72.391C44.0879 72.563 44.3467 73.2683 44.2622 73.8306C44.1411 74.635 43.4479 75.2973 42.7975 75.7213C42.636 75.8541 42.4497 75.9538 42.2496 76.0145C42.0494 76.0752 41.8393 76.0958 41.6312 76.0752C41.1855 75.958 40.767 75.7551 40.3989 75.4779C39.6611 74.9664 39.067 74.2741 38.6734 73.4672C38.2719 72.6694 37.0746 73.3712 37.4755 74.1676C38.0399 75.2831 38.9095 76.2154 39.9832 76.8559C40.5654 77.2503 41.2495 77.4672 41.9526 77.4806C42.6215 77.4117 43.2555 77.1485 43.7766 76.7235C44.7672 75.9934 45.6431 74.9339 45.6619 73.6438C45.6836 73.0766 45.5211 72.5177 45.1987 72.0505C44.8763 71.5833 44.4114 71.2331 43.8734 71.052L43.689 72.4147C43.9651 72.3927 44.2312 72.3016 44.4629 72.1498C44.6946 71.998 44.8843 71.7903 45.0146 71.5459C45.145 71.3015 45.2117 71.0283 45.2088 70.7513C45.2058 70.4744 45.1332 70.2026 44.9976 69.9611C44.3617 68.78 42.964 68.799 41.8245 68.9965C41.6479 69.0467 41.4981 69.1644 41.4075 69.3241C41.3168 69.4838 41.2926 69.6727 41.3401 69.8501C41.3925 70.0252 41.5105 70.1733 41.6695 70.2636C41.8285 70.3538 42.0161 70.3793 42.1934 70.3346L42.1931 70.3354Z" fill="#211715"/>
<path d="M57.9446 68.8589C56.8008 68.5658 55.3884 68.499 54.7016 69.6749C54.564 69.9103 54.4872 70.1762 54.4779 70.4487C54.4686 70.7212 54.5272 70.9917 54.6484 71.2359C54.7696 71.4801 54.9496 71.6903 55.1722 71.8477C55.3949 72.0051 55.6531 72.1047 55.9238 72.1375L55.7393 70.7745C54.5669 71.0228 53.828 72.193 53.7997 73.3429C53.769 74.5737 54.562 75.6982 55.4743 76.4507C55.9682 76.9112 56.5877 77.2148 57.2543 77.3231C57.9562 77.3496 58.6513 77.178 59.2602 76.8279C60.3766 76.2656 61.3103 75.3976 61.9525 74.3251C62.4171 73.5597 61.2174 72.8616 60.7547 73.625C60.3115 74.3612 59.6933 74.9764 58.9549 75.4158C58.5733 75.6622 58.1504 75.8376 57.7064 75.9335C57.4911 75.9526 57.2742 75.9259 57.07 75.8553C56.8657 75.7846 56.6787 75.6714 56.5213 75.5233C55.9076 75.0524 55.2716 74.3503 55.1915 73.5452C55.1288 72.92 55.4702 72.2479 56.109 72.1126C56.2702 72.0677 56.4094 71.9657 56.5009 71.8257C56.5923 71.6856 56.6296 71.5171 56.606 71.3515C56.5809 71.1873 56.4989 71.0371 56.3744 70.9272C56.2499 70.8172 56.0907 70.7545 55.9246 70.75C55.9824 70.7575 55.8691 70.6179 55.8587 70.5384C55.8624 70.472 55.8818 70.4075 55.9153 70.35C55.9487 70.2926 55.9953 70.2439 56.0512 70.208C56.4848 69.877 57.1069 70.0764 57.5766 70.1967C58.4421 70.4184 58.8112 69.0806 57.9455 68.8589H57.9446Z" fill="#211715"/>
<path d="M71.7238 77.0573C71.9952 76.2176 72.3667 75.3775 73.0711 74.8092C73.7052 74.3152 74.4963 74.0667 75.299 74.1094C76.0729 74.1512 76.8049 74.4741 77.3574 75.0176C77.9532 75.648 78.2887 76.4802 78.2966 77.3475C78.3212 78.2587 78.1129 79.1612 77.6913 79.9694C77.5291 80.3008 77.3456 80.6215 77.1421 80.9294C77.0233 81.1167 76.8887 81.2935 76.7397 81.4578C75.8704 82.4932 74.7117 83.2456 73.4122 83.6186C72.5794 83.8475 71.5946 84.025 70.8196 83.548C70.4424 83.323 70.1529 82.9764 69.9986 82.5652C69.8442 82.154 69.8343 81.7025 69.9703 81.2849C70.2374 80.4307 68.8985 80.0653 68.6325 80.9161C68.4609 81.4738 68.44 82.067 68.572 82.6355C68.704 83.2039 68.9842 83.7272 69.3841 84.1522C69.7712 84.5527 70.2473 84.8564 70.7738 85.0384C71.3003 85.2204 71.8622 85.2757 72.4141 85.1998C74.279 85.0141 76.0207 84.1835 77.3387 82.8511C78.6571 81.5277 79.6107 79.6595 79.6841 77.7788C79.7545 76.5823 79.4022 75.399 78.6889 74.4358C78.0252 73.5996 77.0875 73.0247 76.0413 72.8123C75.4236 72.6887 74.7873 72.6902 74.1702 72.8169C73.553 72.9435 72.9676 73.1927 72.4485 73.5498C71.3726 74.3201 70.7832 75.455 70.3843 76.6885C70.1091 77.54 71.4483 77.9048 71.7224 77.0573H71.7238Z" fill="#211715"/>
<path d="M30.2993 76.6883C29.9556 75.6248 29.4691 74.5625 28.5952 73.8265C27.7292 73.0985 26.6309 72.7049 25.4996 72.7171C24.4121 72.7402 23.3669 73.1425 22.5445 73.8543C21.6757 74.6434 21.1386 75.7326 21.0413 76.9022C20.7939 78.9072 21.6853 80.9679 22.9864 82.4647C24.1382 83.7996 25.6976 84.7178 27.4236 85.0773C28.7198 85.33 29.9622 85.2872 31.019 84.4125C31.516 83.9955 31.879 83.4414 32.0626 82.8192C32.2462 82.1971 32.2423 81.5347 32.0513 80.9147C31.7857 80.0655 30.4458 80.4279 30.7132 81.2836C30.8385 81.665 30.8418 82.076 30.7226 82.4594C30.6034 82.8428 30.3678 83.1795 30.0484 83.4227C29.3887 83.9375 28.5721 83.8898 27.7936 83.7383C26.4379 83.4679 25.1988 82.7855 24.2453 81.7845C23.8987 81.4428 23.6003 81.0554 23.3585 80.6329C22.8643 79.8597 22.5405 78.99 22.4089 78.0819C22.2796 77.148 22.4864 76.1985 22.9925 75.4031C23.4565 74.7708 24.1373 74.3319 24.9047 74.1702C25.3499 74.0786 25.8091 74.0796 26.254 74.173C26.6988 74.2664 27.1196 74.4502 27.4904 74.7131C28.2729 75.2681 28.6756 76.1706 28.9623 77.0545C29.2361 77.9006 30.5762 77.5387 30.3001 76.6857L30.2993 76.6883Z" fill="#211715"/>
<path d="M33.7552 32.4316C33.0354 30.6894 32.9683 28.637 33.3013 26.7986C33.6138 25.1113 34.2472 23.4996 35.167 22.0509C36.8129 19.4522 39.3954 17.614 42.2688 16.589C45.5812 15.3999 49.1459 15.0932 52.6128 15.699C54.6129 16.0313 56.5454 16.6879 58.334 17.6429C59.9529 18.5537 61.4062 19.7316 62.6324 21.1268C65.0117 23.8151 65.8841 27.5305 65.5471 31.0545C65.5066 31.476 65.4517 31.896 65.3922 32.3151C65.3493 32.4923 65.3755 32.6792 65.4655 32.8377C65.5555 32.9962 65.7025 33.1145 65.8766 33.1685C66.054 33.216 66.243 33.1918 66.4027 33.1011C66.5624 33.0105 66.6801 32.8606 66.7302 32.684C66.8806 31.7442 66.9726 30.7959 67.0057 29.8448C67.0132 28.7737 66.9157 27.7046 66.7146 26.6526C66.4021 24.7582 65.676 22.9559 64.588 21.3739C62.2081 18.017 58.5444 15.7279 54.5943 14.7112C52.5312 14.1553 50.3944 13.923 48.26 14.0224C46.472 14.118 44.7003 14.4132 42.9779 14.9023C39.7221 15.8513 36.736 17.6441 34.6611 20.3599C32.3035 23.4474 31.188 27.6056 31.9994 31.4352C32.0966 31.9021 32.2365 32.3591 32.4171 32.8005C32.471 32.9746 32.5893 33.1217 32.7478 33.2118C32.9063 33.3018 33.0932 33.3281 33.2704 33.2852C33.4472 33.2353 33.5973 33.1178 33.6881 32.958C33.7788 32.7982 33.8029 32.6091 33.7552 32.4316Z" fill="#211715"/>
<path d="M47.5625 26.1745C47.5047 26.3916 47.4376 26.6032 47.3647 26.8156C47.3457 26.8639 47.3535 26.8463 47.3882 26.7633C47.3786 26.7859 47.3685 26.8081 47.3593 26.8304C47.3422 26.8674 47.3249 26.9044 47.3066 26.9408C47.263 27.0275 47.2156 27.1142 47.1647 27.1975C47.1138 27.2807 47.0601 27.3628 47.0028 27.442C46.9895 27.4605 46.8993 27.5675 46.9684 27.4892C47.0375 27.4108 46.928 27.5357 46.9144 27.5516C46.7919 27.6942 46.6593 27.8277 46.5175 27.9511C46.4805 27.9832 46.4423 28.0141 46.4047 28.0456C46.3059 28.1286 46.4796 27.9939 46.4094 28.0419C46.3391 28.0898 46.2628 28.1459 46.1868 28.1942C46.1041 28.2468 46.0194 28.2965 45.933 28.3425C45.8514 28.3976 45.7625 28.441 45.6688 28.4711C45.7408 28.4593 45.7682 28.4306 45.676 28.4662C45.6305 28.4839 45.5846 28.5007 45.5381 28.5165C45.4534 28.5454 45.3676 28.5714 45.2809 28.594C45.186 28.6184 45.0905 28.6392 44.9941 28.6561L44.9458 28.6642C44.8687 28.6758 44.8817 28.6742 44.9846 28.6596C44.937 28.6728 44.8875 28.6775 44.8383 28.6735C44.6543 28.6735 44.4778 28.7466 44.3477 28.8767C44.2176 29.0068 44.1445 29.1832 44.1445 29.3672C44.1445 29.5512 44.2176 29.7277 44.3477 29.8578C44.4778 29.9879 44.6543 30.061 44.8383 30.061C45.807 29.9833 46.7258 29.5991 47.4616 28.9643C48.1797 28.3251 48.6826 27.4795 48.9011 26.5433C48.9254 26.4555 48.932 26.3637 48.9208 26.2733C48.9096 26.1829 48.8806 26.0956 48.8356 26.0163C48.7906 25.9371 48.7305 25.8675 48.6586 25.8115C48.5867 25.7555 48.5045 25.7142 48.4167 25.69C48.3288 25.6658 48.2371 25.6591 48.1466 25.6703C48.0562 25.6816 47.9689 25.7105 47.8897 25.7555C47.8104 25.8005 47.7408 25.8606 47.6848 25.9325C47.6288 26.0044 47.5876 26.0866 47.5633 26.1745H47.5625Z" fill="#211715"/>
<path d="M52.1858 26.764C52.1858 26.8423 52.1858 26.9204 52.1815 26.9984C52.1789 27.0452 52.1743 27.0918 52.1705 27.1386C52.1598 27.2698 52.1902 27.0285 52.1748 27.1166C52.1482 27.2782 52.1116 27.438 52.0653 27.595C52.0424 27.6696 52.0167 27.7433 51.989 27.8162C51.9791 27.8422 51.915 27.9532 51.9708 27.8636C52.0265 27.774 51.9589 27.8855 51.9479 27.909C51.8771 28.0571 51.7961 28.2003 51.7057 28.3374C51.6843 28.37 51.662 28.4024 51.6395 28.4342C51.6265 28.453 51.5493 28.5669 51.6106 28.4773C51.6719 28.3877 51.5924 28.4989 51.5773 28.5172C51.5522 28.5461 51.5267 28.577 51.5007 28.6062C51.3918 28.7288 51.2744 28.8436 51.1495 28.9499C51.1316 28.9649 51.0319 29.0577 51.1105 28.984C51.1891 28.9103 51.0888 28.9999 51.0686 29.0129C51.0053 29.0583 50.9402 29.1017 50.8737 29.1421C50.8005 29.187 50.7256 29.2289 50.6491 29.2679C50.6144 29.2855 50.5792 29.302 50.5439 29.319C50.4185 29.38 50.6775 29.2664 50.537 29.3228C50.3621 29.3756 50.2142 29.4936 50.124 29.6525C50.0338 29.8114 50.0082 29.9989 50.0525 30.1761C50.103 30.3525 50.2207 30.502 50.3803 30.5926C50.5398 30.6831 50.7285 30.7076 50.9058 30.6606C51.7091 30.345 52.3971 29.7922 52.8781 29.0756C53.3377 28.3925 53.5803 27.5864 53.5739 26.7631C53.5739 26.5791 53.5008 26.4026 53.3707 26.2725C53.2406 26.1424 53.0642 26.0693 52.8802 26.0693C52.6962 26.0693 52.5197 26.1424 52.3896 26.2725C52.2595 26.4026 52.1864 26.5791 52.1864 26.7631L52.1858 26.764Z" fill="#211715"/>
</svg>
