<svg width="100" height="100" viewBox="0 0 100 100" fill="none" xmlns="http://www.w3.org/2000/svg">
<path d="M40.9923 51.5782C41.6013 51.3859 43.1735 50.9029 43.247 50.8747C44.3697 50.4702 44.3264 49.7477 44.467 48.9408C44.5352 48.5605 44.5875 48.2054 44.6315 47.8376C43.4458 47.2156 42.3752 46.3956 41.4656 45.4131C40.2661 44.1421 39.3257 42.6497 38.6967 41.0192C38.5473 41.0727 38.4482 41.1077 38.4482 41.1077C37.8354 41.316 37.3372 41.0143 36.9374 40.7356C36.4349 40.3617 36.0191 39.8836 35.7185 39.3341C35.0855 38.2494 34.763 37.0114 34.7863 35.7558C34.78 35.4356 34.8411 35.1177 34.9657 34.8228C35.0756 34.6077 35.2324 34.42 35.4245 34.2735C35.6166 34.127 35.8391 34.0255 36.0756 33.9763C36.3535 33.9152 36.6425 33.926 36.9151 34.0075C37.1878 34.089 37.4352 34.2386 37.634 34.4423L38.6883 33.1755C40.6799 30.6614 43.3132 28.174 45.9927 25.626C46.0724 25.8944 46.9344 28.0578 47.0527 28.3475C47.2907 28.1312 50.1123 25.7949 51.1509 24.9463C52.3973 25.0153 53.4897 25.0743 53.4897 25.0743C54.859 25.3895 56.1963 26.356 57.4023 27.6516C58.4238 28.8149 59.2692 30.1218 59.9116 31.5304L60.6438 33.1565C60.8188 32.9849 61.0286 32.853 61.2591 32.7696C61.4895 32.6861 61.7351 32.6532 61.9794 32.673C62.2203 32.6912 62.454 32.7631 62.6634 32.8836C62.8728 33.004 63.0526 33.1698 63.1895 33.3689C63.3511 33.6454 63.4527 33.9528 63.4878 34.2712C63.673 35.5132 63.5133 36.7823 63.0259 37.9397C62.7986 38.5235 62.448 39.0514 61.998 39.4873C61.6378 39.815 61.2673 40.0116 60.7046 39.8794L60.4416 39.8178C60.3583 40.2312 60.2586 40.581 60.2103 40.7672C59.877 41.8988 57.7787 46.093 54.9449 47.4781C54.9834 47.9773 55.0505 48.4753 55.1348 48.9707C55.2711 49.7429 55.2278 50.433 56.3029 50.8202C56.3505 50.8397 57.8215 51.5341 58.756 51.9775C58.756 51.9775 56.3592 56.5131 49.9499 56.5131C43.5406 56.5131 40.9923 51.5782 40.9923 51.5782Z" fill="white" stroke="black" stroke-width="0.00071429"/>
<path d="M38.9276 77.5375C38.3631 78.4207 37.6949 79.2332 36.9375 79.9577C36.7037 80.1701 36.4564 80.3672 36.1973 80.5478C36.2516 80.6506 36.2877 80.7194 36.2877 80.7194C36.6987 81.5271 38.0448 83.5508 38.1459 83.6979C38.3912 84.1086 38.7327 84.4535 39.1409 84.7029C39.5641 84.9261 40.136 84.946 40.5016 84.6365C40.7244 84.4437 40.8377 84.1606 41.0277 83.9393C41.6628 83.1781 42.8541 83.3031 43.8586 83.2603C45.1244 83.2043 46.3446 82.7718 47.363 82.0182L49.3207 81.9604C49.2385 79.7924 49.2659 77.6216 49.4029 75.4563C47.2105 75.2582 42.8528 74.6858 40.7434 74.3271C40.2074 75.435 39.6009 76.5073 38.9276 77.5375Z" fill="white" stroke="black" stroke-width="0.00071429"/>
<path d="M28.3821 59.1729C29.2067 57.0588 30.1362 55.7157 31.8668 54.7447C34.0527 53.5181 37.5419 51.9602 40.1758 51.3089C40.2676 51.2844 40.3644 51.2866 40.455 51.315C40.5456 51.3435 40.6263 51.3971 40.6876 51.4696C42.9269 53.4284 46.0257 54.3655 49.6568 54.3745C52.8424 54.3825 57.2453 53.1631 59.0053 51.8908C59.0702 51.8417 59.1467 51.8102 59.2273 51.7994C59.308 51.7886 59.3901 51.7989 59.4656 51.8291C61.1745 52.4997 64.6183 53.6882 67.9585 55.9054C69.4102 56.8693 70.4862 59.2203 70.8845 60.2887C72.7965 65.7419 73.7355 70.9749 73.903 75.4527C73.9832 77.6029 74.118 79.7682 73.4 81.2788C72.4192 83.3429 70.5046 83.8997 68.7492 84.2047C63.2069 85.1613 53.3189 84.8738 49.6343 84.8217C49.2807 84.754 49.1669 78.0788 49.4066 75.4527C47.2496 75.2621 42.8125 74.6791 40.7423 74.3248C39.9298 75.9952 38.5281 78.5097 36.9386 79.9569C36.5397 80.3279 36.0929 80.6438 35.6102 80.8963C34.3278 81.5128 32.5601 81.9531 31.0181 81.6868C29.0756 81.3523 28.233 80.0125 27.6369 78.5869C25.9881 74.6622 26.117 65.2184 28.3602 59.1721L28.3821 59.1729Z" fill="#66CCFF" stroke="black" stroke-width="0.00071429"/>
<path d="M34.7684 29.755C34.7137 28.6427 34.7695 27.5278 34.9349 26.4265C35.2278 24.7392 35.9008 22.9031 37.0873 21.576C37.5924 21.011 36.4087 20.9054 36.2171 20.8167C36.0812 20.7531 38.5633 17.8599 41.3408 16.8445C42.1594 16.517 42.9953 16.2344 43.8447 15.998C44.2486 15.9061 43.5734 15.1948 43.5717 15.1924C44.2243 14.6808 46.0486 14.5586 46.8771 14.5253C50.3144 14.3875 55.0063 15.7248 56.4085 18.3985L57.9755 19.5086C59.5092 20.0516 61.216 22.2775 61.8217 23.8545C62.7583 26.2814 63.1261 30.402 62.5507 32.8293C62.3714 32.7438 62.1782 32.6915 61.9802 32.6749C61.5407 32.6402 61.1046 32.7752 60.7615 33.0522L59.9125 31.5323C59.2701 30.1237 58.4247 28.8168 57.4032 27.6535C56.1961 26.3579 54.8579 25.3914 53.4895 25.0758L51.2872 24.8379C50.3886 25.5677 47.301 28.1246 47.0525 28.3505C46.934 28.0608 46.0719 25.8974 45.9925 25.629C43.313 28.1761 40.6797 30.6636 38.6881 33.1785L37.727 34.5629C37.5349 34.3193 37.2778 34.1351 36.9853 34.0317C36.6928 33.9284 36.377 33.91 36.0745 33.9789C35.9294 34.0099 35.7895 34.0614 35.659 34.1318C35.1411 33.3849 34.8389 31.5784 34.7684 29.755Z" fill="#645D5C" stroke="black" stroke-width="0.00071429"/>
<path d="M61.0054 33.53C61.1162 33.4203 61.2478 33.3337 61.3924 33.2753C61.5371 33.217 61.6919 33.1881 61.8479 33.1903C62.0038 33.1925 62.1578 33.2258 62.3007 33.2882C62.4437 33.3507 62.5727 33.4409 62.6804 33.5538C62.9134 33.8244 62.9685 34.2205 63.0066 34.5645C63.0541 35.0039 63.0577 35.4471 63.0172 35.8873C62.9439 36.7253 62.6955 37.5387 62.2882 38.2748C62.0042 38.7775 61.5114 39.5193 60.8427 39.3802C60.1905 39.2445 59.9126 40.2454 60.5667 40.3815C62.3745 40.7577 63.4221 38.6804 63.8178 37.2358C64.0635 36.3513 64.1387 35.4282 64.0393 34.5156C63.9415 33.6626 63.6871 32.8253 62.8673 32.4054C62.4481 32.1909 61.9722 32.1132 61.5066 32.1833C61.041 32.2533 60.609 32.4675 60.2714 32.7958C59.7917 33.2627 60.5261 33.9964 61.0054 33.53Z" fill="#211715" stroke="black" stroke-width="0.00071429"/>
<path d="M60.0519 38.4871C60.0605 39.284 59.9231 40.0758 59.6467 40.8233C59.6145 40.914 59.5788 41.0031 59.5433 41.0924C59.5323 41.1249 59.5188 41.1566 59.5031 41.1872C59.4737 41.2536 59.4443 41.32 59.414 41.386C59.287 41.6629 59.1503 41.9352 59.0069 42.2037C58.2902 43.6094 57.3408 44.8837 56.1991 45.9728C55.5917 46.5581 54.8614 47.0005 54.0614 47.2677C53.4228 47.4589 53.6936 48.4613 54.3374 48.269C56.0545 47.7553 57.3797 46.4115 58.4375 45.0225C59.3271 43.8718 60.052 42.6027 60.5912 41.2519C60.9359 40.3713 61.1054 39.4319 61.0905 38.4864C61.0688 37.8197 60.0305 37.8169 60.0521 38.4864L60.0519 38.4871Z" fill="#211715" stroke="black" stroke-width="0.00071429"/>
<path d="M37.7292 33.8398C37.3864 33.5949 36.9813 33.452 36.5607 33.4276C36.1401 33.4032 35.7212 33.4983 35.3525 33.702C34.5458 34.1498 34.272 34.9751 34.264 35.8523C34.2486 37.5467 34.8539 39.3837 36.0278 40.6303C36.6755 41.318 37.6147 41.8999 38.5845 41.6089C39.2231 41.4175 38.9522 40.4149 38.3085 40.6076C37.6163 40.8155 36.9169 40.1289 36.5293 39.6266C35.7844 38.6113 35.3588 37.3972 35.3066 36.1391C35.293 35.7623 35.2694 35.3205 35.4669 34.9833C35.8347 34.356 36.669 34.3369 37.205 34.7365C37.3241 34.8051 37.4654 34.8241 37.5984 34.7893C37.7314 34.7544 37.8453 34.6686 37.9154 34.5504C37.9817 34.4308 37.9993 34.2902 37.9646 34.1579C37.93 34.0256 37.8456 33.9118 37.7292 33.8401V33.8398Z" fill="#211715" stroke="black" stroke-width="0.00071429"/>
<path d="M37.826 40.0806C38.8185 43.4004 41.058 46.5037 44.1425 48.1677C44.9918 48.6372 45.917 48.9539 46.8759 49.1035C47.0085 49.1355 47.1483 49.1158 47.267 49.0484C47.3856 48.981 47.4741 48.871 47.5145 48.7407C47.5501 48.608 47.532 48.4666 47.4642 48.347C47.3963 48.2275 47.2842 48.1396 47.1519 48.1021C45.5401 47.8687 44.0843 47.0746 42.858 46.0235C41.5421 44.8972 40.4634 43.5206 39.6844 41.9736C39.3352 41.2772 39.0481 40.5514 38.8265 39.8045C38.6354 39.166 37.633 39.4368 37.8251 40.0806H37.826Z" fill="#211715" stroke="black" stroke-width="0.00071429"/>
<path d="M50.9216 24.4699C50.1303 25.113 49.3455 25.7644 48.5605 26.4153C47.9349 26.9344 47.2913 27.4385 46.6869 27.9823L47.5548 28.2116C47.1892 27.3167 46.7787 26.4144 46.4948 25.4901C46.4693 25.4036 46.4218 25.3252 46.3571 25.2624C46.2924 25.1996 46.2126 25.1545 46.1255 25.1315C46.0383 25.1085 45.9466 25.1083 45.8594 25.131C45.7721 25.1537 45.6921 25.1984 45.6272 25.261C43.0909 27.6697 40.5024 30.0652 38.3214 32.8092C38.2279 32.9086 38.1758 33.0399 38.1758 33.1763C38.1758 33.3128 38.2279 33.4441 38.3214 33.5434C38.4193 33.6399 38.5511 33.694 38.6885 33.694C38.8259 33.694 38.9578 33.6399 39.0556 33.5434C41.2366 30.7994 43.8263 28.4039 46.3601 25.9948L45.492 25.7657C45.776 26.69 46.1866 27.5923 46.552 28.4872C46.5782 28.5732 46.6259 28.651 46.6907 28.7134C46.7554 28.7758 46.835 28.8205 46.922 28.8435C47.0089 28.8664 47.1002 28.8668 47.1873 28.8445C47.2744 28.8223 47.3544 28.7781 47.4196 28.7163C48.024 28.1722 48.6676 27.6675 49.2932 27.149C50.0784 26.4983 50.863 25.8468 51.6543 25.2037C51.7508 25.1059 51.8049 24.974 51.8049 24.8366C51.8049 24.6992 51.7508 24.5673 51.6543 24.4695C51.5554 24.375 51.4239 24.3223 51.2872 24.3223C51.1504 24.3223 51.0189 24.375 50.9201 24.4695L50.9216 24.4699Z" fill="#211715" stroke="black" stroke-width="0.00071429"/>
<path d="M53.3511 25.5762C54.8242 25.9286 56.0508 26.951 57.0556 28.0423C58.0495 29.1589 58.8621 30.4246 59.4638 31.793C59.5341 31.9111 59.648 31.9969 59.7809 32.0317C59.9138 32.0666 60.0551 32.0477 60.1742 31.9793C60.2907 31.9076 60.375 31.7937 60.4097 31.6614C60.4444 31.5291 60.4268 31.3885 60.3605 31.2689C59.7064 29.7968 58.8198 28.4395 57.7346 27.249C56.6199 26.0582 55.2437 24.9617 53.6273 24.5749C52.9784 24.4196 52.7004 25.4205 53.3511 25.5762Z" fill="#211715" stroke="black" stroke-width="0.00071429"/>
<path d="M56.8561 18.136C55.9355 16.413 54.0375 15.4114 52.2567 14.8047C50.3668 14.1654 48.3699 13.9029 46.3789 14.032C45.8144 14.0644 45.2525 14.1319 44.6964 14.2342C44.2021 14.3 43.7285 14.4741 43.3091 14.7439C43.2421 14.7853 43.1851 14.8411 43.1424 14.9073C43.0997 14.9735 43.0723 15.0483 43.0623 15.1265C43.0522 15.2046 43.0597 15.284 43.0842 15.3589C43.1087 15.4337 43.1497 15.5022 43.204 15.5592C43.2568 15.6165 43.3087 15.6753 43.3554 15.7372C43.2944 15.658 43.4069 15.8168 43.4229 15.8436C43.4389 15.8705 43.4543 15.8971 43.4677 15.925C43.485 15.9605 43.481 15.9519 43.4558 15.8992C43.4702 15.9653 43.4735 15.9481 43.4655 15.8475V15.7586C43.7581 15.538 43.8138 15.4565 43.6325 15.5142C43.5811 15.5231 43.5305 15.536 43.4811 15.5529C43.3729 15.5819 43.2661 15.6135 43.1594 15.6464C42.8605 15.7389 42.565 15.8432 42.2708 15.9492C41.2547 16.2794 40.2775 16.719 39.3563 17.2601C38.5582 17.7689 37.8097 18.3518 37.1209 19.001C36.662 19.4117 36.2437 19.8654 35.8716 20.3561C35.7835 20.4504 35.7259 20.5693 35.7066 20.697C35.6873 20.8247 35.7071 20.9552 35.7635 21.0714C35.9195 21.3414 36.2623 21.3596 36.5316 21.4357C36.5996 21.4538 36.6666 21.4755 36.7324 21.5006C36.8048 21.5294 36.6588 21.4887 36.7304 21.5023C36.8258 21.5207 36.7361 21.561 36.743 21.4974C36.7467 21.4612 36.8148 21.692 36.7309 21.4708C36.7029 21.3947 36.694 21.3131 36.7049 21.2328C36.7157 21.1329 36.743 21.203 36.7049 21.2261C36.7573 21.1932 36.6218 21.3191 36.6035 21.3407C36.2408 21.7678 35.9219 22.2301 35.6517 22.7209C34.6812 24.4849 34.2791 26.4848 34.2354 28.483C34.2119 29.5518 34.2721 30.6209 34.4152 31.6804C34.5316 32.5381 34.688 33.4315 35.0961 34.2055C35.4081 34.7967 36.3045 34.2725 35.9928 33.6813C35.9567 33.6127 35.9223 33.5433 35.8913 33.4721C35.9236 33.5461 35.8435 33.3441 35.831 33.3082C35.7596 33.105 35.7012 32.8972 35.6499 32.6882C35.5465 32.2605 35.4683 31.8271 35.4156 31.3903C35.2865 30.3248 35.2426 29.2508 35.2843 28.1784C35.3652 26.0411 35.9283 23.7151 37.3668 22.041C37.5793 21.8507 37.7092 21.5852 37.729 21.3007C37.7204 21.1672 37.6791 21.0377 37.6086 20.9239C37.5382 20.8101 37.4408 20.7154 37.3251 20.6481C37.0223 20.4534 36.6746 20.448 36.354 20.3152L36.5831 20.4486L36.6597 20.5477L36.7304 20.8097C36.7387 20.885 36.6006 21.1086 36.7088 20.9656C36.7268 20.9419 36.7441 20.9159 36.7605 20.891C36.8306 20.7846 36.7014 20.9583 36.7789 20.8666C36.9351 20.6821 37.0923 20.4988 37.2591 20.3258C37.7653 19.7941 38.3105 19.301 38.8902 18.8507C39.5663 18.317 40.3032 17.8651 41.0854 17.5043C41.5282 17.3049 41.9961 17.1526 42.4521 16.9862C42.9321 16.8112 43.4136 16.6436 43.9086 16.5162C44.0204 16.4954 44.1256 16.448 44.2153 16.3781C44.305 16.3081 44.3766 16.2176 44.424 16.1142C44.4714 16.0108 44.4932 15.8975 44.4876 15.7839C44.4821 15.6703 44.4493 15.5597 44.392 15.4614C44.2748 15.227 44.1215 15.0125 43.9378 14.8256L43.8328 15.6412C44.4221 15.2001 45.3973 15.1464 46.1524 15.0865C47.0182 15.0159 47.8885 15.022 48.7532 15.1047C50.5993 15.2873 52.5031 15.8015 54.0885 16.7861C54.8663 17.2352 55.5118 17.8817 55.9597 18.6601C56.2747 19.2496 57.1711 18.725 56.8561 18.136Z" fill="#211715" stroke="black" stroke-width="0.00071429"/>
<path d="M57.8378 20.0089C58.641 20.304 59.3294 21.0092 59.8799 21.6605C60.4842 22.354 60.9711 23.1416 61.3214 23.9922C62.0137 25.7762 62.2663 27.7622 62.3033 29.665C62.344 30.6803 62.2591 31.6968 62.0504 32.6913C61.899 33.3402 62.9001 33.6188 63.0516 32.9673C63.5229 30.9395 63.3944 28.7577 63.0773 26.7174C62.9376 25.7373 62.7005 24.7735 62.3697 23.8404C61.9931 22.8652 61.4624 21.9568 60.7979 21.1498C60.0856 20.257 59.2032 19.4073 58.1139 19.0069C57.9811 18.9715 57.8398 18.9897 57.7203 19.0576C57.6009 19.1255 57.5129 19.2375 57.4753 19.3697C57.4416 19.5023 57.4605 19.6429 57.5281 19.7619C57.5957 19.8809 57.7067 19.9692 57.8378 20.0083V20.0089Z" fill="#211715" stroke="black" stroke-width="0.00071429"/>
<path d="M54.4258 47.4783C54.4885 48.2252 54.5901 48.9684 54.7301 49.7048C54.7744 49.9972 54.8843 50.2757 55.0514 50.5196C55.2186 50.7635 55.4387 50.9665 55.6954 51.1133C55.7633 51.1514 55.8334 51.1838 55.9045 51.2152C55.898 51.2124 56.199 51.337 56.0523 51.2734C56.0956 51.2926 56.1399 51.314 56.1836 51.3344C56.3825 51.4274 56.581 51.5211 56.7793 51.6156C57.3513 51.8854 57.923 52.1558 58.4945 52.4268C58.6143 52.4926 58.7547 52.5099 58.8869 52.4753C59.019 52.4406 59.1329 52.3566 59.2049 52.2405C59.2732 52.1213 59.2919 51.9801 59.2571 51.8472C59.2223 51.7144 59.1366 51.6005 59.0187 51.5301C58.1508 51.1191 57.2881 50.6865 56.4064 50.3075C56.2867 50.2593 56.173 50.1972 56.0676 50.1225C56.0378 50.1009 56.0365 50.1009 56.0638 50.1191C56.0374 50.0975 56.012 50.0728 55.9876 50.0479C55.9632 50.023 55.9417 49.9997 55.9201 49.9742C55.9465 50.0092 55.9493 50.0122 55.9288 49.9828C55.8984 49.9373 55.8706 49.8902 55.8455 49.8415C55.8022 49.7587 55.8535 49.8922 55.8178 49.7732C55.7851 49.6681 55.7577 49.5614 55.7358 49.4535C55.6089 48.8009 55.5182 48.1418 55.4641 47.4791C55.4608 47.3425 55.405 47.2124 55.3084 47.1157C55.2117 47.0191 55.0816 46.9633 54.9449 46.96C54.8076 46.961 54.6762 47.0161 54.579 47.1132C54.4819 47.2103 54.4269 47.3418 54.4258 47.4791V47.4783Z" fill="#211715" stroke="black" stroke-width="0.00071429"/>
<path d="M59.2667 52.3389C59.3404 52.2922 59.5241 52.4064 59.6108 52.44C59.7884 52.5083 59.966 52.5764 60.1439 52.6442C60.5198 52.788 60.8958 52.9327 61.27 53.0816C62.2112 53.4554 63.1414 53.8562 64.0538 54.2964C65.1546 54.824 66.2236 55.4155 67.2553 56.0679C67.6628 56.3116 68.0369 56.6071 68.3683 56.947C68.6737 57.2805 68.9475 57.6417 69.1862 58.0258C69.666 58.7832 70.0668 59.5877 70.3825 60.4269C70.4223 60.5576 70.5107 60.6681 70.6295 60.7356C70.7484 60.8031 70.8886 60.8224 71.0212 60.7897C71.1534 60.7521 71.2655 60.664 71.3334 60.5445C71.4012 60.425 71.4193 60.2836 71.3838 60.1509C70.7363 58.4251 69.7845 56.5191 68.2193 55.4567C66.1945 54.0833 63.9478 53.0409 61.6823 52.1343C61.2254 51.9517 60.7664 51.7752 60.307 51.5996C59.7954 51.4038 59.2686 51.1083 58.7421 51.4421C58.1797 51.7992 58.6988 52.698 59.266 52.3385L59.2667 52.3389Z" fill="#211715" stroke="black" stroke-width="0.00071429"/>
<path d="M40.3193 51.8368C44.5181 55.4809 50.7431 55.4431 55.7933 53.8854C56.9873 53.5176 58.2409 53.0716 59.266 52.3391C59.3821 52.2671 59.4661 52.1533 59.5008 52.0212C59.5354 51.889 59.5181 51.7487 59.4523 51.629C59.3821 51.5109 59.2683 51.4251 59.1354 51.3903C59.0025 51.3554 58.8612 51.3743 58.7421 51.4427C57.8888 52.0087 56.9561 52.445 55.9747 52.7374C54.7575 53.1417 53.5088 53.4445 52.2415 53.6427C49.6565 54.0763 47.0048 53.8772 44.5135 53.0623C43.2449 52.6369 42.0699 51.9716 41.0524 51.1026C40.5499 50.6665 39.8125 51.3979 40.3182 51.8368H40.3193Z" fill="#211715" stroke="black" stroke-width="0.00071429"/>
<path d="M41.1303 52.0785C41.8273 51.8588 42.5267 51.6459 43.2237 51.427C43.5957 51.3211 43.9423 51.1405 44.2423 50.8964C44.5631 50.6013 44.7779 50.2088 44.8534 49.7795C44.9735 49.2043 45.0505 48.6114 45.1268 48.0299C45.1262 47.8924 45.0713 47.7607 44.9741 47.6635C44.8769 47.5663 44.7452 47.5114 44.6077 47.5107C44.471 47.5141 44.3409 47.5699 44.2443 47.6665C44.1476 47.7632 44.0919 47.8933 44.0885 48.0299C44.0355 48.4344 43.9553 48.9153 43.8811 49.3495C43.8527 49.5158 43.7999 49.6711 43.7601 49.8336C43.7433 49.9019 43.8034 49.7522 43.7692 49.8137C43.7601 49.8299 43.7532 49.8479 43.7448 49.8645C43.7277 49.8983 43.7091 49.9316 43.6892 49.9636C43.6634 50.0051 43.6243 50.0525 43.6807 49.9852C43.6463 50.027 43.6098 50.067 43.5713 50.1051C43.5404 50.1349 43.5081 50.1637 43.4744 50.1903C43.5499 50.131 43.4331 50.2132 43.4075 50.2288C43.3643 50.2552 43.3193 50.2798 43.2738 50.3028C43.2397 50.3232 43.2034 50.34 43.1657 50.3527C43.09 50.3817 43.0127 50.4055 42.9355 50.4298C42.6214 50.5286 42.3067 50.6255 41.9922 50.7231C41.6125 50.8408 41.2329 50.958 40.8539 51.0776C40.7881 51.0958 40.7266 51.1266 40.6728 51.1685C40.619 51.2104 40.574 51.2625 40.5404 51.3218C40.5067 51.3811 40.485 51.4465 40.4766 51.5141C40.4682 51.5818 40.4732 51.6505 40.4913 51.7162C40.5095 51.7819 40.5404 51.8435 40.5823 51.8973C40.6242 51.951 40.6762 51.9961 40.7355 52.0297C40.7948 52.0634 40.8602 52.0851 40.9278 52.0935C40.9955 52.1019 41.0642 52.0969 41.1299 52.0788L41.1303 52.0785Z" fill="#211715" stroke="black" stroke-width="0.00071429"/>
<path d="M28.8812 59.3112C29.1998 58.4468 29.6321 57.6287 30.1668 56.8784C30.662 56.226 31.2827 55.6793 31.9925 55.2705C33.727 54.2767 35.5416 53.4297 37.4174 52.7385C37.9625 52.5317 38.5126 52.3377 39.0687 52.1623C39.3174 52.0838 39.5673 52.0095 39.8187 51.9394C39.9455 51.9041 40.0726 51.8702 40.2001 51.8378C40.218 51.8332 40.356 51.822 40.2966 51.8116C40.2803 51.8088 40.3002 51.8192 40.3182 51.8369C40.8043 52.2951 41.5397 51.5622 41.0524 51.1027C40.565 50.6433 40.043 50.7968 39.4642 50.9599C38.9346 51.1092 38.4109 51.2792 37.892 51.462C36.803 51.846 35.7333 52.286 34.6803 52.7599C33.7001 53.2006 32.7334 53.6732 31.7911 54.192C30.9559 54.6326 30.2105 55.2256 29.5935 55.9405C28.8592 56.8731 28.2803 57.9183 27.8792 59.0356C27.8436 59.1683 27.8616 59.3097 27.9295 59.4292C27.9973 59.5487 28.1095 59.6367 28.2417 59.6741C28.3744 59.7075 28.5148 59.6885 28.6337 59.621C28.7527 59.5534 28.841 59.4426 28.8803 59.3116L28.8812 59.3112Z" fill="#211715" stroke="black" stroke-width="0.00071429"/>
<path d="M65.9174 73.7692C63.989 73.7476 62.06 73.7595 60.1318 73.7714C57.6538 73.7865 55.1759 73.8118 52.6986 73.8692C51.6538 73.8934 50.6085 73.92 49.565 73.9773C49.4525 73.9816 49.344 74.0205 49.2545 74.0887C49.1649 74.157 49.0985 74.2512 49.0645 74.3585C48.9441 74.7383 48.8813 75.134 48.8782 75.5324C48.825 76.155 48.8016 76.7802 48.7848 77.4047C48.7432 78.9395 48.7497 80.4754 48.8042 82.0123C48.8259 82.6303 48.8533 83.2492 48.9113 83.8651C48.9461 84.2358 48.9496 84.6907 49.1345 85.0276C49.297 85.3239 49.5771 85.343 49.8834 85.3477C50.217 85.3529 50.5506 85.3586 50.8841 85.3648C51.7103 85.3792 52.5366 85.3922 53.3629 85.4037C57.5686 85.4572 61.7994 85.4686 65.9903 85.0793C66.9391 84.9908 67.8875 84.8789 68.8269 84.7189C69.8006 84.5816 70.746 84.2895 71.6274 83.8536C72.5964 83.3424 73.3752 82.533 73.8488 81.545C74.384 80.4122 74.4809 79.1313 74.4876 77.8951C74.4836 72.5791 73.6679 67.2949 72.0687 62.2251C71.854 61.5306 71.6262 60.8402 71.3853 60.1539C71.3459 60.023 71.2576 59.9123 71.1386 59.8447C71.0197 59.7772 70.8794 59.7581 70.7468 59.7913C70.6147 59.829 70.5027 59.917 70.4348 60.0365C70.367 60.1559 70.3487 60.2972 70.384 60.4299C72.086 65.2971 73.1907 70.3964 73.388 75.5575C73.4371 76.8442 73.5208 78.1488 73.3664 79.4316C73.2418 80.4699 72.8756 81.465 72.1258 82.2139C70.8558 83.4841 68.8533 83.7149 67.1773 83.9159C63.1213 84.4026 59.0028 84.4104 54.9235 84.3818C53.3164 84.3706 51.71 84.3403 50.1032 84.3139C49.9614 84.2896 49.8166 84.2873 49.674 84.3072C49.8082 84.2503 50.0059 84.4679 50.0442 84.5302C49.9955 84.4508 50.0703 84.665 50.0671 84.5897C50.0472 84.459 50.0198 84.3295 49.9851 84.2019C49.9663 84.0913 49.9983 84.325 49.9834 84.1876C49.9778 84.1363 49.9713 84.0851 49.9656 84.0338C49.9527 83.9114 49.9413 83.7888 49.9315 83.666C49.9077 83.3773 49.8901 83.0883 49.8754 82.799C49.801 81.3475 49.7863 79.8919 49.803 78.4391C49.8108 77.7489 49.8268 77.0584 49.8614 76.3687C49.8752 76.0901 49.8921 75.8117 49.9159 75.5337C49.9258 75.4182 49.9375 75.3027 49.9498 75.1876C49.9555 75.1368 49.9622 75.086 49.9685 75.0362C49.9531 75.1623 49.9613 75.0823 49.9736 75.0109C49.9901 74.8832 50.0207 74.7578 50.0649 74.6369L49.5644 75.018C51.643 74.9045 53.7281 74.8831 55.8093 74.8543C58.2446 74.8207 60.6801 74.8029 63.1157 74.8011C64.0493 74.8011 64.9832 74.8011 65.9168 74.8102C66.585 74.8175 66.5857 73.7792 65.9168 73.7718L65.9174 73.7692Z" fill="#211715" stroke="black" stroke-width="0.00071429"/>
<path d="M35.8397 80.9812C36.1965 81.6758 36.6345 82.3325 37.0581 82.9875C37.4295 83.5614 37.7914 84.2024 38.2751 84.6893C38.6722 85.1161 39.2227 85.3678 39.8053 85.3889C40.4512 85.393 40.9085 85.0445 41.2492 84.5236C41.3606 84.3397 41.5126 84.1838 41.6936 84.0678C41.8746 83.9517 42.0798 83.8787 42.2934 83.8543C42.7877 83.7956 43.2855 83.7715 43.7832 83.7821C45.1666 83.7375 46.5049 83.279 47.625 82.466C47.7408 82.3937 47.8247 82.2799 47.8593 82.1479C47.8939 82.0159 47.8767 81.8756 47.8113 81.7558C47.7411 81.6376 47.6272 81.5518 47.4943 81.517C47.3613 81.4821 47.22 81.501 47.1009 81.5696C46.2109 82.236 45.1512 82.6381 44.0432 82.7299C43.0821 82.8002 42.0128 82.6466 41.1465 83.1669C40.9517 83.283 40.7782 83.4315 40.6334 83.606C40.4733 83.8007 40.3478 84.1271 40.1348 84.269C39.8198 84.479 39.3828 84.2852 39.131 84.0698C38.6835 83.6869 38.3726 83.1063 38.0542 82.6165C37.5785 81.9195 37.1386 81.1987 36.7364 80.4568C36.4309 79.8624 35.5347 80.3869 35.8397 80.9809V80.9812Z" fill="#211715" stroke="black" stroke-width="0.00071429"/>
<path d="M49.1642 74.8886C47.8072 74.7834 46.4543 74.6074 45.1049 74.4319C43.7884 74.2604 42.4691 74.0858 41.1623 73.8496C41.0297 73.8168 40.8895 73.8361 40.7707 73.9036C40.6518 73.971 40.5634 74.0814 40.5235 74.2121C40.4881 74.3449 40.5063 74.4863 40.5742 74.6058C40.6421 74.7253 40.7541 74.8133 40.8863 74.8509C43.1066 75.252 45.3585 75.5246 47.6002 75.7735C48.1209 75.8315 48.642 75.8864 49.1642 75.9269C49.3015 75.9257 49.4329 75.8706 49.53 75.7735C49.6271 75.6764 49.6822 75.5451 49.6833 75.4077C49.6807 75.2709 49.6251 75.1404 49.5283 75.0436C49.4315 74.9468 49.301 74.8912 49.1642 74.8886Z" fill="#211715" stroke="black" stroke-width="0.00071429"/>
<path d="M65.4697 60.8981C65.1453 64.6242 64.7481 68.3459 64.3365 72.0632C64.259 72.7623 64.1829 73.4619 64.0918 74.1593C64.0924 74.2968 64.1473 74.4285 64.2445 74.5257C64.3418 74.6229 64.4735 74.6778 64.611 74.6785C64.7476 74.6751 64.8777 74.6193 64.9743 74.5226C65.0709 74.426 65.1267 74.2959 65.1301 74.1593C65.5926 70.619 65.9156 67.0554 66.2632 63.5023C66.3482 62.6347 66.4322 61.7666 66.5081 60.8981C66.507 60.7607 66.452 60.6293 66.3548 60.5322C66.2577 60.435 66.1263 60.38 65.9889 60.3789C65.8521 60.3817 65.7216 60.4373 65.6249 60.534C65.5281 60.6308 65.4725 60.7612 65.4697 60.8981Z" fill="#211715" stroke="black" stroke-width="0.00071429"/>
<path d="M36.4082 62.882C37.0179 62.0295 37.5742 61.14 38.0739 60.2187C38.3049 59.5799 38.3295 58.8613 38.5225 57.7831C38.9078 55.6399 38.6153 55.1341 39.1955 53.4568C39.7557 51.9789 40.3203 51.3286 41.2072 50.0508C41.503 49.6249 42.6265 48.6774 43.1909 48.266C44.0272 47.7016 44.8914 47.1795 45.78 46.7018C46.61 46.2949 47.4024 46.0422 48.3248 46.0961C48.7698 46.1227 49.2634 46.3124 49.4129 46.7331C49.5401 47.0909 49.4713 47.6058 49.1394 47.7899C48.2357 48.2913 47.2235 48.6235 46.4891 49.0676C45.4694 49.6839 44.894 50.2611 43.9798 51.0762C43.9798 51.0762 43.924 51.1259 43.8284 51.2103C44.8258 51.0731 46.1733 50.9968 46.9267 51.1778C47.0763 51.2179 47.2216 51.2724 47.3607 51.3405C47.5722 51.4513 48.1083 51.7487 48.3081 51.8789C49.1793 52.4461 49.9965 52.959 50.3554 53.6845C50.4993 54.0127 50.5142 54.383 50.3971 54.7216C50.2875 54.944 50.0246 55.2102 49.4488 55.1663C49.7034 55.3684 49.7471 55.8622 49.7001 56.2559C49.6569 56.6096 49.2435 57.0611 48.5865 57.1091C48.8589 57.8061 48.3287 58.6794 47.7293 58.5273C47.5346 58.4777 47.1054 58.3326 46.7067 58.2506L46.6475 58.3144C46.437 58.5411 46.3039 59.2807 46.239 59.5829C46.0485 60.4709 45.706 61.4169 44.9227 61.8759C44.5524 62.0922 44.1195 62.1772 43.7297 62.3572C43.362 62.5277 43.041 63.4291 42.8666 63.9681L42.4894 65.5931" fill="white"/>
<path d="M36.4082 62.882C37.0179 62.0295 37.5742 61.14 38.0739 60.2187C38.3049 59.5799 38.3295 58.8613 38.5225 57.7831C38.9078 55.6399 38.6153 55.1341 39.1955 53.4568C39.7557 51.9789 40.3203 51.3286 41.2072 50.0508C41.503 49.6249 42.6265 48.6774 43.1909 48.266C44.0272 47.7016 44.8914 47.1795 45.78 46.7018C46.61 46.2949 47.4024 46.0422 48.3248 46.0961C48.7698 46.1227 49.2634 46.3124 49.4129 46.7331C49.5401 47.0909 49.4713 47.6058 49.1394 47.7899C48.2357 48.2913 47.2235 48.6235 46.4891 49.0676C45.4694 49.6839 44.894 50.2611 43.9798 51.0762C43.9798 51.0762 43.924 51.1259 43.8284 51.2103C44.8258 51.0731 46.1733 50.9968 46.9267 51.1778C47.0763 51.2179 47.2216 51.2724 47.3607 51.3405C47.5722 51.4513 48.1083 51.7487 48.3081 51.8789C49.1793 52.4461 49.9965 52.959 50.3554 53.6845C50.4993 54.0127 50.5142 54.383 50.3971 54.7216C50.2875 54.944 50.0246 55.2102 49.4488 55.1663C49.7034 55.3684 49.7471 55.8622 49.7001 56.2559C49.6569 56.6096 49.2435 57.0611 48.5865 57.1091C48.8589 57.8061 48.3287 58.6794 47.7293 58.5273C47.5346 58.4777 47.1054 58.3326 46.7067 58.2506L46.6475 58.3144C46.437 58.5411 46.3039 59.2807 46.239 59.5829C46.0485 60.4709 45.706 61.4169 44.9227 61.8759C44.5524 62.0922 44.1195 62.1772 43.7297 62.3572C43.362 62.5277 43.041 63.4291 42.8666 63.9681L42.4894 65.5931" stroke="black" stroke-width="0.00071429"/>
<path d="M39.6982 53.5942C39.9384 52.9702 40.2442 52.3734 40.6104 51.8139C40.7962 51.529 40.9933 51.2515 41.1904 50.9744C41.292 50.8313 41.3935 50.6881 41.4947 50.5448C41.549 50.4676 41.6029 50.389 41.6574 50.3122C41.6622 50.3055 41.7024 50.2532 41.6671 50.298C41.6319 50.3427 41.695 50.2666 41.702 50.2595C42.3985 49.5161 43.1871 48.8646 44.0486 48.3208C45.0302 47.6985 46.0604 46.9965 47.2021 46.7153C47.569 46.6204 47.9491 46.5868 48.327 46.6158C48.5164 46.6331 48.8052 46.6865 48.9095 46.868C48.9556 46.9469 48.9735 47.0391 48.9603 47.1294C48.9471 47.2198 48.9037 47.3031 48.837 47.3655C48.4926 47.5747 48.1286 47.7499 47.7502 47.8886C46.9782 48.2028 46.2416 48.5978 45.5527 49.0669C44.8785 49.5807 44.2314 50.1291 43.614 50.7098C43.1145 51.1559 43.8509 51.8881 44.3482 51.444C44.9184 50.9007 45.5187 50.3898 46.1462 49.9138C46.8439 49.4515 47.586 49.0602 48.3616 48.7457C48.7572 48.5694 49.2322 48.4045 49.5645 48.1211C49.7073 47.9885 49.8197 47.8265 49.8938 47.6463C49.9679 47.4661 50.0021 47.2719 49.9939 47.0772C49.9805 46.1715 49.24 45.6599 48.4014 45.5829C46.8655 45.442 45.4789 46.2305 44.2149 46.9965C43.1769 47.6077 42.2091 48.3311 41.329 49.1536C40.8003 49.7107 40.3302 50.3206 39.926 50.9737C39.425 51.7035 39.0126 52.4903 38.6975 53.3176C38.6619 53.4503 38.68 53.5917 38.7479 53.7112C38.8157 53.8306 38.9279 53.9186 39.0601 53.9561C39.1927 53.9896 39.3332 53.9706 39.4521 53.9031C39.5711 53.8355 39.6594 53.7247 39.6986 53.5936L39.6982 53.5942Z" fill="#211715" stroke="black" stroke-width="0.00071429"/>
<path d="M43.3243 51.8177C43.8996 51.7085 44.4818 51.6393 45.0667 51.6104C45.6409 51.5511 46.2207 51.5741 46.7884 51.6788C47.2786 51.8028 47.7487 52.1331 48.1679 52.4069C48.7277 52.7714 49.394 53.1467 49.7727 53.7163C49.8505 53.8226 49.9058 53.9437 49.9353 54.072C49.9647 54.2004 49.9677 54.3335 49.9441 54.463C49.9395 54.4876 49.9295 54.5109 49.9149 54.5312C49.9003 54.5515 49.8814 54.5683 49.8595 54.5805C49.7334 54.6468 49.5891 54.6703 49.4485 54.6476C49.3467 54.6496 49.2476 54.6813 49.1635 54.7387C49.0794 54.7961 49.0138 54.8768 48.9748 54.9708C48.9358 55.0649 48.925 55.1683 48.9438 55.2684C48.9627 55.3685 49.0102 55.461 49.0807 55.5345C49.2322 55.6729 49.2352 56.1094 49.1634 56.2613C49.2092 56.164 49.081 56.3673 49.1201 56.3199C49.0559 56.4009 48.975 56.467 48.8829 56.5138C48.7908 56.5605 48.6897 56.5869 48.5865 56.591C48.4499 56.5947 48.32 56.6506 48.2235 56.7471C48.1269 56.8437 48.071 56.9736 48.0673 57.1101C48.0682 57.2476 48.1232 57.3791 48.2204 57.4762C48.3175 57.5734 48.449 57.6284 48.5865 57.6293C49.2445 57.5629 49.8982 57.238 50.1455 56.5858C50.3516 56.0424 50.261 55.205 49.8158 54.8003L49.4481 55.6872C50.2997 55.7285 50.9789 55.1957 50.995 54.3201C51.0118 53.4037 50.3828 52.7329 49.7005 52.2086C49.0779 51.7366 48.4181 51.3158 47.7277 50.9502C47.0755 50.5996 46.3538 50.5468 45.6253 50.5544C44.7601 50.5634 43.8975 50.6513 43.0483 50.817C42.9162 50.8547 42.8042 50.9427 42.7364 51.0622C42.6686 51.1816 42.6503 51.3228 42.6855 51.4556C42.7245 51.5868 42.8128 51.6979 42.9319 51.7655C43.0509 51.8331 43.1916 51.8521 43.3243 51.8183V51.8177Z" fill="#211715" stroke="black" stroke-width="0.00071429"/>
<path d="M49.7115 54.7188C49.0017 54.2096 48.2421 53.7738 47.4443 53.4181C46.554 53.0722 45.6191 52.8545 44.6676 52.7715C44.5302 52.7723 44.3986 52.8273 44.3014 52.9245C44.2043 53.0217 44.1493 53.1532 44.1484 53.2907C44.1515 53.4274 44.2072 53.5576 44.3039 53.6543C44.4006 53.751 44.5309 53.8067 44.6676 53.8098C45.4966 53.8844 46.3105 54.0781 47.0843 54.3848C47.8236 54.7257 48.5279 55.1378 49.1874 55.6152C49.3066 55.6834 49.4478 55.7021 49.5806 55.6673C49.7135 55.6325 49.8274 55.5469 49.8978 55.429C49.9646 55.3095 49.9825 55.1688 49.9478 55.0363C49.913 54.9039 49.8284 54.7901 49.7115 54.7188Z" fill="#211715" stroke="black" stroke-width="0.00071429"/>
<path d="M48.849 56.6617C48.3331 56.2976 47.7928 55.9695 47.232 55.6796C46.5389 55.3706 45.7988 55.1804 45.0426 55.1172C44.9052 55.1182 44.7738 55.1732 44.6766 55.2704C44.5795 55.3675 44.5245 55.499 44.5234 55.6364C44.5263 55.7732 44.5819 55.9036 44.6786 56.0003C44.7754 56.0971 44.9058 56.1527 45.0426 56.1555C45.1659 56.1644 45.2886 56.1797 45.4103 56.2012C45.5729 56.2284 45.734 56.2621 45.8936 56.3022C46.2126 56.3803 46.5231 56.4898 46.8205 56.6293C47.3396 56.9103 47.8422 57.2208 48.3257 57.5594C48.3845 57.5938 48.4496 57.6163 48.5172 57.6256C48.5847 57.6349 48.6534 57.6308 48.7194 57.6135C48.7853 57.5962 48.8472 57.5661 48.9016 57.5249C48.9559 57.4837 49.0015 57.4321 49.036 57.3733C49.0704 57.3144 49.0929 57.2494 49.1021 57.1818C49.1114 57.1143 49.1073 57.0456 49.09 56.9796C49.0727 56.9136 49.0426 56.8517 49.0014 56.7974C48.9602 56.7431 48.9087 56.6974 48.8498 56.663L48.849 56.6617Z" fill="#211715" stroke="black" stroke-width="0.00071429"/>
<path d="M46.2624 58.6631C46.3147 58.6043 46.2237 58.6897 46.2062 58.7012C46.2801 58.6534 46.1441 58.7185 46.1558 58.7198C46.176 58.7181 46.1959 58.7132 46.2146 58.7053C46.2473 58.6884 46.1343 58.7166 46.1309 58.7159C46.1506 58.7162 46.1702 58.7149 46.1897 58.712C46.2464 58.7103 46.3032 58.712 46.3597 58.7172C46.3881 58.7196 46.4171 58.7256 46.4452 58.7261C46.4506 58.7261 46.3245 58.7064 46.3803 58.7178C46.4002 58.722 46.4207 58.7243 46.4406 58.7278C46.7167 58.7803 46.9895 58.8487 47.2577 58.9327C47.5344 59.0431 47.8356 59.0775 48.1301 59.0322C48.3125 58.9804 48.4819 58.8907 48.6273 58.769C48.7726 58.6473 48.8907 58.4963 48.9737 58.3259C49.0841 58.1199 49.151 57.8936 49.1705 57.6607C49.1899 57.4279 49.1615 57.1936 49.0869 56.9722C49.0503 56.8394 48.9624 56.7266 48.8426 56.6585C48.7229 56.5905 48.581 56.5729 48.4482 56.6095C48.3154 56.6461 48.2026 56.7339 48.1346 56.8537C48.0666 56.9735 48.0489 57.1154 48.0855 57.2482C48.0983 57.3209 48.1179 57.3923 48.1439 57.4615C48.1416 57.4578 48.1359 57.3566 48.1364 57.4137C48.1364 57.4316 48.1392 57.4498 48.1398 57.4677C48.1413 57.5099 48.1398 57.5517 48.1372 57.5936C48.1381 57.6117 48.1364 57.6297 48.1323 57.6473C48.1253 57.6525 48.158 57.5372 48.1372 57.5971C48.126 57.6298 48.1223 57.6668 48.113 57.7003C48.1037 57.7338 48.0888 57.7665 48.0803 57.8C48.0656 57.8578 48.0951 57.7511 48.0996 57.7567C48.0915 57.778 48.0814 57.7985 48.0695 57.818C48.0538 57.8477 48.0369 57.8765 48.0187 57.9045C48.0098 57.9183 47.9988 57.9313 47.9906 57.9456C47.9635 57.9927 48.0174 57.9036 48.0222 57.9049C47.9991 57.9269 47.9775 57.9502 47.9573 57.9748C47.9464 57.9854 47.9326 57.9951 47.9229 58.0066C47.8857 58.0499 48.0053 57.956 47.9555 57.9817C47.9288 57.9951 47.9032 58.0106 47.879 58.028C47.8411 58.0574 47.9304 58.0064 47.9365 58.0064C47.9224 58.0097 47.9086 58.0144 47.8954 58.0204C47.8738 58.0258 47.7736 58.046 47.8658 58.0319C47.9696 58.0159 47.8294 58.0207 47.8184 58.0252C47.8534 58.0107 47.9332 58.0486 47.8513 58.0252C47.8337 58.02 47.8162 58.0157 47.7987 58.0107C47.7522 57.9977 47.7059 57.9841 47.6596 57.9703C47.5417 57.9354 47.424 57.9002 47.3057 57.8671C47.019 57.7842 46.7261 57.7241 46.4298 57.6875C46.1218 57.6523 45.7471 57.6825 45.5271 57.9302C45.4297 58.0276 45.375 58.1596 45.375 58.2974C45.375 58.4351 45.4297 58.5671 45.527 58.6645C45.6244 58.7619 45.7564 58.8166 45.8941 58.8167C46.0319 58.8167 46.1639 58.762 46.2613 58.6646L46.2624 58.6631Z" fill="#211715" stroke="black" stroke-width="0.00071429"/>
<path d="M43.3686 64.1077C43.4471 63.8525 43.5388 63.6016 43.6433 63.356C43.7006 63.2247 43.767 63.0976 43.8419 62.9755C43.8324 62.9908 43.9483 62.8279 43.9068 62.8809C43.9234 62.8593 44.029 62.7823 43.9546 62.8282C44.2447 62.649 44.6291 62.5883 44.9414 62.4492C45.2647 62.3059 45.5536 62.0952 45.7888 61.8311C46.2131 61.319 46.5115 60.7145 46.6601 60.0662C46.7269 59.8122 46.7735 59.5537 46.8332 59.2978C46.8647 59.1613 46.8981 59.0251 46.9413 58.8914C46.9558 58.8462 46.9833 58.7629 46.9937 58.7399C46.9857 58.7573 47.0962 58.5874 47.0175 58.6824C47.1114 58.5833 47.1637 58.4519 47.1637 58.3153C47.1637 58.1787 47.1114 58.0474 47.0175 57.9482C46.9196 57.8519 46.7877 57.7979 46.6504 57.7979C46.513 57.7979 46.3812 57.8519 46.2833 57.9482C45.9181 58.388 45.8457 58.9818 45.7245 59.5222C45.5904 60.1205 45.4 60.7645 44.951 61.2071C44.4601 61.6912 43.6682 61.6371 43.1919 62.1262C42.7592 62.5718 42.5565 63.255 42.3698 63.8315C42.1626 64.4685 43.165 64.7413 43.3712 64.1075L43.3686 64.1077Z" fill="#211715" stroke="black" stroke-width="0.00071429"/>
<path d="M36.858 63.1441C37.2928 62.5575 37.6911 61.9447 38.0506 61.3091C38.1916 61.0677 38.3292 60.8245 38.4674 60.5816C38.6084 60.3067 38.7034 60.0105 38.7486 59.7049C39.0126 58.2965 39.1992 56.8746 39.3076 55.4458C39.3581 54.8148 39.4895 54.1929 39.6985 53.5954C39.9148 52.9616 38.9124 52.6897 38.6973 53.3194C38.4995 53.8961 38.3666 54.493 38.3011 55.0992C38.2403 55.6591 38.2212 56.2224 38.1555 56.782C38.0659 57.5454 37.9247 58.3064 37.8094 59.0663C37.7755 59.3798 37.7082 59.6888 37.6086 59.988C37.5939 60.0259 37.6101 59.988 37.5718 60.0577C37.5459 60.1044 37.5188 60.1507 37.4925 60.1972C37.4176 60.3292 37.3423 60.4609 37.2666 60.5924C36.8757 61.2957 36.44 61.9731 35.9624 62.6206C35.8938 62.7397 35.8748 62.8811 35.9097 63.0141C35.9445 63.1471 36.0304 63.261 36.1487 63.331C36.2683 63.3972 36.4088 63.4148 36.5411 63.3801C36.6733 63.3454 36.7871 63.2611 36.8589 63.1448L36.858 63.1441Z" fill="#211715" stroke="black" stroke-width="0.00071429"/>
<path d="M32.2231 69.2863C32.8202 68.1326 33.4187 66.9793 34.0186 65.8265C34.2965 65.2942 34.5751 64.7622 34.8544 64.2305C35.0491 63.8627 35.2817 63.4703 35.4463 63.1093C35.437 63.1294 35.3165 63.0347 35.4344 63.1154C35.4726 63.1378 35.5122 63.1578 35.5529 63.1753C35.6281 63.2129 35.7033 63.2502 35.7788 63.2871C35.9735 63.3823 36.1689 63.476 36.365 63.5683C36.7944 63.7702 37.2262 63.9668 37.6588 64.1617C38.6106 64.5904 39.5674 65.0097 40.5222 65.4324C41.3897 65.8163 42.258 66.2001 43.1152 66.607C43.2001 66.6367 43.2812 66.6762 43.3569 66.7249C43.4148 66.7735 43.3742 66.7333 43.3668 66.7125C43.4278 66.8836 43.2725 67.1744 43.2167 67.3327C43.0726 67.7407 42.9167 68.1446 42.7559 68.5463C42.0875 70.2173 41.3418 71.8592 40.5722 73.4857C39.7521 75.2191 38.8373 76.9546 37.6281 78.4515C36.9359 79.3082 36.1385 80.1023 35.1188 80.5546C34.0311 81.0501 32.8427 81.2847 31.6484 81.2397C31.1665 81.228 30.692 81.1192 30.2532 80.9199C29.8143 80.7206 29.4202 80.4349 29.0943 80.0798C28.5857 79.463 28.2002 78.7544 27.9588 77.9923C27.4053 76.4151 27.2078 74.736 27.105 73.0818C26.9823 71.0004 27.0265 68.9126 27.2372 66.8382C27.4283 64.7505 27.8195 62.686 28.4053 60.6731C28.542 60.2151 28.693 59.7618 28.8583 59.3131C28.8937 59.1804 28.8755 59.0391 28.8077 58.9197C28.7399 58.8002 28.6278 58.7122 28.4957 58.6746C28.3631 58.6408 28.2225 58.6597 28.1034 58.7273C27.9843 58.7949 27.896 58.9059 27.8569 59.0371C27.1229 61.115 26.6206 63.2676 26.3594 65.4557C26.0595 67.6849 25.947 69.9353 26.023 72.1832C26.0894 74.0518 26.2657 75.9688 26.7968 77.768C27.3419 79.6097 28.3616 81.4484 30.3055 82.0519C31.5515 82.4392 32.9394 82.3139 34.1815 81.9775C35.3918 81.6738 36.5057 81.0688 37.4193 80.2189C39.0766 78.6475 40.2499 76.5339 41.2363 74.4972C42.015 72.8887 42.7486 71.2581 43.4369 69.6054C43.6316 69.142 43.8196 68.6765 43.9982 68.2073C44.1987 67.7758 44.3348 67.3174 44.4023 66.8464C44.4301 66.5625 44.344 66.2791 44.1629 66.0586C43.9834 65.8814 43.7679 65.7449 43.531 65.6584C43.1129 65.4613 42.6921 65.269 42.2705 65.0806C40.3453 64.2153 38.3932 63.3987 36.4902 62.4813C36.0329 62.2607 35.5696 61.9338 35.0474 62.1519C34.5308 62.3682 34.319 63.0223 34.074 63.4853C33.4683 64.6341 32.867 65.7851 32.2703 66.9384C31.9546 67.5461 31.6396 68.1541 31.3254 68.7624C31.0189 69.3549 31.9144 69.8807 32.2218 69.2863H32.2231Z" fill="#211715" stroke="black" stroke-width="0.00071429"/>
<path d="M48.9734 43.3964C49.0848 43.3259 49.1988 43.2604 49.3164 43.2018C49.4063 43.1541 49.4994 43.1128 49.5951 43.078C49.7417 43.0231 49.8916 42.9772 50.0439 42.9407C50.1571 42.9125 50.2721 42.8921 50.3881 42.8797C50.6931 42.8547 50.9992 42.846 51.3051 42.8535C51.4318 42.8574 51.5584 42.8643 51.6847 42.8764C51.7171 42.8794 51.7496 42.8829 51.7818 42.8868C51.7208 42.8779 51.7195 42.8779 51.7784 42.8868C51.8301 42.8961 51.8816 42.9052 51.9328 42.9166C52.0656 42.9532 52.2075 42.9356 52.3273 42.8676C52.447 42.7996 52.5349 42.6868 52.5715 42.554C52.6081 42.4212 52.5905 42.2793 52.5224 42.1595C52.4544 42.0398 52.3416 41.9519 52.2088 41.9153C51.5892 41.7918 50.9538 41.7689 50.3269 41.8474C49.6595 41.9187 49.0173 42.1422 48.4499 42.5007C48.3905 42.5348 48.3384 42.5803 48.2968 42.6347C48.2551 42.689 48.2245 42.7511 48.2069 42.8173C48.1893 42.8834 48.185 42.9525 48.1941 43.0203C48.2033 43.0882 48.2258 43.1536 48.2604 43.2127C48.295 43.2719 48.3409 43.3236 48.3955 43.3649C48.4501 43.4062 48.5124 43.4363 48.5787 43.4534C48.645 43.4705 48.7141 43.4744 48.7819 43.4647C48.8497 43.4551 48.9149 43.4321 48.9738 43.3971L48.9734 43.3964Z" fill="#211715" stroke="black" stroke-width="0.00071429"/>
<path d="M49.9999 37.5767C50.0627 37.7647 50.1209 37.9539 50.1765 38.1441C50.2422 38.342 50.2932 38.5444 50.3292 38.7498L50.3106 38.6118C50.3151 38.6514 50.3151 38.6914 50.3106 38.731L50.3292 38.5929C50.3259 38.6111 50.3213 38.6291 50.3153 38.6466L50.3677 38.5226C50.3606 38.539 50.3519 38.5545 50.3417 38.5692L50.4228 38.464C50.4155 38.4737 50.4071 38.4825 50.3977 38.4902L50.5027 38.4089C50.4618 38.4384 50.4179 38.4634 50.3716 38.4835L50.4955 38.4311C50.4505 38.4495 50.4035 38.4625 50.3554 38.4696L50.4934 38.4513C50.4053 38.4543 50.3172 38.4493 50.2301 38.4365C50.0926 38.4373 49.961 38.4922 49.8638 38.5894C49.7666 38.6866 49.7117 38.8182 49.7109 38.9557C49.7141 39.0924 49.7698 39.2226 49.8665 39.3193C49.9632 39.416 50.0934 39.4717 50.2301 39.4749C50.3026 39.4849 50.3756 39.491 50.4488 39.493C50.6297 39.4866 50.8063 39.4362 50.9634 39.3464C51.0555 39.298 51.136 39.2303 51.1995 39.1479C51.2629 39.0655 51.3079 38.9703 51.3312 38.869C51.3617 38.6974 51.3535 38.5212 51.3072 38.3533C51.2217 37.9983 51.1168 37.6478 51.0015 37.3015C50.9629 37.1724 50.8782 37.0619 50.7635 36.9911C50.6744 36.9389 50.5717 36.9145 50.4686 36.9209C50.3655 36.9274 50.2666 36.9645 50.1847 37.0275C50.1028 37.0905 50.0416 37.1765 50.0088 37.2745C49.976 37.3724 49.9733 37.478 50.0008 37.5775L49.9999 37.5767Z" fill="#211715" stroke="black" stroke-width="0.00071429"/>
<path d="M43.8294 34.3553C43.6847 34.9633 43.8943 36.3266 45.03 36.37C46.5226 36.2643 46.4938 34.6014 45.9409 33.8547C45.4882 33.2421 44.2614 33.0552 43.8294 34.3553Z" fill="#211715" stroke="black" stroke-width="0.00071429"/>
<path d="M55.7319 33.5829C55.9541 34.1669 55.9233 35.546 54.8017 35.7359C53.3091 35.8237 53.1218 34.171 53.5735 33.359C53.9434 32.6942 55.1357 32.3505 55.7319 33.5829Z" fill="#211715" stroke="black" stroke-width="0.00071429"/>
</svg>
