<svg width="100" height="100" viewBox="0 0 100 100" fill="none" xmlns="http://www.w3.org/2000/svg">
<path d="M38.1148 84.2372C38.19 84.2975 38.2699 84.3515 38.3539 84.3987C38.5476 84.518 38.7714 84.5794 38.9989 84.5754C39.2264 84.5715 39.448 84.5025 39.6374 84.3765C39.8251 84.1782 39.9974 83.9658 40.1529 83.7413C40.7708 83.0517 41.8911 83.2017 42.8366 83.1888C44.0288 83.1721 45.1896 82.8043 46.1738 82.1315L47.7896 82.2535C47.7756 80.0868 47.8706 77.9208 48.0744 75.7637C46.6939 75.6144 44.5305 75.3473 43.2645 75.0801C42.9145 75.6583 42.5794 76.1891 42.2711 76.6471C41.4174 77.916 39.3256 79.6505 37.9263 80.2682C37.4182 80.4879 36.8645 80.5813 36.3125 80.5403C36.2852 80.8582 36.3298 81.1782 36.4429 81.4765C36.7076 82.1635 37.043 82.8211 37.4436 83.4388C37.6225 83.7396 37.8492 84.0093 38.1148 84.2372Z" fill="white"/>
<path d="M60.7417 50.6318C63.9285 51.5476 66.4553 48.5498 66.2947 46.3713C66.2047 45.1257 65.8969 43.9056 65.3853 42.7664C64.7274 41.1976 63.4432 38.0072 62.9899 32.1884C63.0302 30.4158 62.7055 27.8799 62.5727 26.9056C62.1118 23.5287 60.3503 19.8382 58.0316 17.8737C57.0293 17.0242 56.7276 16.617 55.6643 16.126L54.4726 15.5752L53.8902 15.3818C51.8294 14.6765 49.6457 14.4028 47.4746 14.5776C43.1103 14.8595 39.3706 17.3594 37.753 19.1205C35.0692 22.0433 33.5787 27.1622 34.2532 34.0442C34.5562 38.7186 34.391 42.1152 33.9782 44.0657C33.6758 45.6712 33.5493 47.305 33.6012 48.9379C33.7225 51.1191 36.2383 53.357 39.6727 52.3933C39.6727 52.3933 46.4124 54.1109 51.0112 53.5708C55.9065 52.9968 60.7417 50.6318 60.7417 50.6318Z" fill="#AD7B59"/>
<path d="M59.5098 31.4022L58.6856 30.4724C57.0827 30.0954 55.159 27.5054 54.4788 26.4078C54.001 25.6363 53.425 23.9287 52.9814 22.7363C51.2836 25.2668 49.0403 27.1273 46.1707 28.152C45.4891 28.4037 46.0016 26.1558 46.0578 25.1069C44.3277 27.041 41.0283 30.2992 39.2532 31.9536L37.9583 33.2179C37.7699 32.9973 37.5249 32.8322 37.2497 32.7404C36.9744 32.6485 36.6794 32.6334 36.3962 32.6966C36.1683 32.744 35.954 32.8418 35.7689 32.9829C35.5837 33.124 35.4326 33.3048 35.3265 33.512C35.2064 33.7962 35.1475 34.1024 35.1535 34.4109C35.131 35.6211 35.4416 36.8141 36.0513 37.8596C36.3411 38.3891 36.7416 38.8498 37.2255 39.2104C37.6341 39.495 38.2152 39.8121 38.9143 39.5245C39.2631 40.5771 39.7558 41.5764 40.3782 42.4941C40.9003 43.04 41.3785 43.5426 41.3785 43.5426C42.3725 44.6282 43.5767 45.5006 44.9179 46.107C44.8892 46.6491 44.8279 47.189 44.7343 47.7237C44.6012 48.4842 44.6427 49.1638 43.5856 49.5458C43.5086 49.5735 39.0525 50.9708 39.2403 50.9548C39.2403 52.8488 43.3383 55.6088 48.8094 55.6088C55.069 55.6088 59.1793 52.7503 59.1793 51.0453L59.0895 51.0083C58.9826 50.9639 55.9843 49.5378 55.9143 49.5125C54.8569 49.1308 54.8986 48.451 54.7656 47.6906C54.6442 47.0111 54.5689 46.3241 54.5402 45.6343C57.1825 44.2184 59.1266 40.326 59.442 39.261C59.4825 39.1057 59.5606 38.8291 59.6325 38.4973C60.1076 38.3811 60.8014 38.3582 61.1647 38.028C61.5983 37.6082 61.9362 37.0998 62.1554 36.5375C62.6249 35.4224 62.7789 34.1997 62.6006 33.0029C62.5666 32.6962 62.4683 32.4 62.3123 32.1337C62.1804 31.9419 62.0073 31.7821 61.8056 31.6659C61.6039 31.5498 61.3788 31.4804 61.1467 31.4628C60.9259 31.4449 60.7038 31.4719 60.4937 31.542C60.2835 31.6121 60.0897 31.724 59.9239 31.8709L59.5098 31.4022Z" fill="white"/>
<path d="M60.2317 32.3102C60.6769 31.8788 61.4762 31.8701 61.8537 32.4029C62.0671 32.7041 62.0977 33.1428 62.1239 33.4992C62.1579 33.9311 62.1462 34.3653 62.0891 34.7947C61.986 35.6002 61.7112 36.3742 61.2833 37.0644C61.1364 37.3434 60.9139 37.5755 60.6414 37.734C60.2877 37.8483 59.9237 37.9276 59.5546 37.9709C58.8845 38.1115 59.168 39.138 59.8376 38.9974C60.1788 38.9455 60.517 38.8751 60.8505 38.7862C61.2194 38.6646 61.5467 38.4417 61.795 38.143C62.3329 37.4938 62.7219 36.7345 62.9346 35.9186C63.1777 35.0689 63.2579 34.1809 63.171 33.3014C63.0823 32.4474 62.8383 31.5935 62.0148 31.1761C61.6051 30.9671 61.1403 30.8916 60.6855 30.9601C60.2307 31.0287 59.8088 31.2378 59.4789 31.5583C58.9861 32.036 59.7393 32.7883 60.2317 32.311V32.3102Z" fill="#211715"/>
<path d="M59.2575 37.0625C59.2651 37.8274 59.1332 38.5872 58.8682 39.3047C58.8347 39.3981 58.7975 39.4901 58.7606 39.5824C58.7127 39.7028 58.7912 39.5178 58.7347 39.6431C58.7072 39.7039 58.6806 39.7653 58.6528 39.8259C58.5304 40.0936 58.3984 40.3569 58.26 40.6166C57.5711 41.9694 56.6584 43.196 55.5605 44.2446C54.9778 44.8078 54.2764 45.2336 53.5078 45.4906C52.853 45.6867 53.1318 46.7145 53.7908 46.5171C55.4432 46.0223 56.7225 44.7358 57.7428 43.3997C58.607 42.2843 59.3117 41.054 59.8368 39.7443C60.1719 38.8905 60.3371 37.9796 60.323 37.0625C60.3021 36.3792 59.2375 36.376 59.2584 37.0625H59.2575Z" fill="#211715"/>
<path d="M38.0064 32.5396C37.662 32.2934 37.2532 32.153 36.8302 32.1356C36.4072 32.1182 35.9883 32.2245 35.6248 32.4416C34.8598 32.9093 34.6185 33.7031 34.6191 34.5588C34.6207 36.2181 35.2269 38.0548 36.4292 39.2368C37.0946 39.89 37.9927 40.3513 38.9356 40.0838C39.5936 39.8971 39.3139 38.8695 38.6525 39.0571C37.9727 39.2501 37.3466 38.7047 36.9372 38.219C36.4292 37.5826 36.0671 36.8425 35.8765 36.0509C35.7729 35.6582 35.7107 35.2557 35.6911 34.8501C35.6406 34.479 35.6792 34.1012 35.8038 33.7479C36.1143 33.1012 36.9505 33.0735 37.4693 33.4596C37.5914 33.53 37.7363 33.5494 37.8726 33.5136C38.009 33.4779 38.1257 33.3899 38.1976 33.2686C38.2656 33.146 38.2837 33.0019 38.2481 32.8663C38.2125 32.7307 38.1261 32.614 38.0067 32.5405L38.0064 32.5396Z" fill="#211715"/>
<path d="M38.0619 38.5161C38.4385 40.0763 39.0951 41.5553 39.9999 42.881C40.0737 43.0001 40.1905 43.0864 40.326 43.1219C40.4616 43.1574 40.6056 43.1396 40.7283 43.072C40.8493 42.9999 40.9371 42.8831 40.9728 42.7469C41.0085 42.6106 40.9893 42.4658 40.9193 42.3436C40.0637 41.0964 39.4432 39.7033 39.0883 38.233C38.9191 37.5696 37.892 37.8509 38.0619 38.5161Z" fill="#211715"/>
<path d="M52.5142 23.0039C52.9993 24.3189 53.4014 25.7398 54.1755 26.9208C54.8711 28.0183 55.7123 29.0164 56.6763 29.8876C57.2046 30.3948 57.8445 30.771 58.5445 30.986C59.2099 31.1528 59.4927 30.1263 58.8275 29.9595C57.7746 29.6953 56.8575 28.6509 56.1586 27.8162C55.4474 27.0053 54.8657 26.0893 54.4341 25.1008C54.1116 24.3172 53.8353 23.5156 53.541 22.7209C53.5003 22.5868 53.4097 22.4734 53.2878 22.4043C53.166 22.3351 53.0222 22.3153 52.8862 22.3491C52.7507 22.3876 52.6357 22.4778 52.5661 22.6003C52.4966 22.7228 52.4779 22.8678 52.5142 23.0039Z" fill="#211715"/>
<path d="M52.5151 22.4767C51.5711 23.9038 50.3689 25.142 48.9704 26.1278C48.2561 26.6213 47.4937 27.0414 46.6949 27.3816C46.5028 27.463 46.3077 27.5388 46.1112 27.6094C45.9652 27.6617 46.0036 27.6278 46.1276 27.6466C46.1728 27.653 46.2163 27.6681 46.2558 27.691C46.266 27.697 46.4073 27.8434 46.3616 27.7866C46.4119 27.8491 46.3913 27.8653 46.3662 27.7706C46.3354 27.6546 46.3631 27.8254 46.3589 27.724C46.3529 27.5821 46.3511 27.4417 46.3589 27.2995C46.3944 26.5649 46.547 25.8414 46.5905 25.1077C46.5883 25.0033 46.5558 24.9019 46.4969 24.8157C46.438 24.7295 46.3553 24.6623 46.2589 24.6223C46.1624 24.5823 46.0565 24.5713 45.9539 24.5905C45.8513 24.6098 45.7565 24.6584 45.6811 24.7306C43.537 27.123 41.2245 29.3871 38.8763 31.5776C38.3744 32.046 39.1285 32.7975 39.6293 32.3303C41.9773 30.1399 44.2897 27.8757 46.4336 25.4837L45.5243 25.1066C45.4799 25.8403 45.3282 26.5638 45.2927 27.2984C45.2632 27.9035 45.4105 28.8863 46.2653 28.6782C46.7407 28.536 47.2013 28.3481 47.6405 28.1171C48.0758 27.9132 48.4995 27.6855 48.9096 27.4348C49.759 26.9142 50.5501 26.3039 51.2693 25.6145C52.0814 24.8269 52.8073 23.9549 53.4347 23.0135C53.8193 22.4443 52.8973 21.9109 52.5154 22.4761L52.5151 22.4767Z" fill="#211715"/>
<path d="M54.0319 14.8688C51.7093 14.0922 49.2453 13.8317 46.8117 14.1056C44.4188 14.4027 42.1235 15.2347 40.0961 16.5398C38.5465 17.4864 37.2192 18.7558 36.2046 20.2616C35.1688 21.9099 34.446 23.7352 34.0727 25.6458C33.4911 28.4018 33.4516 31.2497 33.7211 34.0453C33.7249 34.1853 33.7822 34.3185 33.8812 34.4175C33.9802 34.5165 34.1134 34.5738 34.2534 34.5776C34.3943 34.5766 34.5291 34.5202 34.6288 34.4206C34.7284 34.321 34.7848 34.1861 34.7858 34.0453C34.3779 29.8224 34.595 25.1733 36.7538 21.4041C37.5548 20.0124 38.6548 18.8158 39.9743 17.9008C41.7806 16.6079 43.8437 15.7185 46.0238 15.2929C48.6085 14.8406 51.2655 15.0478 53.7489 15.8953C54.4009 16.1106 54.6804 15.0828 54.0319 14.8688Z" fill="#211715"/>
<path d="M63.5215 32.1882C63.5272 30.9355 63.4515 29.6837 63.2948 28.4409C63.1944 27.3371 63.0209 26.2412 62.7753 25.1605C62.1416 22.6078 60.9286 20.0602 59.0966 18.1479C58.6233 17.6537 58.0889 17.2181 57.575 16.7674C57.0827 16.324 56.5296 15.9532 55.9324 15.6662C55.8096 15.5988 55.6657 15.581 55.5302 15.6165C55.3947 15.6521 55.2779 15.7382 55.204 15.8572C55.1339 15.9793 55.1146 16.1241 55.1504 16.2603C55.1861 16.3966 55.274 16.5133 55.395 16.5853C55.8806 16.8089 56.3327 17.0989 56.7384 17.447C57.182 17.8312 57.6378 18.2104 58.0612 18.6172C58.9161 19.4624 59.6388 20.4315 60.2051 21.4919C60.8245 22.6174 61.3085 23.8123 61.6468 25.0516C61.8198 25.6791 61.9531 26.3168 62.0461 26.961C62.052 27.0038 62.0578 27.0469 62.0638 27.0897C62.0844 27.2405 62.0485 26.973 62.0702 27.1374C62.0822 27.2288 62.0941 27.3202 62.1059 27.4117C62.1371 27.6548 62.1667 27.898 62.1947 28.1412C62.3728 29.4828 62.46 30.8348 62.4555 32.1882C62.442 32.8735 63.5066 32.8735 63.5201 32.1882H63.5215Z" fill="#211715"/>
<path d="M33.721 34.0452C33.8438 35.9594 33.9106 37.8792 33.86 39.7971C33.8466 41.0761 33.7354 42.3522 33.5273 43.6143C33.2237 45.1571 33.0645 46.7249 33.0518 48.2973C33.0279 48.9875 33.1488 49.6751 33.4067 50.3157C33.6756 50.9215 34.0765 51.4596 34.5802 51.8905C36.0343 53.1401 37.9983 53.4022 39.8146 52.9067C40.4749 52.7266 40.1946 51.6993 39.5316 51.88C38.1507 52.2571 36.6298 52.1402 35.4647 51.2459C34.9878 50.8846 34.6094 50.4091 34.3644 49.8632C34.2647 49.6248 34.193 49.3757 34.1506 49.1209C34.1484 49.106 34.1433 49.0683 34.1379 48.9971C34.132 48.9215 34.1291 48.8456 34.1262 48.7698C34.1191 48.5863 34.1164 48.4029 34.1166 48.2195C34.1333 46.7601 34.2812 45.3051 34.5587 43.8722C34.7695 42.6308 34.889 41.3756 34.9162 40.1167C34.9845 38.0928 34.9162 36.0652 34.7867 34.045C34.7835 33.9048 34.7264 33.7713 34.6272 33.6722C34.5281 33.573 34.3946 33.5159 34.2544 33.5127C34.1136 33.5139 33.9789 33.5704 33.8793 33.67C33.7798 33.7695 33.7233 33.9042 33.7221 34.045L33.721 34.0452Z" fill="#211715"/>
<path d="M62.4564 32.1886C62.7033 35.3077 63.2143 38.436 64.2752 41.389C64.6757 42.5042 65.2067 43.5748 65.4982 44.727C65.6142 45.1842 65.6949 45.6496 65.7397 46.1191C65.7728 46.4106 65.7708 46.705 65.7337 46.996C65.6152 47.606 65.3545 48.1794 64.9727 48.6697C64.5165 49.2956 63.8816 49.7688 63.1516 50.0274C62.4215 50.286 61.6303 50.3177 60.8819 50.1185C60.2207 49.9351 59.9383 50.9614 60.5986 51.1452C61.3942 51.3639 62.2326 51.3749 63.0336 51.177C63.8347 50.9792 64.5716 50.5793 65.1739 50.0154C66.2163 49.0656 66.9365 47.6506 66.8134 46.2191C66.7272 45.1987 66.5011 44.1949 66.1414 43.2361C65.9551 42.7395 65.7388 42.2542 65.5463 41.7596C65.1223 40.6649 64.7689 39.5441 64.4881 38.4042C63.996 36.3623 63.6725 34.2834 63.5208 32.1886C63.5175 32.0485 63.4603 31.915 63.3612 31.8159C63.2621 31.7168 63.1286 31.6596 62.9885 31.6562C62.8477 31.6574 62.7129 31.7138 62.6133 31.8134C62.5137 31.913 62.4573 32.0477 62.4562 32.1886H62.4564Z" fill="#211715"/>
<path d="M41.0011 43.9188C42.636 45.6254 44.71 46.9912 47.1152 47.1912C47.256 47.1901 47.3907 47.1336 47.4903 47.0341C47.5899 46.9345 47.6463 46.7998 47.6475 46.6589C47.6447 46.5186 47.5877 46.3848 47.4885 46.2856C47.3893 46.1864 47.2555 46.1294 47.1152 46.1266C45.0039 45.951 43.1783 44.6528 41.7541 43.1661C41.279 42.6703 40.5269 43.4238 41 43.9188H41.0011Z" fill="#211715"/>
<path d="M69.7073 80.9848C70.9744 76.3203 70.8249 67.7611 70.2349 61.6639C70.1867 60.8758 70.0755 60.0929 69.9022 59.3226C69.544 58.0444 68.9399 56.7043 68.0613 55.971C67.6142 55.4902 66.0702 54.4794 65.498 54.1689C63.3687 53.0118 61.4351 51.9866 59.2899 50.9848C59.2821 50.9868 59.2746 50.9899 59.2677 50.9941C56.9978 52.3189 52.5765 53.5004 49.2202 53.4878C45.4658 53.4776 41.4737 52.2155 39.0151 50.8311C36.0589 51.9285 32.6412 53.2897 30.691 54.7183C29.6873 55.5806 28.9281 56.8919 28.6626 58.8165C28.1724 64.1858 29.084 69.754 30.8961 74.8897C31.4506 76.4596 32.1324 78.0439 33.3408 79.1889C34.5491 80.3338 36.4027 80.9411 37.9256 80.2686C39.3249 79.6509 41.4167 77.9164 42.2704 76.6475C42.5789 76.189 42.9136 75.6587 43.2638 75.0805C44.5831 75.3591 46.6556 75.6372 48.0256 75.7829L48.0686 75.7973C47.7581 78.6858 47.6545 84.4781 48.017 84.5584C52.0564 84.7358 59.0749 85.285 65.1842 84.416C68.0252 84.0119 69.3242 82.2705 69.6017 81.3521C69.6382 81.2327 69.6734 81.1103 69.7073 80.9848Z" fill="#F4B3B3"/>
<path d="M62.4117 60.4508C62.2549 62.0961 62.2318 63.7616 62.163 65.4124C62.1025 66.8674 62.0395 68.3227 61.9871 69.7781C61.9301 71.3631 61.9401 72.9498 61.9401 74.5359C61.9401 75.221 63.0048 75.2221 63.0048 74.5359C63.0048 72.4852 63.0269 70.4393 63.1079 68.3903C63.182 66.505 63.2565 64.6197 63.3454 62.7345C63.3811 61.9741 63.404 61.2094 63.4763 60.4513C63.4753 60.3104 63.4189 60.1756 63.3193 60.0759C63.2197 59.9763 63.0849 59.9199 62.944 59.9189C62.8037 59.9218 62.67 59.9788 62.5708 60.0781C62.4716 60.1773 62.4146 60.311 62.4117 60.4513V60.4508Z" fill="#211715"/>
<path d="M48.3441 74.8324C52.0654 74.9028 55.7869 74.9656 59.5085 75.0207C60.6711 75.0367 61.8336 75.0515 62.9961 75.0651C63.6812 75.0728 63.6817 74.0082 62.9961 74.0005C59.1905 73.957 55.3852 73.8998 51.5801 73.829C50.5016 73.8093 49.4229 73.7892 48.3441 73.7687C47.6587 73.7556 47.6587 74.8202 48.3441 74.8333V74.8324Z" fill="#211715"/>
<path d="M69.7026 61.6637C70.1326 65.9073 70.25 70.1767 70.0539 74.4375C69.9871 76.317 69.7657 78.1878 69.3921 80.0311C69.3094 80.4081 69.2171 80.7841 69.1057 81.154C69.0907 81.2044 69.074 81.2541 69.0581 81.304C69.0492 81.3317 69.0372 81.3585 69.027 81.3858C68.9997 81.4588 69.0853 81.2649 69.0297 81.378C68.9709 81.4971 68.9117 81.6142 68.842 81.7276C68.6954 81.9754 68.5149 82.2015 68.3057 82.3994C68.0502 82.6587 67.7636 82.8853 67.4525 83.0741C66.5952 83.5654 65.6419 83.8659 64.6578 83.9549C63.4554 84.109 62.2466 84.2086 61.0363 84.2716C58.6692 84.3947 56.2964 84.3779 53.9283 84.2987C52.877 84.2636 51.8261 84.2155 50.7754 84.1629C50.3076 84.1397 49.8399 84.1159 49.3723 84.0915C49.1616 84.0807 48.9509 84.0701 48.7402 84.0598C48.5332 84.0232 48.3223 84.0132 48.1128 84.0303L48.0808 84.029C48.1911 84.0418 48.2938 84.0915 48.3723 84.17C48.3399 84.1379 48.3632 84.1412 48.4401 84.2599C48.4239 84.235 48.3796 84.1907 48.4428 84.2765C48.5002 84.3548 48.4552 84.3171 48.447 84.2741C48.4417 84.2452 48.4326 84.2168 48.4264 84.1882C48.4142 84.1321 48.3902 83.8999 48.4089 84.1039C48.4004 84.0117 48.388 83.9198 48.3802 83.8276C48.3359 83.3072 48.3266 82.7833 48.3217 82.2615C48.3088 80.8641 48.351 79.4668 48.4277 78.071C48.4634 77.4185 48.5076 76.7662 48.5703 76.1156C48.5954 75.8572 48.6236 75.5993 48.6573 75.342C48.6364 75.501 48.6648 75.2923 48.6695 75.2613C48.6761 75.2156 48.6835 75.17 48.6916 75.1244C48.7081 75.024 48.7258 74.9248 48.7471 74.8243C48.7615 74.7562 48.777 74.6882 48.7961 74.6209C48.8223 74.5298 48.874 74.418 48.8057 74.5686C48.8727 74.4457 48.8902 74.3019 48.8547 74.1665C48.8192 74.0311 48.7334 73.9144 48.6147 73.8402C48.4925 73.7702 48.3477 73.7509 48.2114 73.7866C48.0752 73.8224 47.9584 73.9102 47.8863 74.0312C47.7423 74.3932 47.6518 74.7742 47.6177 75.1624C47.5332 75.779 47.4762 76.3989 47.4307 77.0197C47.3234 78.4836 47.2686 79.9547 47.2577 81.4235C47.2531 82.0365 47.2557 82.6503 47.2821 83.2629C47.2821 83.684 47.3252 84.1041 47.4108 84.5165C47.4293 84.6161 47.4674 84.711 47.5227 84.7958C47.5781 84.8806 47.6498 84.9536 47.7335 85.0106C47.9035 85.0856 48.0895 85.1172 48.2747 85.1025C48.4991 85.1127 48.7235 85.1235 48.9478 85.1348C49.9388 85.1841 50.9296 85.2375 51.9199 85.283C54.283 85.3915 56.6493 85.4582 59.0148 85.409C60.2813 85.3826 61.5475 85.3234 62.81 85.2156C64.017 85.1125 65.2884 85.0381 66.4513 84.6808C67.9666 84.2151 69.473 83.181 70.061 81.6524C70.3102 80.9243 70.4895 80.1742 70.5967 79.4122C70.7688 78.435 70.8886 77.4482 70.9779 76.4603C71.3772 72.0536 71.2514 67.5826 70.901 63.177C70.8609 62.6725 70.8166 62.1682 70.7679 61.6642C70.7642 61.5241 70.7069 61.3909 70.6079 61.2918C70.5089 61.1928 70.3756 61.1355 70.2356 61.1318C70.0947 61.1328 69.9599 61.1892 69.8603 61.2888C69.7607 61.3885 69.7043 61.5233 69.7033 61.6642L69.7026 61.6637Z" fill="#211715"/>
<path d="M48.0254 75.2499C46.4683 75.099 44.9198 74.8695 43.3858 74.5623C43.2498 74.5282 43.1058 74.5477 42.9838 74.6169C42.8619 74.6862 42.7712 74.7998 42.7309 74.9341C42.6948 75.0702 42.7135 75.215 42.7831 75.3374C42.8526 75.4599 42.9674 75.5501 43.1028 75.5888C44.7304 75.9135 46.3734 76.1558 48.0254 76.3148C48.1663 76.3139 48.3012 76.2575 48.4008 76.1579C48.5005 76.0583 48.5568 75.9234 48.5577 75.7825C48.5547 75.6422 48.4976 75.5086 48.3984 75.4094C48.2993 75.3103 48.1656 75.2532 48.0254 75.2501V75.2499Z" fill="#211715"/>
<path d="M35.777 80.5823C35.742 81.5713 36.2774 82.5379 36.7705 83.3652C37.2635 84.1925 37.8863 85.0312 38.9281 85.1039C39.1572 85.1209 39.3872 85.0851 39.6003 84.9993C39.8135 84.9134 40.004 84.7798 40.1573 84.6086C40.398 84.3314 40.5428 83.9954 40.9043 83.8545C41.648 83.5635 42.5397 83.7691 43.3175 83.6959C44.4353 83.5968 45.5099 83.217 46.4418 82.5918C47.0056 82.2092 46.4735 81.2865 45.9046 81.6725C45.2015 82.153 44.4 82.4705 43.5586 82.602C42.8071 82.7189 42.0448 82.5978 41.2916 82.689C40.9077 82.7204 40.5351 82.8336 40.1986 83.021C39.8386 83.2392 39.6589 83.5551 39.397 83.8672C38.9204 84.435 38.2062 83.6303 37.9504 83.2443C37.6666 82.8144 37.4146 82.3644 37.1963 81.8978C36.9713 81.4952 36.8494 81.0431 36.8414 80.5819C36.8656 79.8967 35.801 79.8976 35.7768 80.5819L35.777 80.5823Z" fill="#211715"/>
<path d="M38.9848 51.5236C41.5933 52.8521 44.4313 53.671 47.3466 53.9363C50.1452 54.1998 52.9856 53.7655 55.6676 52.9604C56.3552 52.7567 57.0321 52.5184 57.6957 52.2464C58.0013 52.12 58.305 51.9887 58.6031 51.845C58.7379 51.7799 58.8716 51.7125 59.0041 51.6427C59.0623 51.6117 59.1204 51.5802 59.1782 51.5482C59.2159 51.5274 59.2531 51.5061 59.2904 51.4848C59.0785 51.4885 59.0489 51.5037 59.2017 51.5305C59.8671 51.6984 60.1494 50.6719 59.4847 50.5038C59.3321 50.463 59.1725 50.4558 59.0169 50.4829C58.8613 50.5099 58.7134 50.5705 58.5835 50.6604C58.3396 50.7934 58.09 50.9172 57.8374 51.0332C57.3031 51.2746 56.7568 51.4883 56.2005 51.6735C54.9097 52.1095 53.5863 52.4424 52.2428 52.669C49.4255 53.1312 46.5415 52.9772 43.7896 52.2174C42.3129 51.8354 40.882 51.2945 39.522 50.604C38.9142 50.2895 38.3753 51.208 38.9845 51.5232L38.9848 51.5236Z" fill="#211715"/>
<path d="M54.0126 45.7608C54.0626 46.6606 54.1751 47.5557 54.3491 48.4399C54.4141 48.7952 54.5727 49.1267 54.8087 49.4002C55.0446 49.6737 55.3492 49.8792 55.6912 49.9956C55.9001 50.0788 55.5581 49.9291 55.706 50.0001C55.7617 50.0269 55.8182 50.0522 55.8744 50.0786C56.0518 50.1614 56.2284 50.2445 56.4042 50.3281C56.8824 50.5542 57.3606 50.7804 57.8386 51.0068C58.1649 51.162 58.4885 51.3268 58.8205 51.4686C58.9435 51.5352 59.0872 51.5526 59.2225 51.5171C59.3577 51.4816 59.4745 51.396 59.5489 51.2776C59.6192 51.1555 59.6386 51.0106 59.6028 50.8742C59.5671 50.7379 59.4791 50.6212 59.3579 50.5492C58.6535 50.2489 57.9684 49.8945 57.2763 49.5671C56.9403 49.4083 56.6059 49.2459 56.2676 49.092C56.0923 49.0244 55.9222 48.9439 55.7588 48.8511C55.6767 48.8018 55.6055 48.7363 55.5494 48.6586C55.4934 48.5809 55.4537 48.4926 55.4328 48.3991C55.3525 48.0693 55.2923 47.735 55.2524 47.3979C55.1634 46.8559 55.1049 46.3094 55.0772 45.7608C55.042 45.0792 53.9771 45.075 54.0126 45.7608Z" fill="#211715"/>
<path d="M35.9378 63.3365L37.5126 64.1283C37.6377 64.1973 37.7843 64.2165 37.9229 64.182C38.0239 64.1542 38.1145 64.0972 38.1833 64.0182C38.2521 63.9391 38.296 63.8416 38.3096 63.7377C38.3231 63.6338 38.3057 63.5282 38.2596 63.4341C38.2134 63.3401 38.1405 63.2618 38.05 63.209L36.4752 62.4171C36.3502 62.3481 36.2037 62.3289 36.0651 62.3635C35.9641 62.3912 35.8735 62.4482 35.8047 62.5272C35.7359 62.6062 35.6919 62.7038 35.6783 62.8077C35.6647 62.9116 35.6821 63.0172 35.7283 63.1113C35.7744 63.2053 35.8473 63.2837 35.9378 63.3365Z" fill="#211715"/>
<path d="M44.3818 46.146C44.3499 46.6287 44.2993 47.1055 44.2197 47.5826C44.1853 47.8741 44.132 48.1631 44.0602 48.4476C44.0363 48.5364 43.9976 48.6204 43.9458 48.6963C43.851 48.8125 43.7303 48.9049 43.5933 48.9662C43.4945 49.0131 43.392 49.052 43.2868 49.0824C42.3258 49.3876 41.3636 49.6899 40.4034 49.9989C39.9862 50.1333 39.5646 50.2606 39.1536 50.4132C39.0195 50.4539 38.9062 50.5446 38.837 50.6664C38.7678 50.7882 38.748 50.932 38.7816 51.068C38.8202 51.2035 38.9105 51.3185 39.033 51.388C39.1555 51.4576 39.3005 51.4763 39.4366 51.4399C40.3877 51.0868 41.37 50.8058 42.3369 50.4993C43.2498 50.2109 44.5205 50.008 44.9645 49.0454C45.1056 48.6873 45.1967 48.3114 45.2353 47.9284C45.332 47.336 45.4065 46.7449 45.4462 46.1456C45.4462 46.0044 45.3902 45.869 45.2903 45.7692C45.1905 45.6694 45.0551 45.6133 44.9139 45.6133C44.7727 45.6133 44.6374 45.6694 44.5375 45.7692C44.4377 45.869 44.3816 46.0044 44.3816 46.1456L44.3818 46.146Z" fill="#211715"/>
<path d="M56.6442 50.3831C59.2124 51.4793 61.7054 52.7297 64.1631 54.0517C65.0963 54.5364 65.9978 55.0796 66.8624 55.6781C67.1925 55.9152 67.5067 56.1734 67.8033 56.4513C68.22 56.8596 68.5575 57.3416 68.7987 57.8728C69.3914 59.0787 69.5854 60.3403 69.7012 61.664C69.7047 61.8041 69.762 61.9374 69.861 62.0365C69.9601 62.1356 70.0935 62.1928 70.2335 62.1963C70.3744 62.1953 70.5092 62.1389 70.6088 62.0393C70.7085 61.9397 70.7648 61.8049 70.7658 61.664C70.6549 60.3833 70.4908 59.1597 69.9977 57.9637C69.5853 56.8888 68.8985 55.9406 68.0058 55.2134C67.2046 54.5829 66.3505 54.0227 65.4531 53.5389C64.2008 52.8599 62.9435 52.1897 61.6708 51.55C60.1955 50.8086 58.6988 50.1133 57.1807 49.464C57.0577 49.3973 56.914 49.38 56.7787 49.4155C56.6435 49.4509 56.5267 49.5366 56.4523 49.655C56.382 49.7771 56.3626 49.9219 56.3984 50.0582C56.4341 50.1945 56.5221 50.3112 56.6433 50.3831H56.6442Z" fill="#211715"/>
<path d="M29.176 58.9574C29.4089 57.3279 30.0492 55.7498 31.4703 54.826C33.045 53.8026 34.7986 53.0516 36.5348 52.3525C37.5937 51.9262 38.6623 51.5249 39.7333 51.1306C39.8674 51.0899 39.9808 50.9993 40.05 50.8774C40.1191 50.7556 40.1389 50.6118 40.1051 50.4758C40.0665 50.3404 39.9763 50.2255 39.8538 50.1559C39.7313 50.0864 39.5864 50.0678 39.4503 50.1041C37.4517 50.8396 35.4544 51.5959 33.5259 52.5024C32.6655 52.8958 31.8313 53.3442 31.0287 53.845C30.3041 54.2927 29.6876 54.8952 29.2234 55.6094C28.6498 56.5422 28.2838 57.5875 28.1502 58.6744C28.1173 58.8103 28.1375 58.9537 28.2065 59.0753C28.2756 59.1969 28.3883 59.2877 28.5219 59.3291C28.6579 59.3654 28.8027 59.3468 28.925 59.2772C29.0474 59.2077 29.1375 59.0928 29.176 58.9574Z" fill="#211715"/>
<path d="M41.3829 59.5276C41.8303 58.8363 43.0422 57.3014 43.1245 56.8578C43.2137 56.2785 43.2174 55.6891 43.1356 55.1087C42.8781 53.1884 42.7363 50.5652 42.3992 49.4229C42.1273 48.407 41.7209 47.432 41.1906 46.5238C40.679 45.6347 40.1099 44.78 39.4868 43.9651C39.2816 43.6979 39.1568 43.3778 39.127 43.0422C39.1152 42.8832 39.1552 42.7246 39.241 42.5902C39.3267 42.4558 39.4536 42.3527 39.6028 42.2963C39.9358 42.1897 40.295 42.1975 40.6231 42.3185C41.624 42.8608 42.2881 43.6628 43.0407 44.8317C43.5583 45.6364 45.1839 47.78 45.6565 48.612L45.7036 48.6852C46.1015 48.4563 46.4892 48.286 47.0344 48.0398C47.2761 47.9306 48.0103 47.6849 48.2764 47.7211C48.6691 47.7764 49.0318 47.9622 49.306 48.2487C49.5802 48.5353 49.75 48.9057 49.788 49.3005C50.2981 49.1705 50.7237 49.4699 51.0185 49.8215C51.2805 50.134 51.5207 50.6248 51.2638 51.6027C51.5275 51.7238 51.7517 51.9167 51.9108 52.1594C52.0699 52.402 52.1575 52.6845 52.1634 52.9746C52.2011 53.4951 52.2493 53.9536 51.9614 54.5325C51.6626 55.1327 50.8908 54.7696 50.6705 54.4908L50.5858 54.4502C50.8076 55.2338 51.1345 56.6123 50.7391 57.615C50.5969 57.9759 49.4107 58.8751 48.9072 59.1898C48.2418 60.2249 47.5928 62.3442 47.3628 62.9686" fill="white"/>
<path d="M45.1537 49.6904C45.5648 49.3829 46.0033 49.1138 46.4637 48.8866C46.6959 48.7733 46.9319 48.6677 47.1674 48.5614C47.2065 48.5439 47.3722 48.4727 47.2562 48.5197C47.2905 48.5058 47.3249 48.4925 47.3597 48.4798C47.466 48.4412 47.5729 48.4046 47.6811 48.3716C48.0899 48.2465 48.2642 48.1808 48.6397 48.3964C48.804 48.4911 48.9447 48.6217 49.0513 48.7785C49.1579 48.9352 49.2277 49.1141 49.2554 49.3016C49.2575 49.3829 49.2778 49.4626 49.3149 49.535C49.3519 49.6074 49.4047 49.6705 49.4693 49.7197C49.534 49.769 49.6089 49.8031 49.6885 49.8196C49.7681 49.836 49.8504 49.8344 49.9293 49.8148C50.0159 49.8014 50.1045 49.8079 50.1882 49.8339C50.272 49.8598 50.3487 49.9045 50.4126 49.9645C50.5488 50.0615 50.6585 50.1911 50.7315 50.3416C50.736 50.3494 50.7785 50.4343 50.7612 50.3955C50.7439 50.3567 50.793 50.49 50.7925 50.4882C50.8126 50.5552 50.8269 50.6237 50.8353 50.6932C50.8518 50.9525 50.823 51.2127 50.7504 51.4621C50.5847 52.1275 51.6112 52.4108 51.7769 51.7451C51.9441 51.0744 51.9896 50.3256 51.5994 49.7197C51.1693 49.0487 50.4503 48.6204 49.6451 48.7881L50.319 49.3014C50.2627 48.6813 49.9666 48.1078 49.4939 47.7026C49.2665 47.5039 48.9973 47.3588 48.7062 47.2781C48.4152 47.1975 48.1097 47.1834 47.8124 47.2369C47.2729 47.3654 46.7506 47.558 46.2567 47.8104C45.6778 48.0728 45.1277 48.3946 44.6154 48.7708C44.4967 48.845 44.4109 48.9617 44.3754 49.0971C44.3399 49.2325 44.3574 49.3763 44.4245 49.4992C44.4964 49.6203 44.6132 49.7083 44.7495 49.744C44.8858 49.7798 45.0307 49.7604 45.1528 49.6902L45.1537 49.6904Z" fill="#211715"/>
<path d="M46.9246 51.1058C47.179 50.9765 47.4379 50.8563 47.6985 50.7398C47.8502 50.6719 48.0026 50.6054 48.1556 50.5402L48.367 50.4502C48.5076 50.3905 48.2678 50.4914 48.4082 50.4328L48.5127 50.3885C48.9827 50.1924 49.4556 50.0032 49.9289 49.8149C50.0631 49.7744 50.1766 49.6838 50.2458 49.5619C50.315 49.44 50.3346 49.2962 50.3006 49.1602C50.2618 49.0249 50.1715 48.9101 50.0491 48.8406C49.9267 48.7711 49.7819 48.7524 49.6459 48.7884C48.5495 49.2243 47.4396 49.651 46.3874 50.1858C46.2662 50.2577 46.1783 50.3745 46.1425 50.5108C46.1068 50.6471 46.1262 50.792 46.1965 50.9142C46.2699 51.0336 46.3866 51.1201 46.5222 51.1557C46.6579 51.1912 46.802 51.1731 46.9246 51.1051V51.1058Z" fill="#211715"/>
<path d="M51.5333 51.1441C50.8839 50.8582 50.207 51.0193 49.5551 51.2173C49.251 51.3098 48.9463 51.3965 48.6508 51.5148C48.3166 51.6478 47.9735 51.8115 47.6527 51.9464C47.5192 51.9879 47.4064 52.0786 47.3374 52.2002C47.2683 52.3218 47.2482 52.4652 47.281 52.6011C47.3192 52.7368 47.4094 52.852 47.532 52.9216C47.6546 52.9912 47.7996 53.0097 47.9358 52.9731C48.5085 52.7133 49.0949 52.4848 49.6924 52.2884C49.9529 52.203 50.2178 52.1314 50.4858 52.0737C50.5206 52.0668 50.5559 52.0606 50.5909 52.0551C50.5366 52.0613 50.5414 52.0606 50.6055 52.0535C50.6721 52.0484 50.7402 52.0431 50.808 52.0438C50.8387 52.0438 51.0239 52.0757 50.9056 52.0473C50.93 52.0533 51.1081 52.1138 50.9955 52.0635C51.1184 52.1304 51.2622 52.1479 51.3975 52.1124C51.5329 52.0769 51.6496 51.9911 51.7239 51.8725C51.794 51.7504 51.8133 51.6055 51.7776 51.4692C51.7419 51.3329 51.654 51.2162 51.5329 51.1441H51.5333Z" fill="#211715"/>
<path d="M50.2935 54.8683C50.5174 55.118 50.8157 55.2891 51.1443 55.3562C51.3728 55.4145 51.6137 55.4003 51.8337 55.3157C52.0538 55.2311 52.2422 55.0803 52.3728 54.884C52.624 54.4559 52.7458 53.9642 52.7233 53.4683C52.7366 53.0318 52.6665 52.5967 52.5166 52.1865C52.326 51.7309 51.976 51.3604 51.532 51.1441C51.4716 51.1088 51.4049 51.0857 51.3356 51.0762C51.2664 51.0667 51.1959 51.071 51.1283 51.0887C51.0606 51.1064 50.9971 51.1373 50.9414 51.1796C50.8857 51.2218 50.8389 51.2747 50.8036 51.335C50.7683 51.3954 50.7453 51.4621 50.7358 51.5314C50.7263 51.6007 50.7305 51.6711 50.7483 51.7388C50.766 51.8064 50.7969 51.8699 50.8391 51.9256C50.8814 51.9813 50.9342 52.0281 50.9946 52.0634C51.0924 52.1114 51.1862 52.1671 51.2752 52.23C51.2053 52.181 51.2441 52.2056 51.2878 52.2453C51.3254 52.2794 51.3611 52.3155 51.3949 52.3533C51.4116 52.3722 51.428 52.3912 51.4435 52.411L51.4058 52.3631C51.4355 52.3773 51.4708 52.4609 51.487 52.4893C51.5166 52.5305 51.5397 52.576 51.5553 52.6244L51.5311 52.5678C51.5404 52.5917 51.5491 52.6161 51.5573 52.6405C51.5848 52.7291 51.607 52.8191 51.6238 52.9102C51.6331 52.9704 51.6326 52.9641 51.6221 52.8914C51.6252 52.9193 51.6276 52.9473 51.6296 52.9755C51.6347 53.0358 51.6387 53.0963 51.6427 53.1569C51.6579 53.3636 51.6593 53.571 51.6469 53.7779C51.64 53.8397 51.6405 53.8375 51.6487 53.7713C51.6451 53.7934 51.6411 53.817 51.6367 53.8396C51.6261 53.8941 51.6133 53.9482 51.5985 54.0017C51.5804 54.0667 51.5582 54.1299 51.5347 54.1931C51.5662 54.1088 51.5012 54.2637 51.5001 54.2657C51.4888 54.2885 51.4764 54.3107 51.4628 54.3322C51.4297 54.3805 51.4363 54.3725 51.4828 54.308C51.4682 54.3242 51.4527 54.3395 51.4362 54.3537C51.4999 54.3073 51.5147 54.2949 51.4806 54.3167C51.3779 54.3845 51.5777 54.2994 51.4857 54.3196C51.3424 54.351 51.5757 54.3278 51.481 54.3262H51.3905C51.2991 54.3262 51.5236 54.3561 51.3803 54.3209C51.3448 54.3122 51.3109 54.2998 51.2761 54.2894C51.363 54.3377 51.1532 54.2526 51.2761 54.2894C51.2616 54.2814 51.0951 54.2007 51.0999 54.184C51.1709 54.2404 51.1857 54.2516 51.1443 54.2177C51.1317 54.2071 51.119 54.1956 51.107 54.1843C51.0852 54.1633 51.0647 54.1411 51.0454 54.1177C50.9454 54.0183 50.81 53.9625 50.669 53.9625C50.5279 53.9625 50.3926 54.0183 50.2926 54.1177C50.1963 54.2194 50.1426 54.3541 50.1426 54.4941C50.1426 54.6341 50.1963 54.7689 50.2926 54.8705L50.2935 54.8683Z" fill="#211715"/>
<path d="M49.9404 54.1339C50.1219 54.7085 50.2602 55.2958 50.3541 55.891C50.4103 56.2686 50.4096 56.6526 50.3519 57.0299C50.3351 57.119 50.3136 57.207 50.2873 57.2937C50.2764 57.3298 50.2665 57.3682 50.252 57.403C50.2769 57.3365 50.258 57.3888 50.252 57.403C50.2437 57.4198 50.2334 57.4356 50.2214 57.45C50.1771 57.5099 50.2789 57.3835 50.2234 57.4465C50.1764 57.5003 50.1277 57.5525 50.0773 57.6031C49.8496 57.8263 49.6077 58.0345 49.3531 58.2265C49.1056 58.4173 48.8248 58.5734 48.5852 58.772C48.3237 58.9884 48.1694 59.4032 48.029 59.7059C47.8571 60.0763 47.7023 60.4554 47.5556 60.8371C47.303 61.4947 47.0916 62.1661 46.8501 62.8278C46.8139 62.9638 46.8325 63.1087 46.9021 63.2312C46.9716 63.3536 47.0864 63.4439 47.2218 63.4825C47.3579 63.5171 47.502 63.4977 47.624 63.4284C47.7461 63.3591 47.8366 63.2453 47.8766 63.1108C48.3251 61.8827 48.6635 60.5743 49.3673 59.4591L49.1763 59.6501C49.6498 59.3466 50.1002 59.0084 50.5238 58.6384C50.9478 58.2716 51.2557 57.9145 51.3717 57.352C51.6157 56.1665 51.283 54.9881 50.968 53.8516C50.7855 53.1922 49.7581 53.4723 49.9415 54.1346L49.9404 54.1339Z" fill="#211715"/>
<path d="M46.1153 48.3445C45.603 47.513 45.0495 46.7077 44.4567 45.9316C43.8254 45.0521 43.2603 44.1095 42.5714 43.2746C41.8479 42.3972 40.6945 41.345 39.4604 41.7835C38.7214 42.0465 38.453 42.8259 38.6797 43.5406C38.8824 44.1802 39.377 44.7041 39.7556 45.2462C40.7095 46.552 41.4299 48.0131 41.8849 49.5648C42.0641 50.2254 43.0915 49.945 42.9114 49.2818C42.5464 47.9928 41.9977 46.7631 41.2821 45.6306C40.9658 45.1171 40.6193 44.6241 40.2651 44.1363C40.0934 43.8997 39.3908 43.1367 39.7295 42.8297C39.8594 42.7582 40.0096 42.7322 40.156 42.7561C40.3812 42.7834 40.5929 42.8781 40.7633 43.028C41.1833 43.3264 41.557 43.6851 41.8723 44.0926C42.4614 44.8217 42.948 45.6474 43.4952 46.41C44.1032 47.205 44.6709 48.03 45.1964 48.8819C45.5375 49.4759 46.4577 48.9403 46.1155 48.3445H46.1153Z" fill="#211715"/>
<path d="M41.8425 59.7964C42.1872 59.2685 42.5733 58.7682 42.9328 58.2503C43.2735 57.7599 43.6089 57.2899 43.6843 56.6859C43.793 55.8171 43.641 54.9623 43.5474 54.1002C43.4565 53.264 43.3813 52.4261 43.2877 51.5899C43.2273 50.8113 43.1018 50.0392 42.9124 49.2816C42.7237 48.6244 41.6959 48.9046 41.886 49.5646C42.0368 50.1472 42.1401 50.7411 42.1947 51.3404C42.2887 52.1419 42.3615 52.9457 42.4453 53.7486C42.5292 54.5516 42.6827 55.3649 42.6591 56.1767C42.6539 56.3574 42.6379 56.5377 42.6112 56.7165C42.6046 56.7454 42.5964 56.7739 42.5866 56.8019C42.621 56.6688 42.5791 56.8152 42.5569 56.8583C42.4237 57.1037 42.2755 57.3407 42.1133 57.568C41.7247 58.1376 41.2995 58.6825 40.9227 59.2599C40.5459 59.8372 41.4685 60.3689 41.8418 59.7971L41.8425 59.7964Z" fill="#211715"/>
<path d="M28.1307 58.8165C27.6625 64.0381 28.4803 69.3442 30.1331 74.3018C30.8708 76.5151 31.7853 78.9374 33.8456 80.2511C34.7775 80.8686 35.8915 81.1514 37.0051 81.0533C38.0424 80.9307 38.9438 80.3826 39.7756 79.7809C40.6415 79.169 41.4355 78.4612 42.1426 77.6711C42.6543 77.05 43.1136 76.3875 43.5158 75.6905C44.4522 74.1694 45.3199 72.6053 46.1567 71.0276C46.9361 69.558 47.6931 68.0735 48.382 66.5588C48.6231 66.0287 48.8613 65.4942 49.0603 64.9466C49.1712 64.6409 49.3165 64.2732 49.2235 63.9456C49.0904 63.476 48.5705 63.1391 48.1995 62.8747C47.5991 62.4597 46.9778 62.0758 46.3381 61.7245C44.8286 60.8681 43.2802 60.0821 41.7363 59.2903C41.4333 59.135 41.1308 58.979 40.8287 58.8223C40.7059 58.7547 40.5619 58.7368 40.4264 58.7724C40.2908 58.8079 40.1741 58.8941 40.1003 59.0132C39.2965 60.2238 38.5699 61.4878 37.8541 62.7519C37.1384 64.0159 36.4284 65.2899 35.8023 66.601C35.7348 66.7237 35.7169 66.8676 35.7525 67.0031C35.788 67.1386 35.8742 67.2553 35.9932 67.3291C36.1154 67.3992 36.2603 67.4184 36.3965 67.3827C36.5328 67.347 36.6495 67.2591 36.7216 67.1381C37.3487 65.8273 38.0577 64.5535 38.7735 63.2893C39.4892 62.025 40.2152 60.7608 41.0196 59.5506L40.2913 59.7416C41.681 60.4649 43.0821 61.1664 44.4626 61.9075C45.1919 62.299 45.9174 62.6982 46.6263 63.1251C46.9102 63.2964 47.1916 63.4718 47.466 63.6575C47.5809 63.7352 47.6941 63.8155 47.8058 63.8981C47.828 63.9147 47.8501 63.9318 47.8723 63.9489C47.8592 63.9389 47.7863 63.8799 47.8592 63.9398C47.9067 63.9784 47.9542 64.017 48.0003 64.0574C48.0695 64.1184 48.1309 64.1856 48.1968 64.2499C48.2886 64.3386 48.1456 64.176 48.1888 64.2372C48.2445 64.3166 48.2197 64.322 48.1935 64.2202C48.2243 64.3404 48.1935 64.0412 48.1859 64.1958C48.1937 64.0154 48.1922 64.1501 48.1675 64.2466C48.1234 64.4089 48.0708 64.5688 48.0101 64.7256C47.9717 64.8292 47.9313 64.9319 47.8901 65.0344C47.8698 65.0847 47.8493 65.1349 47.8286 65.1852C47.818 65.2114 47.8064 65.2376 47.796 65.2637C47.7918 65.2758 47.7868 65.2876 47.7812 65.299C47.2027 66.65 46.5442 67.9675 45.8721 69.2736C45.0675 70.8375 44.2288 72.3848 43.3436 73.9041C42.9524 74.5748 42.5516 75.2402 42.1308 75.893C41.688 76.5818 41.1601 77.212 40.5596 77.7687C39.8526 78.4405 39.0697 79.0277 38.2268 79.5185C37.8398 79.7547 37.4085 79.9092 36.9596 79.9723C36.5106 80.0354 36.0535 80.0059 35.6164 79.8856C33.465 79.3009 32.328 77.2142 31.5999 75.271C29.8603 70.6297 28.9177 65.61 29.082 60.6468C29.1024 60.0358 29.1402 59.4257 29.1953 58.8165C29.1943 58.6756 29.1379 58.5408 29.0383 58.4412C28.9387 58.3416 28.8039 58.2852 28.663 58.2842C28.5228 58.2871 28.3891 58.3442 28.2899 58.4434C28.1907 58.5425 28.1337 58.6762 28.1307 58.8165Z" fill="#211715"/>
<path d="M49.6542 35.8366C49.7133 36.0163 49.7695 36.1971 49.8228 36.3791C49.8856 36.5681 49.9344 36.7614 49.9687 36.9576L49.9496 36.8161C49.9539 36.854 49.9539 36.8922 49.9496 36.9301L49.9685 36.7886C49.9655 36.806 49.9611 36.8231 49.9554 36.8398L50.0091 36.7127C50.0022 36.7283 49.9939 36.7431 49.9842 36.7571L50.0674 36.6493C50.0603 36.6584 50.0522 36.6667 50.0432 36.6741L50.151 36.5909C50.1119 36.6192 50.0698 36.6431 50.0255 36.6621L50.1526 36.6085C50.1099 36.6261 50.0652 36.6384 50.0195 36.6453L50.161 36.6262C50.0768 36.6291 49.9926 36.6244 49.9093 36.6122C49.8394 36.6122 49.7701 36.626 49.7056 36.6528C49.641 36.6795 49.5823 36.7187 49.5329 36.7681C49.4834 36.8176 49.4442 36.8763 49.4175 36.9408C49.3907 37.0054 49.377 37.0747 49.377 37.1446C49.3802 37.2847 49.4374 37.4182 49.5365 37.5173C49.6356 37.6165 49.7691 37.6736 49.9093 37.6769C49.9786 37.6864 50.0484 37.6922 50.1184 37.6942C50.2977 37.6881 50.4729 37.6383 50.6286 37.5491C50.7205 37.5004 50.8008 37.4326 50.8642 37.3502C50.9276 37.2677 50.9726 37.1727 50.9961 37.0714C51.0271 36.9011 51.0195 36.7261 50.9739 36.5592C50.8923 36.2197 50.792 35.8845 50.682 35.5534C50.6424 35.421 50.5556 35.3077 50.438 35.2351C50.3466 35.1816 50.2413 35.1565 50.1356 35.1632C50.0299 35.1698 49.9285 35.2079 49.8446 35.2724C49.7606 35.337 49.6978 35.4252 49.6642 35.5256C49.6306 35.6261 49.6277 35.7343 49.656 35.8364L49.6542 35.8366Z" fill="#211715"/>
<path d="M43.5944 33.1963C43.4526 33.791 43.6563 35.1247 44.7681 35.1675C46.2273 35.0643 46.2003 33.4374 45.6595 32.7071C45.2168 32.1089 44.0171 31.9257 43.5944 33.1963Z" fill="#211715"/>
<path d="M55.2839 32.4411C55.5008 33.0127 55.4706 34.3615 54.3734 34.5469C52.9131 34.6325 52.7305 33.0165 53.1726 32.2218C53.5348 31.5715 54.701 31.2354 55.2839 32.4411Z" fill="#211715"/>
<path d="M48.8172 41.7516C49.0203 41.6228 49.2346 41.5128 49.4576 41.4229C49.6085 41.3663 49.7628 41.3191 49.9196 41.2816C50.0363 41.2524 50.1548 41.2314 50.2745 41.2188C50.5883 41.193 50.9032 41.1839 51.218 41.1918C51.3484 41.1958 51.4788 41.2031 51.6086 41.2155C51.6421 41.2186 51.6751 41.2222 51.7086 41.2261C51.6462 41.217 51.6452 41.217 51.7055 41.2261C51.7587 41.2357 51.8117 41.245 51.8645 41.2568C51.9319 41.2753 52.0023 41.2805 52.0717 41.2718C52.1411 41.2632 52.2081 41.241 52.2689 41.2065C52.3297 41.172 52.3831 41.1258 52.4261 41.0707C52.469 41.0155 52.5007 40.9524 52.5193 40.885C52.5379 40.8176 52.543 40.7472 52.5344 40.6778C52.5257 40.6085 52.5035 40.5415 52.469 40.4807C52.4345 40.4199 52.3883 40.3665 52.3332 40.3235C52.278 40.2805 52.2149 40.2489 52.1475 40.2303C51.51 40.103 50.8561 40.0794 50.211 40.1604C49.5249 40.2339 48.8648 40.4638 48.2814 40.8322C48.1595 40.9035 48.0708 41.0202 48.035 41.1568C47.9992 41.2934 48.0191 41.4386 48.0903 41.5605C48.1615 41.6824 48.2783 41.771 48.4149 41.8069C48.5514 41.8427 48.6967 41.8228 48.8186 41.7516H48.8172Z" fill="#211715"/>
</svg>
