<svg width="100" height="100" viewBox="0 0 100 100" fill="none" xmlns="http://www.w3.org/2000/svg">
<path d="M50 15.5018C40.5532 15.4056 31.4547 19.0755 24.7042 25.7051C17.9537 32.3347 14.1036 41.3815 14 50.8573C14.0364 58.3459 16.438 65.6302 20.8598 71.664C25.2817 77.6978 31.4962 82.1706 38.6109 84.44C40.4109 84.7683 41.0655 83.685 41.0655 82.733C41.0655 81.781 41.0655 79.68 41.0655 76.7255C31.0509 78.8593 28.9236 71.9983 28.9236 71.9983C28.257 69.8445 26.8397 68.0034 24.9309 66.8116C21.6582 64.6449 25.1927 64.6778 25.1927 64.6778C26.3239 64.8295 27.4063 65.2361 28.3585 65.8672C29.3107 66.4982 30.1081 67.3374 30.6909 68.3216C31.7065 70.0882 33.373 71.3841 35.3317 71.9305C37.2903 72.477 39.3846 72.2302 41.1636 71.2433C41.3466 69.4456 42.1582 67.7709 43.4545 66.5161C35.4691 65.6298 27.0909 62.6096 27.0909 49.0518C27.0195 45.5152 28.3222 42.0894 30.7236 39.4989C29.63 36.4626 29.7591 33.1182 31.0836 30.1758C31.0836 30.1758 34.1273 29.2238 40.9018 33.7869C46.7989 32.2106 53.0047 32.2106 58.9018 33.7869C65.7745 29.2238 68.72 30.1758 68.72 30.1758C70.0445 33.1182 70.1737 36.4626 69.08 39.4989C71.5372 42.0419 72.9106 45.4447 72.9091 48.9861C72.9091 62.5768 64.4655 65.5641 56.5455 66.4505C57.4127 67.295 58.0826 68.3218 58.507 69.457C58.9314 70.5923 59.0998 71.8077 59 73.016V82.7002C59 82.7002 59.6545 84.7683 61.4545 84.4072C68.549 82.1237 74.7427 77.6498 79.1508 71.6246C83.559 65.5993 85.9562 58.3308 86 50.8573C85.8964 41.3815 82.0463 32.3347 75.2958 25.7051C68.5453 19.0755 59.4468 15.4056 50 15.5018Z" fill="black"/>
</svg>
